<?xml version="1.0" encoding="UTF-8" standalone="no"?>
<!-- Created with Inkscape (http://www.inkscape.org/) -->

<svg
   width="128"
   height="128"
   viewBox="0 0 33.866666 33.866666"
   version="1.1"
   id="svg1"
   inkscape:version="1.3 (0e150ed6c4, 2023-07-21)"
   sodipodi:docname="error.svg"
   inkscape:export-filename="Icon_chara.png"
   inkscape:export-xdpi="768"
   inkscape:export-ydpi="768"
   xmlns:inkscape="http://www.inkscape.org/namespaces/inkscape"
   xmlns:sodipodi="http://sodipodi.sourceforge.net/DTD/sodipodi-0.dtd"
   xmlns="http://www.w3.org/2000/svg"
   xmlns:svg="http://www.w3.org/2000/svg">
  <sodipodi:namedview
     id="namedview1"
     pagecolor="#ffffff"
     bordercolor="#000000"
     borderopacity="0.25"
     inkscape:showpageshadow="2"
     inkscape:pageopacity="0.0"
     inkscape:pagecheckerboard="true"
     inkscape:deskcolor="#d1d1d1"
     inkscape:document-units="px"
     inkscape:zoom="5.6568543"
     inkscape:cx="8.3085047"
     inkscape:cy="71.506173"
     inkscape:window-width="2560"
     inkscape:window-height="1377"
     inkscape:window-x="1912"
     inkscape:window-y="-8"
     inkscape:window-maximized="1"
     inkscape:current-layer="layer2"
     labelstyle="below"
     showguides="true"
     inkscape:lockguides="true">
    <sodipodi:guide
       position="20.592024,-0.23564449"
       orientation="1,0"
       id="guide8"
       inkscape:locked="true" />
    <sodipodi:guide
       position="13.272575,0"
       orientation="1,0"
       id="guide9"
       inkscape:locked="true" />
  </sodipodi:namedview>
  <defs
     id="defs1" />
  <g
     inkscape:label="Layer 1"
     inkscape:groupmode="layer"
     id="layer1"
     style="display:inline">
    <path
       id="path2"
       style="fill:#79cdee;fill-opacity:1;stroke-width:0.0830855"
       d="m -8.6733894,14.132597 c 0,2.528903 -2.0500796,4.578982 -4.5789806,4.578982 -2.528902,0 -4.578982,-2.05008 -4.578982,-4.578982 0,-2.528901 2.05008,-4.5789806 4.578982,-4.5789807 2.528901,0 4.5789806,2.0500797 4.5789806,4.5789807 z"
       sodipodi:nodetypes="sssss" />
    <path
       id="path3"
       style="fill:#fdb515;fill-opacity:1;stroke-width:0.0830855"
       d="m -8.6733894,24.357505 c 0,2.528902 -2.0500796,4.578981 -4.5789806,4.578981 -2.528902,0 -4.578982,-2.05008 -4.578982,-4.578981 0,-2.528902 2.05008,-4.578981 4.578982,-4.578981 2.528901,0 4.5789806,2.050079 4.5789806,4.578981 z"
       sodipodi:nodetypes="sssss" />
    <path
       id="path4"
       style="fill:#fcf9f7;fill-opacity:1;stroke-width:0.0830855"
       d="m -8.7178455,3.507585 c 0,2.5289025 -2.0500805,4.5789815 -4.5789805,4.5789815 -2.528902,0 -4.578982,-2.05008 -4.578982,-4.5789815 0,-2.52890097 2.05008,-4.578981 4.578982,-4.578981 2.5289,0 4.5789805,2.05008003 4.5789805,4.578981 z"
       sodipodi:nodetypes="sssss" />
    <path
       id="path5"
       style="fill:#79cdee;stroke-width:0.264583"
       d="m -14.003874,-21.294347 c 0,-2.946293 1.895115,-5.869133 3.600946,-6.827907 1.7058313,0.958774 3.6009458,3.881614 3.6009458,6.827907 0,2.946293 -1.7379385,5.601934 -3.6009458,5.947721 -1.863007,-0.345787 -3.600946,-3.001428 -3.600946,-5.947721 z"
       sodipodi:nodetypes="scscs" />
    <path
       id="path21"
       style="fill:#79cdee;stroke-width:0.264583"
       d="m -34.699982,-24.463385 c -2.946288,0 -5.601653,1.738324 -5.94744,3.60133 0.345787,1.863005 3.001152,3.600814 5.94744,3.600814 2.491503,0 4.96584,-1.355578 6.250265,-2.805514 v 6.037875 h 1.066601 v -6.141228 c 1.256325,1.488307 3.788383,2.908867 6.339148,2.908867 2.946288,0 5.602171,-1.737809 5.947957,-3.600814 -0.345786,-1.863006 -3.001669,-3.60133 -5.947957,-3.60133 -2.94629,0 -5.869234,1.8955 -6.828007,3.60133 0.0058,0.01033 0.01265,0.02066 0.0186,0.03101 h -0.03721 c 0.0059,-0.01035 0.0128,-0.02067 0.0186,-0.03101 -0.958773,-1.70583 -3.881717,-3.60133 -6.828007,-3.60133 z" />
    <path
       id="path23"
       style="fill:#79cdee;stroke-width:0.173814"
       d="m -54.160361,-4.6751596 a 16.83798,16.83798 0 0 0 -16.837731,16.8377316 16.83798,16.83798 0 0 0 6.263183,13.063802 c 0.06192,-0.671981 -0.0088,-1.169774 -0.0088,-1.980758 0,-4.231325 1.190856,-8.062081 3.115572,-10.834997 1.807358,-2.603843 4.262146,-4.27436 6.986653,-4.468461 V 4.2509104 c -1.186956,1.3399086 -3.473437,2.5926066 -5.775874,2.5926066 -2.722712,0 -5.176758,-1.605814 -5.496305,-3.3274455 0.319547,-1.7216343 2.773593,-3.32796221 5.496305,-3.32796221 2.722714,0 5.423666,1.75157791 6.309692,3.32796221 0.886017,-1.5763843 3.587498,-3.32796221 6.310209,-3.32796221 2.722712,0 5.176761,1.60632791 5.496305,3.32796221 -0.319544,1.7216315 -2.773593,3.3274455 -5.496305,3.3274455 -2.357203,0 -4.697566,-1.31284 -5.858557,-2.688208 v 3.783748 c 2.757128,0.166183 5.243922,1.841708 7.069336,4.471562 1.924716,2.772915 3.115055,6.603672 3.115055,10.834997 0,0.794868 -0.06925,1.286768 -0.01395,1.938383 a 16.83798,16.83798 0 0 0 6.162924,-13.021427 16.83798,16.83798 0 0 0 -16.837732,-16.8377316 z m 0.05271,8.1912311 c -0.0055,0.00954 -0.01145,0.018902 -0.01705,0.028422 h 0.03462 c -0.0056,-0.00955 -0.01207,-0.018902 -0.01757,-0.028422 z" />
    <path
       id="path24"
       style="fill:#79cdee;stroke-width:0.173814"
       d="m -30.090102,60.963063 a 16.83798,16.83798 0 0 0 -16.837732,16.837731 16.83798,16.83798 0 0 0 6.263184,13.063802 c 0.06192,-0.671981 -0.0088,-1.169774 -0.0088,-1.980758 0,-4.231325 1.190856,-8.062081 3.115572,-10.834997 1.807358,-2.603843 4.262146,-4.27436 6.986653,-4.468461 v -3.691247 c -1.186956,1.339908 -3.473437,2.592606 -5.775874,2.592606 -2.722713,0 -5.176758,-1.605814 -5.496306,-3.327445 0.319548,-1.721635 2.773593,-3.327962 5.496306,-3.327962 2.722714,0 5.423666,1.751577 6.309692,3.327962 0.886017,-1.576385 3.587498,-3.327962 6.310209,-3.327962 2.722712,0 5.176761,1.606327 5.496305,3.327962 -0.319544,1.721631 -2.773593,3.327445 -5.496305,3.327445 -2.357203,0 -4.697566,-1.31284 -5.858557,-2.688208 v 3.783748 c 2.757128,0.166183 5.243922,1.841708 7.069336,4.471562 1.924716,2.772915 3.115055,6.603672 3.115055,10.834997 0,0.794868 -0.06926,1.286768 -0.01395,1.938383 a 16.83798,16.83798 0 0 0 6.162943,-13.021427 16.83798,16.83798 0 0 0 -16.837731,-16.837731 z m 0.05271,8.191231 c -0.0055,0.0095 -0.01145,0.0189 -0.01705,0.02842 h 0.03462 c -0.0056,-0.0096 -0.01207,-0.0189 -0.01757,-0.02842 z" />
  </g>
  <g
     inkscape:groupmode="layer"
     id="layer2"
     inkscape:label="Layer 2"
     style="display:inline">
    <path
       id="path6"
       style="fill:none;fill-opacity:1;stroke:#79cdee;stroke-width:0.396875;stroke-linejoin:round;stroke-dasharray:none;stroke-opacity:1"
       d="m -86.59678,29.095251 c -2.373305,0 -4.512382,1.399902 -4.790921,2.900599 0.278539,1.500695 2.417616,2.900598 4.790921,2.900598 2.006966,0 4.000199,-1.091853 5.034835,-2.259811 v 3.217375 c -2.374872,0.169192 -4.514647,1.62516 -6.090067,3.894853 -1.677717,2.417067 -2.715597,5.756583 -2.715597,9.444901 0,1.749365 0.418622,1.769087 -1.635042,6.784082 -0.207479,0.506658 2.61135,-0.784613 2.803446,-0.288355 0.369143,0.953645 1.303793,3.10978 3.140377,4.789372 0.213461,0.195217 1.013647,1.26075 1.302763,1.938383 0.402873,-0.25311 0.862258,-1.809419 1.684651,-1.55236 0.636398,0.19892 1.29681,0.303859 1.974557,0.303857 0.677747,0 1.338675,-0.104937 1.975073,-0.303857 0.822391,-0.257059 1.281777,1.29925 1.684652,1.55236 0.289115,-0.677633 1.088785,-1.743166 1.302246,-1.938383 1.836584,-1.679592 2.77175,-3.835727 3.140893,-4.789372 0.192095,-0.496258 3.010409,0.795013 2.80293,0.288355 -2.053664,-5.014995 -1.634526,-5.034717 -1.634526,-6.784082 0,-3.688318 -1.03788,-7.027834 -2.715596,-9.444901 -1.59116,-2.292366 -3.758594,-3.75258 -6.161898,-3.897437 v -3.29799 c 1.011999,1.198867 3.051962,2.34301 5.106665,2.34301 2.373307,0 4.512382,-1.399903 4.790922,-2.900598 -0.27854,-1.500697 -2.417615,-2.900599 -4.790922,-2.900599 -2.373308,0 -4.728125,1.526511 -5.500439,2.900599 -0.772313,-1.374088 -3.126614,-2.900599 -5.499923,-2.900599 z" />
    <path
       id="path7"
       style="fill:#79cdee;fill-opacity:1;stroke:none;stroke-width:0.396875;stroke-linejoin:round;stroke-dasharray:none;stroke-opacity:1"
       d="m -56.566572,28.367734 c -2.373305,0 -4.512382,1.399902 -4.790921,2.900599 0.278539,1.500695 2.417616,2.900598 4.790921,2.900598 2.006966,0 4.000199,-1.091853 5.034835,-2.259811 v 3.217375 c -2.374872,0.169192 -4.514647,1.62516 -6.090067,3.894853 -1.677717,2.417067 -2.715597,5.756583 -2.715597,9.444901 0,1.749365 0.418622,1.769087 -1.635042,6.784082 -0.207479,0.506658 2.61135,-0.784613 2.803446,-0.288355 0.369143,0.953645 1.303793,3.10978 3.140377,4.789372 0.213461,0.195217 1.013647,1.26075 1.302763,1.938383 0.402873,-0.25311 0.862258,-1.809419 1.684651,-1.55236 0.636398,0.19892 1.29681,0.303859 1.974557,0.303857 0.677747,0 1.338675,-0.104937 1.975073,-0.303857 0.822391,-0.257059 1.281777,1.29925 1.684652,1.55236 0.289115,-0.677633 1.088785,-1.743166 1.302246,-1.938383 1.836584,-1.679592 2.77175,-3.835727 3.140893,-4.789372 0.192095,-0.496258 3.010409,0.795013 2.80293,0.288355 -2.053664,-5.014995 -1.634526,-5.034717 -1.634526,-6.784082 0,-3.688318 -1.03788,-7.027834 -2.715596,-9.444901 -1.59116,-2.292366 -3.758594,-3.75258 -6.161898,-3.897437 v -3.29799 c 1.011999,1.198867 3.051962,2.34301 5.106665,2.34301 2.373307,0 4.512382,-1.399903 4.790922,-2.900598 -0.27854,-1.500697 -2.417615,-2.900599 -4.790922,-2.900599 -2.373308,0 -4.728125,1.526511 -5.500439,2.900599 -0.772313,-1.374088 -3.126614,-2.900599 -5.499923,-2.900599 z" />
    <g
       id="g16"
       transform="translate(-7.5638078,-4.1159506)">
      <path
         id="path1"
         style="fill:none;fill-opacity:1;stroke:#79cdee;stroke-width:0.264583;stroke-linejoin:round;stroke-dasharray:none;stroke-opacity:1"
         d="m -1.888819,-3.9549032 a 1.9397718,1.4271415 75.745711 0 0 -0.184485,0.029972 1.9397718,1.4271415 75.745711 0 0 -0.176216,0.062012 1.9397718,1.4271415 75.745711 0 0 -0.165365,0.093018 1.9397718,1.4271415 75.745711 0 0 -0.151412,0.122473 1.9397718,1.4271415 75.745711 0 0 -0.134875,0.149861 1.9397718,1.4271415 75.745711 0 0 -0.115239,0.175183 1.9397718,1.4271415 75.745711 0 0 -0.095084,0.196371 1.9397718,1.4271415 75.745711 0 0 -0.072347,0.215491 1.9397718,1.4271415 75.745711 0 0 -0.048576,0.22996 1.9397718,1.4271415 75.745711 0 0 -0.023771,0.240812 1.9397718,1.4271415 75.745711 0 0 0.00103,0.24753 1.9397718,1.4271415 75.745711 0 0 0.025838,0.250114 1.9397718,1.4271415 75.745711 0 0 0.050643,0.248564 1.9397718,1.4271415 75.745711 0 0 0.073898,0.242362 1.9397718,1.4271415 75.745711 0 0 0.096634,0.232027 1.9397718,1.4271415 75.745711 0 0 0.117306,0.218075 1.9397718,1.4271415 75.745711 0 0 0.135909,0.20050397 1.9397718,1.4271415 75.745711 0 0 0.152445,0.178801 1.9397718,1.4271415 75.745711 0 0 0.166399,0.154512 1.9397718,1.4271415 75.745711 0 0 0.17725,0.127641 1.9397718,1.4271415 75.745711 0 0 0.185001,0.098702 1.9397718,1.4271415 75.745711 0 0 0.19017,0.067179 1.9397718,1.4271415 75.745711 0 0 0.191202,0.035657 1.9397718,1.4271415 75.745711 0 0 0.189653,0.003101 1.9397718,1.4271415 75.745711 0 0 0.185002,-0.029973 1.9397718,1.4271415 75.745711 0 0 0.063045,-0.018086 1.9397718,1.4271415 75.745711 0 0 0.062528,-0.022221 1.9397718,1.4271415 75.745711 0 0 0.060462,-0.026355 1.9397718,1.4271415 75.745711 0 0 0.059944,-0.029972 1.9397718,1.4271415 75.745711 0 0 0.057878,-0.03359 1.9397718,1.4271415 75.745711 0 0 0.056327,-0.037724 1.9397718,1.4271415 75.745711 0 0 0.054261,-0.041341 1.9397718,1.4271415 75.745711 0 0 0.052709,-0.044442 1.9397718,1.4271415 75.745711 0 0 0.050643,-0.048576 1.9397718,1.4271415 75.745711 0 0 0.048576,-0.051159 1.9397718,1.4271415 75.745711 0 0 0.045992,-0.055294 1.9397718,1.4271415 75.745711 0 0 0.043925,-0.057878 1.9397718,1.4271415 75.745711 0 0 0.041341,-0.060978 1.9397718,1.4271415 75.745711 0 0 0.039274,-0.064079 1.9397718,1.4271415 75.745711 0 0 0.036174,-0.066146 1.9397718,1.4271415 75.745711 0 0 0.034106,-0.069763 1.9397718,1.4271415 75.745711 0 0 0.030489,-0.071313 1.9397718,1.4271415 75.745711 0 0 0.028423,-0.074414 1.9397718,1.4271415 75.745711 0 0 0.025321,-0.075965 1.9397718,1.4271415 75.745711 0 0 0.022221,-0.078031 1.9397718,1.4271415 75.745711 0 0 0.019637,-0.080098 1.9397718,1.4271415 75.745711 0 0 0.016536,-0.081649 1.9397718,1.4271415 75.745711 0 0 0.012919,-0.083199 1.9397718,1.4271415 75.745711 0 0 0.010336,-0.084233 1.9397718,1.4271415 75.745711 0 0 0.007234,-0.085783 1.9397718,1.4271415 75.745711 0 0 0.004135,-0.086299 1.9397718,1.4271415 75.745711 0 0 0.001033,-0.087334 1.9397718,1.4271415 75.745711 0 0 -0.002067,-0.087333 1.9397718,1.4271415 75.745711 0 0 -0.005684,-0.088366 1.9397718,1.4271415 75.745711 0 0 -0.008269,-0.088367 1.9397718,1.4271415 75.745711 0 0 -0.011368,-0.088367 1.9397718,1.4271415 75.745711 0 0 -0.01447,-0.08785 1.9397718,1.4271415 75.745711 0 0 -0.01757,-0.08785 1.9397718,1.4271415 75.745711 0 0 -0.02067,-0.087333 1.9397718,1.4271415 75.745711 0 0 -0.074414,-0.242362 1.9397718,1.4271415 75.745711 0 0 -0.096635,-0.232027 1.9397718,1.4271415 75.745711 0 0 -0.117306,-0.218075 1.9397718,1.4271415 75.745711 0 0 -0.135909,-0.200505 1.9397718,1.4271415 75.745711 0 0 -0.152445,-0.1788 1.9397718,1.4271415 75.745711 0 0 -0.166398,-0.154513 1.9397718,1.4271415 75.745711 0 0 -0.177251,-0.12764 1.9397718,1.4271415 75.745711 0 0 -0.185001,-0.098702 1.9397718,1.4271415 75.745711 0 0 -0.189653,-0.06718 1.9397718,1.4271415 75.745711 0 0 -0.191719,-0.035656 1.9397718,1.4271415 75.745711 0 0 -0.189653,-0.0031 z" />
      <path
         id="path11"
         style="fill:none;fill-opacity:1;stroke:#79cdee;stroke-width:0.264583;stroke-linejoin:round;stroke-dasharray:none;stroke-opacity:1"
         d="m -9.577238,-3.9549032 a 1.4271415,1.9397718 14.254289 0 0 -0.189653,0.0031 1.4271415,1.9397718 14.254289 0 0 -0.191719,0.035656 1.4271415,1.9397718 14.254289 0 0 -0.189653,0.06718 1.4271415,1.9397718 14.254289 0 0 -0.185001,0.098702 1.4271415,1.9397718 14.254289 0 0 -0.177251,0.12764 1.4271415,1.9397718 14.254289 0 0 -0.166398,0.154513 1.4271415,1.9397718 14.254289 0 0 -0.152445,0.1788 1.4271415,1.9397718 14.254289 0 0 -0.135909,0.200505 1.4271415,1.9397718 14.254289 0 0 -0.117306,0.218075 1.4271415,1.9397718 14.254289 0 0 -0.09663,0.232027 1.4271415,1.9397718 14.254289 0 0 -0.07441,0.242362 1.4271415,1.9397718 14.254289 0 0 -0.05064,0.248564 1.4271415,1.9397718 14.254289 0 0 -0.02584,0.250114 1.4271415,1.9397718 14.254289 0 0 -10e-4,0.24753 1.4271415,1.9397718 14.254289 0 0 0.02429,0.240812 1.4271415,1.9397718 14.254289 0 0 0.04857,0.22996 1.4271415,1.9397718 14.254289 0 0 0.07235,0.21549097 1.4271415,1.9397718 14.254289 0 0 0.09457,0.19637 1.4271415,1.9397718 14.254289 0 0 0.115756,0.175183 1.4271415,1.9397718 14.254289 0 0 0.134875,0.149862 1.4271415,1.9397718 14.254289 0 0 0.150895,0.122473 1.4271415,1.9397718 14.254289 0 0 0.165365,0.093018 1.4271415,1.9397718 14.254289 0 0 0.176216,0.062011 1.4271415,1.9397718 14.254289 0 0 0.185002,0.029973 1.4271415,1.9397718 14.254289 0 0 0.189653,-0.003101 1.4271415,1.9397718 14.254289 0 0 0.191202,-0.035657 1.4271415,1.9397718 14.254289 0 0 0.19017,-0.067179 1.4271415,1.9397718 14.254289 0 0 0.185001,-0.098702 1.4271415,1.9397718 14.254289 0 0 0.17725,-0.127641 1.4271415,1.9397718 14.254289 0 0 0.166398,-0.154512 1.4271415,1.9397718 14.254289 0 0 0.152446,-0.178801 1.4271415,1.9397718 14.254289 0 0 0.135909,-0.20050397 1.4271415,1.9397718 14.254289 0 0 0.117305,-0.218075 1.4271415,1.9397718 14.254289 0 0 0.096635,-0.232027 1.4271415,1.9397718 14.254289 0 0 0.073898,-0.242362 1.4271415,1.9397718 14.254289 0 0 0.02067,-0.087334 1.4271415,1.9397718 14.254289 0 0 0.01757,-0.087849 1.4271415,1.9397718 14.254289 0 0 0.01447,-0.08785 1.4271415,1.9397718 14.254289 0 0 0.011885,-0.088367 1.4271415,1.9397718 14.254289 0 0 0.00827,-0.088367 1.4271415,1.9397718 14.254289 0 0 0.00517,-0.088367 1.4271415,1.9397718 14.254289 0 0 0.00207,-0.087333 1.4271415,1.9397718 14.254289 0 0 -5.17e-4,-0.087333 1.4271415,1.9397718 14.254289 0 0 -0.00413,-0.086299 1.4271415,1.9397718 14.254289 0 0 -0.00723,-0.085783 1.4271415,1.9397718 14.254289 0 0 -0.010336,-0.084233 1.4271415,1.9397718 14.254289 0 0 -0.013436,-0.083199 1.4271415,1.9397718 14.254289 0 0 -0.016536,-0.081649 1.4271415,1.9397718 14.254289 0 0 -0.01912,-0.080098 1.4271415,1.9397718 14.254289 0 0 -0.022738,-0.078032 1.4271415,1.9397718 14.254289 0 0 -0.025321,-0.075964 1.4271415,1.9397718 14.254289 0 0 -0.027906,-0.074414 1.4271415,1.9397718 14.254289 0 0 -0.031006,-0.071314 1.4271415,1.9397718 14.254289 0 0 -0.033589,-0.069763 1.4271415,1.9397718 14.254289 0 0 -0.03669,-0.066146 1.4271415,1.9397718 14.254289 0 0 -0.038758,-0.064078 1.4271415,1.9397718 14.254289 0 0 -0.041341,-0.060979 1.4271415,1.9397718 14.254289 0 0 -0.043925,-0.057877 1.4271415,1.9397718 14.254289 0 0 -0.046509,-0.055294 1.4271415,1.9397718 14.254289 0 0 -0.048576,-0.05116 1.4271415,1.9397718 14.254289 0 0 -0.050126,-0.048575 1.4271415,1.9397718 14.254289 0 0 -0.05271,-0.044442 1.4271415,1.9397718 14.254289 0 0 -0.054777,-0.041341 1.4271415,1.9397718 14.254289 0 0 -0.056327,-0.037724 1.4271415,1.9397718 14.254289 0 0 -0.057878,-0.03359 1.4271415,1.9397718 14.254289 0 0 -0.059427,-0.029972 1.4271415,1.9397718 14.254289 0 0 -0.060979,-0.026355 1.4271415,1.9397718 14.254289 0 0 -0.062011,-0.022221 1.4271415,1.9397718 14.254289 0 0 -0.063562,-0.018087 1.4271415,1.9397718 14.254289 0 0 -0.184485,-0.029972 z" />
    </g>
    <path
       id="path12"
       style="fill:none;fill-opacity:1;stroke:#79cdee;stroke-width:0.264583;stroke-linejoin:round;stroke-dasharray:none;stroke-opacity:1"
       d="m -8.6955698,-4.1134288 a 0.65315264,0.52680486 0 0 0 0.0031,0.01085 0.65315264,0.52680486 0 0 0 0.03256,0.0708 0.65315264,0.52680486 0 0 0 0.04444,0.06563 0.65315264,0.52680486 0 0 0 0.05581,0.06046 0.65315264,0.52680486 0 0 0 0.06615,0.05323 0.65315264,0.52680486 0 0 0 0.07441,0.04496 0.65315264,0.52680486 0 0 0 0.08216,0.03617 0.65315264,0.52680486 0 0 0 0.08733,0.02584 0.65315264,0.52680486 0 0 0 0.09095,0.01602 0.65315264,0.52680486 0 0 0 0.09302,0.0057 0.65315264,0.52680486 0 0 0 0.03101,-5.17e-4 0.65315264,0.52680486 0 0 0 0.03101,-0.0021 0.65315264,0.52680486 0 0 0 0.03101,-0.0031 0.65315264,0.52680486 0 0 0 0.03049,-0.0041 0.65315264,0.52680486 0 0 0 0.03049,-0.0052 0.65315264,0.52680486 0 0 0 0.02997,-0.0067 0.65315264,0.52680486 0 0 0 0.02946,-0.0072 0.65315264,0.52680486 0 0 0 0.02894,-0.0088 0.65315264,0.52680486 0 0 0 0.02894,-0.0098 0.65315264,0.52680486 0 0 0 0.02791,-0.01137 0.65315264,0.52680486 0 0 0 0.02739,-0.01189 0.65315264,0.52680486 0 0 0 0.02635,-0.01292 0.65315264,0.52680486 0 0 0 0.02584,-0.01395 0.65315264,0.52680486 0 0 0 0.02481,-0.01499 0.65315264,0.52680486 0 0 0 0.02377,-0.01602 0.65315264,0.52680486 0 0 0 0.02325,-0.01705 0.65315264,0.52680486 0 0 0 0.0217,-0.01757 0.65315264,0.52680486 0 0 0 0.02119,-0.0186 0.65315264,0.52680486 0 0 0 0.01964,-0.01964 0.65315264,0.52680486 0 0 0 0.0186,-0.01964 0.65315264,0.52680486 0 0 0 0.01757,-0.02119 0.65315264,0.52680486 0 0 0 0.01602,-0.02119 0.65315264,0.52680486 0 0 0 0.01499,-0.02222 0.65315264,0.52680486 0 0 0 0.01344,-0.02222 0.65315264,0.52680486 0 0 0 0.0124,-0.02325 0.65315264,0.52680486 0 0 0 0.01085,-0.02325 0.65315264,0.52680486 0 0 0 0.0093,-0.02429 0.65315264,0.52680486 0 0 0 0.0083,-0.02377 0.65315264,0.52680486 0 0 0 0.0067,-0.02481 0.65315264,0.52680486 0 0 0 0.0052,-0.02481 0.65315264,0.52680486 0 0 0 0.0036,-0.0248 0.65315264,0.52680486 0 0 0 0.0021,-0.02481 0.65315264,0.52680486 0 0 0 10e-4,-0.02532 0.65315264,0.52680486 0 0 0 -10e-4,-0.02481 0.65315264,0.52680486 0 0 0 -0.0021,-0.02532 0.65315264,0.52680486 0 0 0 -0.0036,-0.0248 0.65315264,0.52680486 0 0 0 -0.0052,-0.02481 0.65315264,0.52680486 0 0 0 -0.0067,-0.02429 0.65315264,0.52680486 0 0 0 -0.0083,-0.02429 0.65315264,0.52680486 0 0 0 -0.0093,-0.02377 0.65315264,0.52680486 0 0 0 -0.01085,-0.02377 0.65315264,0.52680486 0 0 0 -0.0124,-0.02274 0.65315264,0.52680486 0 0 0 -0.01344,-0.02274 0.65315264,0.52680486 0 0 0 -0.01499,-0.0217 0.65315264,0.52680486 0 0 0 -0.01602,-0.0217 0.65315264,0.52680486 0 0 0 -0.01757,-0.02067 0.65315264,0.52680486 0 0 0 -0.0186,-0.02015 0.65315264,0.52680486 0 0 0 -0.01964,-0.01912 0.65315264,0.52680486 0 0 0 -0.02119,-0.0186 0.65315264,0.52680486 0 0 0 -0.0217,-0.01809 0.65315264,0.52680486 0 0 0 -0.02325,-0.01654 0.65315264,0.52680486 0 0 0 -0.02377,-0.01602 0.65315264,0.52680486 0 0 0 -0.02481,-0.01499 0.65315264,0.52680486 0 0 0 -0.02584,-0.01395 0.65315264,0.52680486 0 0 0 -0.02635,-0.01344 0.65315264,0.52680486 0 0 0 -0.02739,-0.01189 0.65315264,0.52680486 0 0 0 -0.02791,-0.01085 0.65315264,0.52680486 0 0 0 -0.02894,-0.0098 0.65315264,0.52680486 0 0 0 -0.02894,-0.0088 0.65315264,0.52680486 0 0 0 -0.02946,-0.0078 0.65315264,0.52680486 0 0 0 -0.02997,-0.0062 0.65315264,0.52680486 0 0 0 -0.03049,-0.0057 0.65315264,0.52680486 0 0 0 -0.03049,-0.0041 0.65315264,0.52680486 0 0 0 -0.03101,-0.0031 0.65315264,0.52680486 0 0 0 -0.03101,-0.0016 0.65315264,0.52680486 0 0 0 -0.02274,-5.16e-4 1.9397718,1.4271415 75.745711 0 1 -0.03101,0.06408 1.9397718,1.4271415 75.745711 0 1 -0.03617,0.06615 1.9397718,1.4271415 75.745711 0 1 -0.03927,0.06408 1.9397718,1.4271415 75.745711 0 1 -0.04134,0.06098 1.9397718,1.4271415 75.745711 0 1 -0.04392,0.05788 1.9397718,1.4271415 75.745711 0 1 -0.04599,0.05529 1.9397718,1.4271415 75.745711 0 1 -0.04858,0.05116 1.9397718,1.4271415 75.745711 0 1 -0.05064,0.04858 1.9397718,1.4271415 75.745711 0 1 -0.05271,0.04444 1.9397718,1.4271415 75.745711 0 1 -0.05426,0.04134 1.9397718,1.4271415 75.745711 0 1 -0.05633,0.03772 1.9397718,1.4271415 75.745711 0 1 -0.05788,0.03359 1.9397718,1.4271415 75.745711 0 1 -0.05994,0.02997 1.9397718,1.4271415 75.745711 0 1 -0.02015,0.0088 z" />
    <path
       id="path18"
       style="fill:#79cdee;fill-opacity:1;stroke:none;stroke-width:0.264583;stroke-linejoin:round;stroke-dasharray:none;stroke-opacity:1"
       d="m 11.433408,0.27233801 c -2.3732955,0 -4.5123814,1.39990609 -4.7909211,2.90059809 0.2785397,1.500691 2.4176256,2.9005981 4.7909211,2.9005981 2.00696,0 4.000202,-1.0918558 5.034835,-2.2598104 V 7.0310984 C 14.093377,7.20029 11.95359,8.6562643 10.378176,10.925951 c -1.6777119,2.417058 -2.7155964,5.756595 -2.7155964,9.444901 0,1.749359 0.4186157,1.769102 -1.6350423,6.784082 -0.2074777,0.506658 2.6113516,-0.784612 2.8034464,-0.288354 0.3691427,0.953642 1.3037983,3.109785 3.1403763,4.789371 0.213461,0.195217 1.013647,1.260753 1.302763,1.938383 0.40287,-0.25311 0.862259,-1.809419 1.684652,-1.55236 0.636395,0.19892 1.296812,0.30386 1.974556,0.303858 0.677744,0 1.338678,-0.104938 1.975073,-0.303858 0.822388,-0.257059 1.281777,1.29925 1.684652,1.55236 0.289115,-0.67763 1.088785,-1.743166 1.302246,-1.938383 1.836578,-1.679586 2.771753,-3.835729 3.140893,-4.789371 0.192095,-0.496258 3.010409,0.795012 2.80293,0.288354 -2.053658,-5.01498 -1.634525,-5.034723 -1.634525,-6.784082 0,-3.688306 -1.037887,-7.027843 -2.715597,-9.444901 -1.591154,-2.2923594 -3.7586,-3.7525798 -6.161898,-3.8974364 V 3.7305248 c 1.011996,1.1988632 3.051968,2.3430094 5.106665,2.3430094 2.373301,0 4.512385,-1.3999071 4.790922,-2.9005981 -0.278537,-1.500692 -2.417621,-2.90059809 -4.790922,-2.90059809 -2.373299,0 -4.728128,1.52651459 -5.500439,2.90059809 -0.77231,-1.3740835 -3.12662,-2.90059809 -5.499923,-2.90059809 z m 1.65468,12.43593299 a 1.4271415,1.9397718 14.254289 0 1 0.184485,0.02997 1.4271415,1.9397718 14.254289 0 1 0.06356,0.01809 1.4271415,1.9397718 14.254289 0 1 0.06201,0.02222 1.4271415,1.9397718 14.254289 0 1 0.06098,0.02636 1.4271415,1.9397718 14.254289 0 1 0.05943,0.02997 1.4271415,1.9397718 14.254289 0 1 0.05788,0.03359 1.4271415,1.9397718 14.254289 0 1 0.05633,0.03772 1.4271415,1.9397718 14.254289 0 1 0.05478,0.04134 1.4271415,1.9397718 14.254289 0 1 0.05271,0.04444 1.4271415,1.9397718 14.254289 0 1 0.05013,0.04858 1.4271415,1.9397718 14.254289 0 1 0.04858,0.05116 1.4271415,1.9397718 14.254289 0 1 0.04651,0.05529 1.4271415,1.9397718 14.254289 0 1 0.04392,0.05788 1.4271415,1.9397718 14.254289 0 1 0.04134,0.06098 1.4271415,1.9397718 14.254289 0 1 0.03876,0.06408 1.4271415,1.9397718 14.254289 0 1 0.03669,0.06615 1.4271415,1.9397718 14.254289 0 1 0.03359,0.06976 1.4271415,1.9397718 14.254289 0 1 0.03101,0.07131 1.4271415,1.9397718 14.254289 0 1 0.02791,0.07441 1.4271415,1.9397718 14.254289 0 1 0.02532,0.07596 1.4271415,1.9397718 14.254289 0 1 0.02274,0.07803 1.4271415,1.9397718 14.254289 0 1 0.01912,0.0801 1.4271415,1.9397718 14.254289 0 1 0.01654,0.08165 1.4271415,1.9397718 14.254289 0 1 0.01344,0.0832 1.4271415,1.9397718 14.254289 0 1 0.01034,0.08423 1.4271415,1.9397718 14.254289 0 1 0.0072,0.08578 1.4271415,1.9397718 14.254289 0 1 0.0041,0.0863 1.4271415,1.9397718 14.254289 0 1 5.17e-4,0.08733 1.4271415,1.9397718 14.254289 0 1 -0.0021,0.08733 1.4271415,1.9397718 14.254289 0 1 -0.0052,0.08837 1.4271415,1.9397718 14.254289 0 1 -0.0083,0.08837 1.4271415,1.9397718 14.254289 0 1 -0.01188,0.08837 1.4271415,1.9397718 14.254289 0 1 -0.01447,0.08785 1.4271415,1.9397718 14.254289 0 1 -0.01757,0.08785 1.4271415,1.9397718 14.254289 0 1 -0.02067,0.08733 1.4271415,1.9397718 14.254289 0 1 -0.0739,0.242362 1.4271415,1.9397718 14.254289 0 1 -0.09664,0.232027 1.4271415,1.9397718 14.254289 0 1 -0.117305,0.218075 1.4271415,1.9397718 14.254289 0 1 -0.135909,0.200504 1.4271415,1.9397718 14.254289 0 1 -0.152446,0.178801 1.4271415,1.9397718 14.254289 0 1 -0.166398,0.154512 1.4271415,1.9397718 14.254289 0 1 -0.17725,0.127641 1.4271415,1.9397718 14.254289 0 1 -0.185001,0.0987 1.4271415,1.9397718 14.254289 0 1 -0.19017,0.06718 1.4271415,1.9397718 14.254289 0 1 -0.191202,0.03566 1.4271415,1.9397718 14.254289 0 1 -0.189653,0.0031 1.4271415,1.9397718 14.254289 0 1 -0.184987,-0.02996 1.4271415,1.9397718 14.254289 0 1 -0.176216,-0.06201 1.4271415,1.9397718 14.254289 0 1 -0.165365,-0.09302 1.4271415,1.9397718 14.254289 0 1 -0.150895,-0.122473 1.4271415,1.9397718 14.254289 0 1 -0.134875,-0.149862 1.4271415,1.9397718 14.254289 0 1 -0.115756,-0.175183 1.4271415,1.9397718 14.254289 0 1 -0.09457,-0.19637 1.4271415,1.9397718 14.254289 0 1 -0.07235,-0.215491 1.4271415,1.9397718 14.254289 0 1 -0.04857,-0.22996 1.4271415,1.9397718 14.254289 0 1 -0.02429,-0.240812 1.4271415,1.9397718 14.254289 0 1 10e-4,-0.24753 1.4271415,1.9397718 14.254289 0 1 0.02584,-0.250114 1.4271415,1.9397718 14.254289 0 1 0.05064,-0.248564 1.4271415,1.9397718 14.254289 0 1 0.07441,-0.242362 1.4271415,1.9397718 14.254289 0 1 0.09664,-0.232027 1.4271415,1.9397718 14.254289 0 1 0.117306,-0.218075 1.4271415,1.9397718 14.254289 0 1 0.135909,-0.200505 1.4271415,1.9397718 14.254289 0 1 0.152445,-0.1788 1.4271415,1.9397718 14.254289 0 1 0.166398,-0.154513 1.4271415,1.9397718 14.254289 0 1 0.177251,-0.12764 1.4271415,1.9397718 14.254289 0 1 0.185001,-0.0987 1.4271415,1.9397718 14.254289 0 1 0.189653,-0.06718 1.4271415,1.9397718 14.254289 0 1 0.191719,-0.03566 1.4271415,1.9397718 14.254289 0 1 0.189653,-0.0031 z m 7.688419,0 a 1.9397718,1.4271415 75.745711 0 1 0.189653,0.0031 1.9397718,1.4271415 75.745711 0 1 0.191719,0.03566 1.9397718,1.4271415 75.745711 0 1 0.189653,0.06718 1.9397718,1.4271415 75.745711 0 1 0.185001,0.0987 1.9397718,1.4271415 75.745711 0 1 0.177251,0.12764 1.9397718,1.4271415 75.745711 0 1 0.166398,0.154513 1.9397718,1.4271415 75.745711 0 1 0.152445,0.1788 1.9397718,1.4271415 75.745711 0 1 0.135909,0.200505 1.9397718,1.4271415 75.745711 0 1 0.117306,0.218075 1.9397718,1.4271415 75.745711 0 1 0.09663,0.232027 1.9397718,1.4271415 75.745711 0 1 0.07441,0.242362 1.9397718,1.4271415 75.745711 0 1 0.02067,0.08733 1.9397718,1.4271415 75.745711 0 1 0.01757,0.08785 1.9397718,1.4271415 75.745711 0 1 0.01447,0.08785 1.9397718,1.4271415 75.745711 0 1 0.01137,0.08837 1.9397718,1.4271415 75.745711 0 1 0.0083,0.08837 1.9397718,1.4271415 75.745711 0 1 0.0057,0.08837 1.9397718,1.4271415 75.745711 0 1 0.0021,0.08733 1.9397718,1.4271415 75.745711 0 1 -0.001,0.08733 1.9397718,1.4271415 75.745711 0 1 -0.0041,0.0863 1.9397718,1.4271415 75.745711 0 1 -0.0072,0.08578 1.9397718,1.4271415 75.745711 0 1 -0.01034,0.08423 1.9397718,1.4271415 75.745711 0 1 -0.01292,0.0832 1.9397718,1.4271415 75.745711 0 1 -0.01654,0.08165 1.9397718,1.4271415 75.745711 0 1 -0.01964,0.0801 1.9397718,1.4271415 75.745711 0 1 -0.02222,0.07803 1.9397718,1.4271415 75.745711 0 1 -0.02532,0.07597 1.9397718,1.4271415 75.745711 0 1 -0.02842,0.07441 1.9397718,1.4271415 75.745711 0 1 -0.03049,0.07131 1.9397718,1.4271415 75.745711 0 1 -0.0031,0.0057 0.65315264,0.52680486 0 0 1 0.02274,5.16e-4 0.65315264,0.52680486 0 0 1 0.03101,0.0016 0.65315264,0.52680486 0 0 1 0.03101,0.0031 0.65315264,0.52680486 0 0 1 0.03049,0.0041 0.65315264,0.52680486 0 0 1 0.03049,0.0057 0.65315264,0.52680486 0 0 1 0.02997,0.0062 0.65315264,0.52680486 0 0 1 0.02945,0.0078 0.65315264,0.52680486 0 0 1 0.02894,0.0088 0.65315264,0.52680486 0 0 1 0.02894,0.0098 0.65315264,0.52680486 0 0 1 0.02791,0.01085 0.65315264,0.52680486 0 0 1 0.02739,0.01189 0.65315264,0.52680486 0 0 1 0.02636,0.01344 0.65315264,0.52680486 0 0 1 0.02584,0.01395 0.65315264,0.52680486 0 0 1 0.0248,0.01499 0.65315264,0.52680486 0 0 1 0.02377,0.01602 0.65315264,0.52680486 0 0 1 0.02325,0.01654 0.65315264,0.52680486 0 0 1 0.0217,0.01809 0.65315264,0.52680486 0 0 1 0.02119,0.0186 0.65315264,0.52680486 0 0 1 0.01964,0.01912 0.65315264,0.52680486 0 0 1 0.0186,0.02015 0.65315264,0.52680486 0 0 1 0.01757,0.02067 0.65315264,0.52680486 0 0 1 0.01602,0.02171 0.65315264,0.52680486 0 0 1 0.01499,0.0217 0.65315264,0.52680486 0 0 1 0.01344,0.02274 0.65315264,0.52680486 0 0 1 0.0124,0.02274 0.65315264,0.52680486 0 0 1 0.01085,0.02377 0.65315264,0.52680486 0 0 1 0.0093,0.02377 0.65315264,0.52680486 0 0 1 0.0083,0.02429 0.65315264,0.52680486 0 0 1 0.0067,0.02429 0.65315264,0.52680486 0 0 1 0.0052,0.02481 0.65315264,0.52680486 0 0 1 0.0036,0.0248 0.65315264,0.52680486 0 0 1 0.0021,0.02532 0.65315264,0.52680486 0 0 1 0.001,0.02481 0.65315264,0.52680486 0 0 1 -0.001,0.02532 0.65315264,0.52680486 0 0 1 -0.0021,0.0248 0.65315264,0.52680486 0 0 1 -0.0036,0.0248 0.65315264,0.52680486 0 0 1 -0.0052,0.02481 0.65315264,0.52680486 0 0 1 -0.0067,0.02481 0.65315264,0.52680486 0 0 1 -0.0083,0.02377 0.65315264,0.52680486 0 0 1 -0.0093,0.02429 0.65315264,0.52680486 0 0 1 -0.01085,0.02325 0.65315264,0.52680486 0 0 1 -0.0124,0.02325 0.65315264,0.52680486 0 0 1 -0.01344,0.02222 0.65315264,0.52680486 0 0 1 -0.01499,0.02222 0.65315264,0.52680486 0 0 1 -0.01602,0.02119 0.65315264,0.52680486 0 0 1 -0.01757,0.02119 0.65315264,0.52680486 0 0 1 -0.0186,0.01964 0.65315264,0.52680486 0 0 1 -0.01964,0.01964 0.65315264,0.52680486 0 0 1 -0.02119,0.0186 0.65315264,0.52680486 0 0 1 -0.0217,0.01757 0.65315264,0.52680486 0 0 1 -0.02325,0.01705 0.65315264,0.52680486 0 0 1 -0.02377,0.01602 0.65315264,0.52680486 0 0 1 -0.0248,0.01499 0.65315264,0.52680486 0 0 1 -0.02584,0.01395 0.65315264,0.52680486 0 0 1 -0.02636,0.01292 0.65315264,0.52680486 0 0 1 -0.02739,0.01189 0.65315264,0.52680486 0 0 1 -0.02791,0.01137 0.65315264,0.52680486 0 0 1 -0.02894,0.0098 0.65315264,0.52680486 0 0 1 -0.02894,0.0088 0.65315264,0.52680486 0 0 1 -0.02945,0.0072 0.65315264,0.52680486 0 0 1 -0.02997,0.0067 0.65315264,0.52680486 0 0 1 -0.03049,0.0052 0.65315264,0.52680486 0 0 1 -0.03049,0.0041 0.65315264,0.52680486 0 0 1 -0.03101,0.0031 0.65315264,0.52680486 0 0 1 -0.03101,0.0021 0.65315264,0.52680486 0 0 1 -0.03101,5.17e-4 0.65315264,0.52680486 0 0 1 -0.09302,-0.0057 0.65315264,0.52680486 0 0 1 -0.09095,-0.01602 0.65315264,0.52680486 0 0 1 -0.08733,-0.02584 0.65315264,0.52680486 0 0 1 -0.08216,-0.03617 0.65315264,0.52680486 0 0 1 -0.07441,-0.04496 0.65315264,0.52680486 0 0 1 -0.06615,-0.05323 0.65315264,0.52680486 0 0 1 -0.05581,-0.06046 0.65315264,0.52680486 0 0 1 -0.04444,-0.06563 0.65315264,0.52680486 0 0 1 -0.03256,-0.0708 0.65315264,0.52680486 0 0 1 -0.0031,-0.01085 1.9397718,1.4271415 75.745711 0 1 -0.04031,0.01757 1.9397718,1.4271415 75.745711 0 1 -0.06253,0.02222 1.9397718,1.4271415 75.745711 0 1 -0.06305,0.01809 1.9397718,1.4271415 75.745711 0 1 -0.185002,0.02997 1.9397718,1.4271415 75.745711 0 1 -0.189653,-0.0031 1.9397718,1.4271415 75.745711 0 1 -0.191202,-0.03566 1.9397718,1.4271415 75.745711 0 1 -0.19017,-0.06718 1.9397718,1.4271415 75.745711 0 1 -0.185001,-0.0987 1.9397718,1.4271415 75.745711 0 1 -0.17725,-0.127641 1.9397718,1.4271415 75.745711 0 1 -0.166399,-0.154512 1.9397718,1.4271415 75.745711 0 1 -0.152445,-0.178801 1.9397718,1.4271415 75.745711 0 1 -0.135909,-0.200504 1.9397718,1.4271415 75.745711 0 1 -0.117306,-0.218075 1.9397718,1.4271415 75.745711 0 1 -0.09663,-0.232027 1.9397718,1.4271415 75.745711 0 1 -0.0739,-0.242362 1.9397718,1.4271415 75.745711 0 1 -0.05064,-0.248564 1.9397718,1.4271415 75.745711 0 1 -0.02584,-0.250114 1.9397718,1.4271415 75.745711 0 1 -10e-4,-0.24753 1.9397718,1.4271415 75.745711 0 1 0.02377,-0.240812 1.9397718,1.4271415 75.745711 0 1 0.04858,-0.22996 1.9397718,1.4271415 75.745711 0 1 0.07235,-0.215491 1.9397718,1.4271415 75.745711 0 1 0.09508,-0.196371 1.9397718,1.4271415 75.745711 0 1 0.115239,-0.175183 1.9397718,1.4271415 75.745711 0 1 0.134875,-0.149861 1.9397718,1.4271415 75.745711 0 1 0.151412,-0.122473 1.9397718,1.4271415 75.745711 0 1 0.165365,-0.09302 1.9397718,1.4271415 75.745711 0 1 0.176216,-0.06201 1.9397718,1.4271415 75.745711 0 1 0.184485,-0.02997 z" />
    <g
       id="g10"
       transform="translate(-2.7219183,44.02973)">
      <path
         id="path9"
         style="fill:none;fill-opacity:1;stroke:#79cdee;stroke-width:0.264583;stroke-linejoin:round;stroke-dasharray:none;stroke-opacity:1"
         d="m 11.433408,0.27233768 c -2.3733046,0 -4.5123814,1.39990162 -4.7909211,2.90059812 0.2785397,1.5006955 2.4176165,2.9005981 4.7909211,2.9005981 2.006966,0 4.000199,-1.0918525 5.034835,-2.2598104 v 3.2173746 c -2.374872,0.1691919 -4.514647,1.6251604 -6.090067,3.8948539 -1.6777166,2.417067 -2.7155964,5.756583 -2.7155964,9.444901 0,1.749365 0.4186217,1.769087 -1.6350422,6.784082 -0.2074788,0.506658 2.61135,-0.784613 2.803446,-0.288355 0.369143,0.953645 1.3037926,3.10978 3.1403766,4.789372 0.213461,0.195217 1.013647,1.26075 1.302763,1.938383 0.402873,-0.25311 0.862258,-1.809419 1.684651,-1.55236 0.636398,0.19892 1.29681,0.303859 1.974557,0.303857 0.677747,0 1.338675,-0.104937 1.975073,-0.303857 0.822391,-0.257059 1.281777,1.29925 1.684652,1.55236 0.289115,-0.677633 1.088785,-1.743166 1.302246,-1.938383 1.836584,-1.679592 2.77175,-3.835727 3.140893,-4.789372 0.192095,-0.496258 3.010409,0.795013 2.80293,0.288355 -2.053664,-5.014995 -1.634526,-5.034717 -1.634526,-6.784082 0,-3.688318 -1.03788,-7.027834 -2.715596,-9.444901 C 21.897843,8.6335855 19.730409,7.1733712 17.327105,7.0285143 V 3.7305245 c 1.011999,1.1988668 3.051962,2.3430094 5.106665,2.3430094 2.373307,0 4.512382,-1.3999026 4.790922,-2.9005981 -0.27854,-1.5006965 -2.417615,-2.90059812 -4.790922,-2.90059812 -2.373308,0 -4.728125,1.52651042 -5.500439,2.90059812 C 16.161018,1.7988481 13.806717,0.27233768 11.433408,0.27233768 Z" />
      <ellipse
         style="fill:none;fill-opacity:1;stroke:#79cdee;stroke-width:0.221498;stroke-linecap:round;stroke-linejoin:round;stroke-dasharray:none;stroke-opacity:1;paint-order:stroke markers fill"
         id="ellipse9"
         cx="16.821577"
         cy="19.356062"
         rx="1.4271415"
         ry="1.9397718"
         transform="rotate(-14.254289)" />
      <ellipse
         style="fill:none;fill-opacity:1;stroke:#79cdee;stroke-width:0.221498;stroke-linecap:round;stroke-linejoin:round;stroke-dasharray:none;stroke-opacity:1;paint-order:stroke markers fill"
         id="ellipse10"
         cx="-16.000414"
         cy="11.017722"
         rx="1.4271415"
         ry="1.9397718"
         transform="matrix(-0.96921248,-0.24622585,-0.24622585,0.96921248,0,0)" />
    </g>
    <g
       id="g15">
      <path
         id="path13"
         style="fill:none;fill-opacity:1;stroke:#79cdee;stroke-width:0.264583;stroke-linejoin:round;stroke-dasharray:none;stroke-opacity:1"
         d="m 52.300949,39.181314 a 1.9397718,1.4271415 75.745711 0 0 -0.184485,0.02997 1.9397718,1.4271415 75.745711 0 0 -0.176216,0.06201 1.9397718,1.4271415 75.745711 0 0 -0.165365,0.09302 1.9397718,1.4271415 75.745711 0 0 -0.151412,0.122473 1.9397718,1.4271415 75.745711 0 0 -0.134875,0.149861 1.9397718,1.4271415 75.745711 0 0 -0.115239,0.175183 1.9397718,1.4271415 75.745711 0 0 -0.09508,0.196371 1.9397718,1.4271415 75.745711 0 0 -0.07235,0.215491 1.9397718,1.4271415 75.745711 0 0 -0.04858,0.22996 1.9397718,1.4271415 75.745711 0 0 -0.02377,0.240812 1.9397718,1.4271415 75.745711 0 0 0.001,0.24753 1.9397718,1.4271415 75.745711 0 0 0.02584,0.250114 1.9397718,1.4271415 75.745711 0 0 0.05064,0.248564 1.9397718,1.4271415 75.745711 0 0 0.0739,0.242362 1.9397718,1.4271415 75.745711 0 0 0.09663,0.232027 1.9397718,1.4271415 75.745711 0 0 0.117306,0.218075 1.9397718,1.4271415 75.745711 0 0 0.135909,0.200504 1.9397718,1.4271415 75.745711 0 0 0.152445,0.178801 1.9397718,1.4271415 75.745711 0 0 0.166399,0.154512 1.9397718,1.4271415 75.745711 0 0 0.17725,0.127641 1.9397718,1.4271415 75.745711 0 0 0.185001,0.0987 1.9397718,1.4271415 75.745711 0 0 0.19017,0.06718 1.9397718,1.4271415 75.745711 0 0 0.191202,0.03566 1.9397718,1.4271415 75.745711 0 0 0.189653,0.0031 1.9397718,1.4271415 75.745711 0 0 0.185002,-0.02997 1.9397718,1.4271415 75.745711 0 0 0.06305,-0.01809 1.9397718,1.4271415 75.745711 0 0 0.06253,-0.02222 1.9397718,1.4271415 75.745711 0 0 0.06046,-0.02636 1.9397718,1.4271415 75.745711 0 0 0.05994,-0.02997 1.9397718,1.4271415 75.745711 0 0 0.05788,-0.03359 1.9397718,1.4271415 75.745711 0 0 0.05633,-0.03772 1.9397718,1.4271415 75.745711 0 0 0.05426,-0.04134 1.9397718,1.4271415 75.745711 0 0 0.05271,-0.04444 1.9397718,1.4271415 75.745711 0 0 0.05064,-0.04858 1.9397718,1.4271415 75.745711 0 0 0.04858,-0.05116 1.9397718,1.4271415 75.745711 0 0 0.04599,-0.05529 1.9397718,1.4271415 75.745711 0 0 0.04392,-0.05788 1.9397718,1.4271415 75.745711 0 0 0.04134,-0.06098 1.9397718,1.4271415 75.745711 0 0 0.03927,-0.06408 1.9397718,1.4271415 75.745711 0 0 0.03617,-0.06615 1.9397718,1.4271415 75.745711 0 0 0.03411,-0.06976 1.9397718,1.4271415 75.745711 0 0 0.03049,-0.07131 1.9397718,1.4271415 75.745711 0 0 0.02842,-0.07441 1.9397718,1.4271415 75.745711 0 0 0.02532,-0.07597 1.9397718,1.4271415 75.745711 0 0 0.02222,-0.07803 1.9397718,1.4271415 75.745711 0 0 0.01964,-0.0801 1.9397718,1.4271415 75.745711 0 0 0.01654,-0.08165 1.9397718,1.4271415 75.745711 0 0 0.01292,-0.0832 1.9397718,1.4271415 75.745711 0 0 0.01034,-0.08423 1.9397718,1.4271415 75.745711 0 0 0.0072,-0.08578 1.9397718,1.4271415 75.745711 0 0 0.0041,-0.0863 1.9397718,1.4271415 75.745711 0 0 0.001,-0.08733 1.9397718,1.4271415 75.745711 0 0 -0.0021,-0.08733 1.9397718,1.4271415 75.745711 0 0 -0.0057,-0.08837 1.9397718,1.4271415 75.745711 0 0 -0.0083,-0.08837 1.9397718,1.4271415 75.745711 0 0 -0.01137,-0.08837 1.9397718,1.4271415 75.745711 0 0 -0.01447,-0.08785 1.9397718,1.4271415 75.745711 0 0 -0.01757,-0.08785 1.9397718,1.4271415 75.745711 0 0 -0.02067,-0.08733 1.9397718,1.4271415 75.745711 0 0 -0.07441,-0.242362 1.9397718,1.4271415 75.745711 0 0 -0.09663,-0.232027 1.9397718,1.4271415 75.745711 0 0 -0.117306,-0.218075 1.9397718,1.4271415 75.745711 0 0 -0.135909,-0.200505 1.9397718,1.4271415 75.745711 0 0 -0.152445,-0.1788 1.9397718,1.4271415 75.745711 0 0 -0.166398,-0.154513 1.9397718,1.4271415 75.745711 0 0 -0.177251,-0.12764 1.9397718,1.4271415 75.745711 0 0 -0.185001,-0.0987 1.9397718,1.4271415 75.745711 0 0 -0.189653,-0.06718 1.9397718,1.4271415 75.745711 0 0 -0.191719,-0.03566 1.9397718,1.4271415 75.745711 0 0 -0.189653,-0.0031 z" />
      <path
         id="path14"
         style="fill:none;fill-opacity:1;stroke:#79cdee;stroke-width:0.264583;stroke-linejoin:round;stroke-dasharray:none;stroke-opacity:1"
         d="m 44.61253,39.181314 a 1.4271415,1.9397718 14.254289 0 0 -0.189653,0.0031 1.4271415,1.9397718 14.254289 0 0 -0.191719,0.03566 1.4271415,1.9397718 14.254289 0 0 -0.189653,0.06718 1.4271415,1.9397718 14.254289 0 0 -0.185001,0.0987 1.4271415,1.9397718 14.254289 0 0 -0.177251,0.12764 1.4271415,1.9397718 14.254289 0 0 -0.166398,0.154513 1.4271415,1.9397718 14.254289 0 0 -0.152445,0.1788 1.4271415,1.9397718 14.254289 0 0 -0.135909,0.200505 1.4271415,1.9397718 14.254289 0 0 -0.117306,0.218075 1.4271415,1.9397718 14.254289 0 0 -0.09663,0.232027 1.4271415,1.9397718 14.254289 0 0 -0.07441,0.242362 1.4271415,1.9397718 14.254289 0 0 -0.05064,0.248564 1.4271415,1.9397718 14.254289 0 0 -0.02584,0.250114 1.4271415,1.9397718 14.254289 0 0 -0.001,0.24753 1.4271415,1.9397718 14.254289 0 0 0.02429,0.240812 1.4271415,1.9397718 14.254289 0 0 0.04857,0.22996 1.4271415,1.9397718 14.254289 0 0 0.07235,0.215491 1.4271415,1.9397718 14.254289 0 0 0.09457,0.19637 1.4271415,1.9397718 14.254289 0 0 0.115756,0.175183 1.4271415,1.9397718 14.254289 0 0 0.134875,0.149862 1.4271415,1.9397718 14.254289 0 0 0.150895,0.122473 1.4271415,1.9397718 14.254289 0 0 0.165365,0.09302 1.4271415,1.9397718 14.254289 0 0 0.176216,0.06201 1.4271415,1.9397718 14.254289 0 0 0.185002,0.02997 1.4271415,1.9397718 14.254289 0 0 0.189653,-0.0031 1.4271415,1.9397718 14.254289 0 0 0.191202,-0.03566 1.4271415,1.9397718 14.254289 0 0 0.19017,-0.06718 1.4271415,1.9397718 14.254289 0 0 0.185001,-0.0987 1.4271415,1.9397718 14.254289 0 0 0.17725,-0.127641 1.4271415,1.9397718 14.254289 0 0 0.166398,-0.154512 1.4271415,1.9397718 14.254289 0 0 0.152446,-0.178801 1.4271415,1.9397718 14.254289 0 0 0.135909,-0.200504 1.4271415,1.9397718 14.254289 0 0 0.117305,-0.218075 1.4271415,1.9397718 14.254289 0 0 0.09663,-0.232027 1.4271415,1.9397718 14.254289 0 0 0.0739,-0.242362 1.4271415,1.9397718 14.254289 0 0 0.02067,-0.08733 1.4271415,1.9397718 14.254289 0 0 0.01757,-0.08785 1.4271415,1.9397718 14.254289 0 0 0.01447,-0.08785 1.4271415,1.9397718 14.254289 0 0 0.01188,-0.08837 1.4271415,1.9397718 14.254289 0 0 0.0083,-0.08837 1.4271415,1.9397718 14.254289 0 0 0.0052,-0.08837 1.4271415,1.9397718 14.254289 0 0 0.0021,-0.08733 1.4271415,1.9397718 14.254289 0 0 -5.17e-4,-0.08733 1.4271415,1.9397718 14.254289 0 0 -0.0041,-0.0863 1.4271415,1.9397718 14.254289 0 0 -0.0072,-0.08578 1.4271415,1.9397718 14.254289 0 0 -0.01034,-0.08423 1.4271415,1.9397718 14.254289 0 0 -0.01344,-0.0832 1.4271415,1.9397718 14.254289 0 0 -0.01654,-0.08165 1.4271415,1.9397718 14.254289 0 0 -0.01912,-0.0801 1.4271415,1.9397718 14.254289 0 0 -0.02274,-0.07803 1.4271415,1.9397718 14.254289 0 0 -0.02532,-0.07596 1.4271415,1.9397718 14.254289 0 0 -0.02791,-0.07441 1.4271415,1.9397718 14.254289 0 0 -0.03101,-0.07131 1.4271415,1.9397718 14.254289 0 0 -0.03359,-0.06976 1.4271415,1.9397718 14.254289 0 0 -0.03669,-0.06615 1.4271415,1.9397718 14.254289 0 0 -0.03876,-0.06408 1.4271415,1.9397718 14.254289 0 0 -0.04134,-0.06098 1.4271415,1.9397718 14.254289 0 0 -0.04393,-0.05788 1.4271415,1.9397718 14.254289 0 0 -0.04651,-0.05529 1.4271415,1.9397718 14.254289 0 0 -0.04858,-0.05116 1.4271415,1.9397718 14.254289 0 0 -0.05013,-0.04857 1.4271415,1.9397718 14.254289 0 0 -0.05271,-0.04444 1.4271415,1.9397718 14.254289 0 0 -0.05478,-0.04134 1.4271415,1.9397718 14.254289 0 0 -0.05633,-0.03772 1.4271415,1.9397718 14.254289 0 0 -0.05788,-0.03359 1.4271415,1.9397718 14.254289 0 0 -0.05943,-0.02997 1.4271415,1.9397718 14.254289 0 0 -0.06098,-0.02636 1.4271415,1.9397718 14.254289 0 0 -0.06201,-0.02222 1.4271415,1.9397718 14.254289 0 0 -0.06356,-0.01809 1.4271415,1.9397718 14.254289 0 0 -0.184485,-0.02997 z" />
      <path
         id="path15"
         style="fill:none;fill-opacity:1;stroke:#79cdee;stroke-width:0.264583;stroke-linejoin:round;stroke-dasharray:none;stroke-opacity:1"
         d="m 42.95785,26.745381 c -2.373299,0 -4.512382,1.399904 -4.790921,2.900598 0.278539,1.500692 2.417622,2.900598 4.790921,2.900598 2.006962,0 4.000201,-1.091855 5.034835,-2.25981 v 3.217374 c -2.374868,0.169192 -4.514651,1.625164 -6.090067,3.894853 -1.677714,2.417061 -2.715597,5.756591 -2.715597,9.444901 0,1.749361 0.418618,1.769097 -1.635042,6.784082 -0.207478,0.506658 2.611351,-0.784612 2.803446,-0.288354 0.369143,0.953643 1.303797,3.109783 3.140377,4.789371 0.213461,0.195217 1.013647,1.260752 1.302763,1.938383 0.402871,-0.25311 0.862259,-1.809419 1.684652,-1.55236 0.636396,0.19892 1.296811,0.30386 1.974556,0.303858 0.677745,0 1.338677,-0.104938 1.975073,-0.303858 0.822389,-0.257059 1.281777,1.29925 1.684652,1.55236 0.289115,-0.677631 1.088785,-1.743166 1.302246,-1.938383 1.83658,-1.679588 2.771752,-3.835728 3.140893,-4.789371 0.192095,-0.496258 3.010409,0.795012 2.80293,0.288354 -2.05366,-5.014985 -1.634525,-5.034721 -1.634525,-6.784082 0,-3.68831 -1.037885,-7.02784 -2.715597,-9.444901 -1.591156,-2.292362 -3.758598,-3.75258 -6.161898,-3.897437 v -3.297989 c 1.011997,1.198864 3.051966,2.343009 5.106665,2.343009 2.373303,0 4.512384,-1.399906 4.790922,-2.900598 -0.278538,-1.500694 -2.417619,-2.900598 -4.790922,-2.900598 -2.373302,0 -4.728127,1.526513 -5.500439,2.900598 -0.772311,-1.374085 -3.126618,-2.900598 -5.499923,-2.900598 z m 1.65468,12.435933 a 1.4271415,1.9397718 14.254289 0 1 0.184485,0.02997 1.4271415,1.9397718 14.254289 0 1 0.06356,0.01809 1.4271415,1.9397718 14.254289 0 1 0.06201,0.02222 1.4271415,1.9397718 14.254289 0 1 0.06098,0.02636 1.4271415,1.9397718 14.254289 0 1 0.05943,0.02997 1.4271415,1.9397718 14.254289 0 1 0.05788,0.03359 1.4271415,1.9397718 14.254289 0 1 0.05633,0.03772 1.4271415,1.9397718 14.254289 0 1 0.05478,0.04134 1.4271415,1.9397718 14.254289 0 1 0.05271,0.04444 1.4271415,1.9397718 14.254289 0 1 0.05013,0.04857 1.4271415,1.9397718 14.254289 0 1 0.04858,0.05116 1.4271415,1.9397718 14.254289 0 1 0.04651,0.05529 1.4271415,1.9397718 14.254289 0 1 0.04393,0.05788 1.4271415,1.9397718 14.254289 0 1 0.04134,0.06098 1.4271415,1.9397718 14.254289 0 1 0.03876,0.06408 1.4271415,1.9397718 14.254289 0 1 0.03669,0.06615 1.4271415,1.9397718 14.254289 0 1 0.03359,0.06976 1.4271415,1.9397718 14.254289 0 1 0.03101,0.07131 1.4271415,1.9397718 14.254289 0 1 0.02791,0.07441 1.4271415,1.9397718 14.254289 0 1 0.02532,0.07596 1.4271415,1.9397718 14.254289 0 1 0.02274,0.07803 1.4271415,1.9397718 14.254289 0 1 0.01912,0.0801 1.4271415,1.9397718 14.254289 0 1 0.01654,0.08165 1.4271415,1.9397718 14.254289 0 1 0.01344,0.0832 1.4271415,1.9397718 14.254289 0 1 0.01034,0.08423 1.4271415,1.9397718 14.254289 0 1 0.0072,0.08578 1.4271415,1.9397718 14.254289 0 1 0.0041,0.0863 1.4271415,1.9397718 14.254289 0 1 5.17e-4,0.08733 1.4271415,1.9397718 14.254289 0 1 -0.0021,0.08733 1.4271415,1.9397718 14.254289 0 1 -0.0052,0.08837 1.4271415,1.9397718 14.254289 0 1 -0.0083,0.08837 1.4271415,1.9397718 14.254289 0 1 -0.01188,0.08837 1.4271415,1.9397718 14.254289 0 1 -0.01447,0.08785 1.4271415,1.9397718 14.254289 0 1 -0.01757,0.08785 1.4271415,1.9397718 14.254289 0 1 -0.02067,0.08733 1.4271415,1.9397718 14.254289 0 1 -0.0739,0.242362 1.4271415,1.9397718 14.254289 0 1 -0.09663,0.232027 1.4271415,1.9397718 14.254289 0 1 -0.117305,0.218075 1.4271415,1.9397718 14.254289 0 1 -0.135909,0.200504 1.4271415,1.9397718 14.254289 0 1 -0.152446,0.178801 1.4271415,1.9397718 14.254289 0 1 -0.166398,0.154512 1.4271415,1.9397718 14.254289 0 1 -0.17725,0.127641 1.4271415,1.9397718 14.254289 0 1 -0.185001,0.0987 1.4271415,1.9397718 14.254289 0 1 -0.19017,0.06718 1.4271415,1.9397718 14.254289 0 1 -0.191202,0.03566 1.4271415,1.9397718 14.254289 0 1 -0.189653,0.0031 1.4271415,1.9397718 14.254289 0 1 -0.185002,-0.02997 1.4271415,1.9397718 14.254289 0 1 -0.176216,-0.06201 1.4271415,1.9397718 14.254289 0 1 -0.165365,-0.09302 1.4271415,1.9397718 14.254289 0 1 -0.150895,-0.122473 1.4271415,1.9397718 14.254289 0 1 -0.134875,-0.149862 1.4271415,1.9397718 14.254289 0 1 -0.115756,-0.175183 1.4271415,1.9397718 14.254289 0 1 -0.09457,-0.19637 1.4271415,1.9397718 14.254289 0 1 -0.07235,-0.215491 1.4271415,1.9397718 14.254289 0 1 -0.04857,-0.22996 1.4271415,1.9397718 14.254289 0 1 -0.02429,-0.240812 1.4271415,1.9397718 14.254289 0 1 0.001,-0.24753 1.4271415,1.9397718 14.254289 0 1 0.02584,-0.250114 1.4271415,1.9397718 14.254289 0 1 0.05064,-0.248564 1.4271415,1.9397718 14.254289 0 1 0.07441,-0.242362 1.4271415,1.9397718 14.254289 0 1 0.09663,-0.232027 1.4271415,1.9397718 14.254289 0 1 0.117306,-0.218075 1.4271415,1.9397718 14.254289 0 1 0.135909,-0.200505 1.4271415,1.9397718 14.254289 0 1 0.152445,-0.1788 1.4271415,1.9397718 14.254289 0 1 0.166398,-0.154513 1.4271415,1.9397718 14.254289 0 1 0.177251,-0.12764 1.4271415,1.9397718 14.254289 0 1 0.185001,-0.0987 1.4271415,1.9397718 14.254289 0 1 0.189653,-0.06718 1.4271415,1.9397718 14.254289 0 1 0.191719,-0.03566 1.4271415,1.9397718 14.254289 0 1 0.189653,-0.0031 z m 7.688419,0 a 1.9397718,1.4271415 75.745711 0 1 0.189653,0.0031 1.9397718,1.4271415 75.745711 0 1 0.191719,0.03566 1.9397718,1.4271415 75.745711 0 1 0.189653,0.06718 1.9397718,1.4271415 75.745711 0 1 0.185001,0.0987 1.9397718,1.4271415 75.745711 0 1 0.177251,0.12764 1.9397718,1.4271415 75.745711 0 1 0.166398,0.154513 1.9397718,1.4271415 75.745711 0 1 0.152445,0.1788 1.9397718,1.4271415 75.745711 0 1 0.135909,0.200505 1.9397718,1.4271415 75.745711 0 1 0.117306,0.218075 1.9397718,1.4271415 75.745711 0 1 0.09663,0.232027 1.9397718,1.4271415 75.745711 0 1 0.07441,0.242362 1.9397718,1.4271415 75.745711 0 1 0.02067,0.08733 1.9397718,1.4271415 75.745711 0 1 0.01757,0.08785 1.9397718,1.4271415 75.745711 0 1 0.01447,0.08785 1.9397718,1.4271415 75.745711 0 1 0.01137,0.08837 1.9397718,1.4271415 75.745711 0 1 0.0083,0.08837 1.9397718,1.4271415 75.745711 0 1 0.0057,0.08837 1.9397718,1.4271415 75.745711 0 1 0.0021,0.08733 1.9397718,1.4271415 75.745711 0 1 -0.001,0.08733 1.9397718,1.4271415 75.745711 0 1 -0.0041,0.0863 1.9397718,1.4271415 75.745711 0 1 -0.0072,0.08578 1.9397718,1.4271415 75.745711 0 1 -0.01034,0.08423 1.9397718,1.4271415 75.745711 0 1 -0.01292,0.0832 1.9397718,1.4271415 75.745711 0 1 -0.01654,0.08165 1.9397718,1.4271415 75.745711 0 1 -0.01964,0.0801 1.9397718,1.4271415 75.745711 0 1 -0.02222,0.07803 1.9397718,1.4271415 75.745711 0 1 -0.02532,0.07597 1.9397718,1.4271415 75.745711 0 1 -0.02842,0.07441 1.9397718,1.4271415 75.745711 0 1 -0.03049,0.07131 1.9397718,1.4271415 75.745711 0 1 -0.03411,0.06976 1.9397718,1.4271415 75.745711 0 1 -0.03617,0.06615 1.9397718,1.4271415 75.745711 0 1 -0.03927,0.06408 1.9397718,1.4271415 75.745711 0 1 -0.04134,0.06098 1.9397718,1.4271415 75.745711 0 1 -0.04392,0.05788 1.9397718,1.4271415 75.745711 0 1 -0.04599,0.05529 1.9397718,1.4271415 75.745711 0 1 -0.04858,0.05116 1.9397718,1.4271415 75.745711 0 1 -0.05064,0.04858 1.9397718,1.4271415 75.745711 0 1 -0.05271,0.04444 1.9397718,1.4271415 75.745711 0 1 -0.05426,0.04134 1.9397718,1.4271415 75.745711 0 1 -0.05633,0.03772 1.9397718,1.4271415 75.745711 0 1 -0.05788,0.03359 1.9397718,1.4271415 75.745711 0 1 -0.05994,0.02997 1.9397718,1.4271415 75.745711 0 1 -0.06046,0.02636 1.9397718,1.4271415 75.745711 0 1 -0.06253,0.02222 1.9397718,1.4271415 75.745711 0 1 -0.06305,0.01809 1.9397718,1.4271415 75.745711 0 1 -0.185002,0.02997 1.9397718,1.4271415 75.745711 0 1 -0.189653,-0.0031 1.9397718,1.4271415 75.745711 0 1 -0.191202,-0.03566 1.9397718,1.4271415 75.745711 0 1 -0.19017,-0.06718 1.9397718,1.4271415 75.745711 0 1 -0.185001,-0.0987 1.9397718,1.4271415 75.745711 0 1 -0.17725,-0.127641 1.9397718,1.4271415 75.745711 0 1 -0.166399,-0.154512 1.9397718,1.4271415 75.745711 0 1 -0.152445,-0.178801 1.9397718,1.4271415 75.745711 0 1 -0.135909,-0.200504 1.9397718,1.4271415 75.745711 0 1 -0.117306,-0.218075 1.9397718,1.4271415 75.745711 0 1 -0.09663,-0.232027 1.9397718,1.4271415 75.745711 0 1 -0.0739,-0.242362 1.9397718,1.4271415 75.745711 0 1 -0.05064,-0.248564 1.9397718,1.4271415 75.745711 0 1 -0.02584,-0.250114 1.9397718,1.4271415 75.745711 0 1 -0.001,-0.24753 1.9397718,1.4271415 75.745711 0 1 0.02377,-0.240812 1.9397718,1.4271415 75.745711 0 1 0.04858,-0.22996 1.9397718,1.4271415 75.745711 0 1 0.07235,-0.215491 1.9397718,1.4271415 75.745711 0 1 0.09508,-0.196371 1.9397718,1.4271415 75.745711 0 1 0.115239,-0.175183 1.9397718,1.4271415 75.745711 0 1 0.134875,-0.149861 1.9397718,1.4271415 75.745711 0 1 0.151412,-0.122473 1.9397718,1.4271415 75.745711 0 1 0.165365,-0.09302 1.9397718,1.4271415 75.745711 0 1 0.176216,-0.06201 1.9397718,1.4271415 75.745711 0 1 0.184485,-0.02997 z" />
    </g>
    <path
       id="path16"
       style="fill:none;fill-opacity:1;stroke:#79cdee;stroke-width:0.264583;stroke-linejoin:round;stroke-dasharray:none;stroke-opacity:1"
       d="m 53.247725,-10.578804 c -2.373299,0 -4.512382,1.3999041 -4.790922,2.9005976 0.27854,1.5006925 2.417623,2.9005981 4.790922,2.9005981 2.006962,0 4.000201,-1.0918547 5.034835,-2.2598104 v 3.2173746 c -2.374868,0.1691917 -4.514651,1.6251635 -6.090067,3.89485254 -1.677714,2.41706096 -2.715597,5.75659096 -2.715597,9.44490096 0,1.7493606 0.418618,1.7690966 -1.635042,6.7840816 -0.207478,0.506658 2.611351,-0.784612 2.803446,-0.288354 0.369143,0.953643 1.303797,3.109783 3.140377,4.789371 0.213461,0.195217 1.013647,1.260752 1.302763,1.938383 0.402871,-0.25311 0.862259,-1.809419 1.684652,-1.55236 0.636396,0.19892 1.296811,0.30386 1.974556,0.303858 0.677745,0 1.338677,-0.104938 1.975073,-0.303858 0.822389,-0.257059 1.281777,1.29925 1.684652,1.55236 0.289115,-0.677631 1.088785,-1.743166 1.302246,-1.938383 1.83658,-1.679588 2.771752,-3.835728 3.140893,-4.789371 0.192095,-0.496258 3.010409,0.795012 2.80293,0.288354 -2.05366,-5.014985 -1.634525,-5.034721 -1.634525,-6.7840816 0,-3.68831 -1.037885,-7.02784 -2.715597,-9.44490096 C 63.712164,-2.2175534 61.544722,-3.6777712 59.141422,-3.8226279 v -3.2979898 c 1.011997,1.1988644 3.051966,2.3430094 5.106665,2.3430094 2.373303,0 4.512384,-1.3999056 4.790922,-2.9005981 -0.278538,-1.5006935 -2.417619,-2.9005976 -4.790922,-2.9005976 -2.373302,0 -4.728127,1.5265127 -5.500439,2.9005976 -0.772311,-1.3740849 -3.126618,-2.9005976 -5.499923,-2.9005976 z m 1.65468,12.4359324 a 1.4271415,1.9397718 14.254289 0 1 0.184485,0.02997 1.4271415,1.9397718 14.254289 0 1 0.06356,0.01809 1.4271415,1.9397718 14.254289 0 1 0.06201,0.02222 1.4271415,1.9397718 14.254289 0 1 0.06098,0.02636 1.4271415,1.9397718 14.254289 0 1 0.05943,0.02997 1.4271415,1.9397718 14.254289 0 1 0.05788,0.03359 1.4271415,1.9397718 14.254289 0 1 0.05633,0.03772 1.4271415,1.9397718 14.254289 0 1 0.05478,0.04134 1.4271415,1.9397718 14.254289 0 1 0.05271,0.04444 1.4271415,1.9397718 14.254289 0 1 0.05013,0.04857 1.4271415,1.9397718 14.254289 0 1 0.04858,0.05116 1.4271415,1.9397718 14.254289 0 1 0.04651,0.05529 1.4271415,1.9397718 14.254289 0 1 0.04393,0.05788 1.4271415,1.9397718 14.254289 0 1 0.04134,0.06098 1.4271415,1.9397718 14.254289 0 1 0.03876,0.06408 1.4271415,1.9397718 14.254289 0 1 0.03669,0.06615 1.4271415,1.9397718 14.254289 0 1 0.03359,0.06976 1.4271415,1.9397718 14.254289 0 1 0.03101,0.07131 1.4271415,1.9397718 14.254289 0 1 0.02791,0.07441 1.4271415,1.9397718 14.254289 0 1 0.02532,0.07596 1.4271415,1.9397718 14.254289 0 1 0.02274,0.07803 1.4271415,1.9397718 14.254289 0 1 0.01912,0.0801 1.4271415,1.9397718 14.254289 0 1 0.01654,0.08165 1.4271415,1.9397718 14.254289 0 1 0.01344,0.0832 1.4271415,1.9397718 14.254289 0 1 0.01034,0.08423 1.4271415,1.9397718 14.254289 0 1 0.0072,0.08578 1.4271415,1.9397718 14.254289 0 1 0.0041,0.0863 1.4271415,1.9397718 14.254289 0 1 5.17e-4,0.08733 1.4271415,1.9397718 14.254289 0 1 -0.0021,0.08733 1.4271415,1.9397718 14.254289 0 1 -0.0052,0.08837 1.4271415,1.9397718 14.254289 0 1 -0.0083,0.08837 1.4271415,1.9397718 14.254289 0 1 -0.01188,0.08837 1.4271415,1.9397718 14.254289 0 1 -0.01447,0.08785 1.4271415,1.9397718 14.254289 0 1 -0.01757,0.08785 1.4271415,1.9397718 14.254289 0 1 -0.02067,0.08733 1.4271415,1.9397718 14.254289 0 1 -0.0739,0.242362 1.4271415,1.9397718 14.254289 0 1 -0.09663,0.232027 1.4271415,1.9397718 14.254289 0 1 -0.117305,0.218075 1.4271415,1.9397718 14.254289 0 1 -0.135909,0.200504 1.4271415,1.9397718 14.254289 0 1 -0.152446,0.178801 1.4271415,1.9397718 14.254289 0 1 -0.166398,0.154512 1.4271415,1.9397718 14.254289 0 1 -0.17725,0.127641 1.4271415,1.9397718 14.254289 0 1 -0.185001,0.0987 1.4271415,1.9397718 14.254289 0 1 -0.19017,0.06718 1.4271415,1.9397718 14.254289 0 1 -0.191202,0.03566 1.4271415,1.9397718 14.254289 0 1 -0.189653,0.0031 1.4271415,1.9397718 14.254289 0 1 -0.185002,-0.02997 1.4271415,1.9397718 14.254289 0 1 -0.176216,-0.06201 1.4271415,1.9397718 14.254289 0 1 -0.165365,-0.09302 1.4271415,1.9397718 14.254289 0 1 -0.150895,-0.122473 1.4271415,1.9397718 14.254289 0 1 -0.134875,-0.149862 1.4271415,1.9397718 14.254289 0 1 -0.115756,-0.175183 1.4271415,1.9397718 14.254289 0 1 -0.09457,-0.19637 1.4271415,1.9397718 14.254289 0 1 -0.07235,-0.215491 1.4271415,1.9397718 14.254289 0 1 -0.04857,-0.22996 1.4271415,1.9397718 14.254289 0 1 -0.02429,-0.240812 1.4271415,1.9397718 14.254289 0 1 10e-4,-0.24753 1.4271415,1.9397718 14.254289 0 1 0.02584,-0.250114 1.4271415,1.9397718 14.254289 0 1 0.05064,-0.248564 1.4271415,1.9397718 14.254289 0 1 0.07441,-0.242362 1.4271415,1.9397718 14.254289 0 1 0.09664,-0.232027 1.4271415,1.9397718 14.254289 0 1 0.117306,-0.218075 1.4271415,1.9397718 14.254289 0 1 0.135909,-0.200505 1.4271415,1.9397718 14.254289 0 1 0.152445,-0.1788 1.4271415,1.9397718 14.254289 0 1 0.166398,-0.154513 1.4271415,1.9397718 14.254289 0 1 0.177251,-0.12764 1.4271415,1.9397718 14.254289 0 1 0.185001,-0.0987 1.4271415,1.9397718 14.254289 0 1 0.189653,-0.06718 1.4271415,1.9397718 14.254289 0 1 0.191719,-0.03566 1.4271415,1.9397718 14.254289 0 1 0.189653,-0.0031 z m 7.688419,0 a 1.9397718,1.4271415 75.745711 0 1 0.189653,0.0031 1.9397718,1.4271415 75.745711 0 1 0.191719,0.03566 1.9397718,1.4271415 75.745711 0 1 0.189653,0.06718 1.9397718,1.4271415 75.745711 0 1 0.185001,0.0987 1.9397718,1.4271415 75.745711 0 1 0.177251,0.12764 1.9397718,1.4271415 75.745711 0 1 0.166398,0.154513 1.9397718,1.4271415 75.745711 0 1 0.152445,0.1788 1.9397718,1.4271415 75.745711 0 1 0.135909,0.200505 1.9397718,1.4271415 75.745711 0 1 0.117306,0.218075 1.9397718,1.4271415 75.745711 0 1 0.09663,0.232027 1.9397718,1.4271415 75.745711 0 1 0.07441,0.242362 1.9397718,1.4271415 75.745711 0 1 0.02067,0.08733 1.9397718,1.4271415 75.745711 0 1 0.01757,0.08785 1.9397718,1.4271415 75.745711 0 1 0.01447,0.08785 1.9397718,1.4271415 75.745711 0 1 0.01137,0.08837 1.9397718,1.4271415 75.745711 0 1 0.0083,0.08837 1.9397718,1.4271415 75.745711 0 1 0.0057,0.08837 1.9397718,1.4271415 75.745711 0 1 0.0021,0.08733 1.9397718,1.4271415 75.745711 0 1 -0.001,0.08733 1.9397718,1.4271415 75.745711 0 1 -0.0041,0.0863 1.9397718,1.4271415 75.745711 0 1 -0.0072,0.08578 1.9397718,1.4271415 75.745711 0 1 -0.01034,0.08423 1.9397718,1.4271415 75.745711 0 1 -0.01292,0.0832 1.9397718,1.4271415 75.745711 0 1 -0.01654,0.08165 1.9397718,1.4271415 75.745711 0 1 -0.01964,0.0801 1.9397718,1.4271415 75.745711 0 1 -0.02222,0.07803 1.9397718,1.4271415 75.745711 0 1 -0.02532,0.07597 1.9397718,1.4271415 75.745711 0 1 -0.02842,0.07441 1.9397718,1.4271415 75.745711 0 1 -0.03049,0.07131 1.9397718,1.4271415 75.745711 0 1 -0.03411,0.06976 1.9397718,1.4271415 75.745711 0 1 -0.03617,0.06615 1.9397718,1.4271415 75.745711 0 1 -0.03927,0.06408 1.9397718,1.4271415 75.745711 0 1 -0.04134,0.06098 1.9397718,1.4271415 75.745711 0 1 -0.04393,0.05788 1.9397718,1.4271415 75.745711 0 1 -0.04599,0.05529 1.9397718,1.4271415 75.745711 0 1 -0.04858,0.05116 1.9397718,1.4271415 75.745711 0 1 -0.05064,0.04858 1.9397718,1.4271415 75.745711 0 1 -0.05271,0.04444 1.9397718,1.4271415 75.745711 0 1 -0.05426,0.04134 1.9397718,1.4271415 75.745711 0 1 -0.05633,0.03772 1.9397718,1.4271415 75.745711 0 1 -0.05788,0.03359 1.9397718,1.4271415 75.745711 0 1 -0.05994,0.02997 1.9397718,1.4271415 75.745711 0 1 -0.06046,0.02636 1.9397718,1.4271415 75.745711 0 1 -0.06253,0.02222 1.9397718,1.4271415 75.745711 0 1 -0.06305,0.01809 1.9397718,1.4271415 75.745711 0 1 -0.185002,0.02997 1.9397718,1.4271415 75.745711 0 1 -0.189653,-0.0031 1.9397718,1.4271415 75.745711 0 1 -0.191202,-0.03566 1.9397718,1.4271415 75.745711 0 1 -0.19017,-0.06718 1.9397718,1.4271415 75.745711 0 1 -0.185001,-0.0987 1.9397718,1.4271415 75.745711 0 1 -0.17725,-0.127641 1.9397718,1.4271415 75.745711 0 1 -0.166399,-0.154512 1.9397718,1.4271415 75.745711 0 1 -0.152445,-0.178801 1.9397718,1.4271415 75.745711 0 1 -0.135909,-0.200504 1.9397718,1.4271415 75.745711 0 1 -0.117306,-0.218075 1.9397718,1.4271415 75.745711 0 1 -0.09663,-0.232026 1.9397718,1.4271415 75.745711 0 1 -0.0739,-0.242362 1.9397718,1.4271415 75.745711 0 1 -0.05064,-0.248564 1.9397718,1.4271415 75.745711 0 1 -0.02584,-0.250114 1.9397718,1.4271415 75.745711 0 1 -0.001,-0.24753 1.9397718,1.4271415 75.745711 0 1 0.02377,-0.240812 1.9397718,1.4271415 75.745711 0 1 0.04858,-0.22996 1.9397718,1.4271415 75.745711 0 1 0.07235,-0.215491 1.9397718,1.4271415 75.745711 0 1 0.09508,-0.196371 1.9397718,1.4271415 75.745711 0 1 0.115239,-0.175183 1.9397718,1.4271415 75.745711 0 1 0.134875,-0.149861 1.9397718,1.4271415 75.745711 0 1 0.151412,-0.122473 1.9397718,1.4271415 75.745711 0 1 0.165365,-0.09302 1.9397718,1.4271415 75.745711 0 1 0.176216,-0.06201 1.9397718,1.4271415 75.745711 0 1 0.184485,-0.02997 z" />
    <path
       id="path20"
       style="fill:none;stroke:#79cdee;stroke-width:0.272991;stroke-linecap:round;stroke-linejoin:round;paint-order:stroke markers fill"
       d="m 3.6968604,-4.4488592 c 0,0.4645933 -0.6135438,0.8412218 -1.3703886,0.8412218 -0.7568448,0 -1.58949661,-0.8536241 -1.58949661,-0.8536241 0,0 0.83265181,-0.82882 1.58949661,-0.8288201 0.7568448,10e-8 1.3703886,0.3766279 1.3703886,0.8412224 z"
       sodipodi:nodetypes="sscss" />
    <g
       id="g41">
      <g
         id="path25"
         transform="translate(-1.2318142,2.3406919)">
        <path
           style="color:#000000;fill:#79cdee;stroke-linecap:round;stroke-linejoin:round;-inkscape-stroke:none;paint-order:stroke markers fill"
           d="m 26.582031,5.6621094 a 0.24849699,0.24849699 0 0 0 -0.248047,0.2480468 v 2.2949219 a 0.24849699,0.24849699 0 0 0 0.248047,0.2480469 0.24849699,0.24849699 0 0 0 0.25,-0.2480469 V 5.9101562 a 0.24849699,0.24849699 0 0 0 -0.25,-0.2480468 z"
           id="path41" />
        <path
           style="color:#000000;fill:#79cdee;stroke-linecap:round;stroke-linejoin:round;-inkscape-stroke:none;paint-order:stroke markers fill"
           d="M 26.582642,5.9102609 V 8.2048963"
           id="path40" />
      </g>
      <path
         style="color:#000000;fill:#79cdee;stroke-linecap:round;stroke-linejoin:round;-inkscape-stroke:none;paint-order:stroke markers fill"
         d="m 26.473549,8.0027993 a 0.33072901,0.33072901 0 0 0 -0.330078,0.332032 v 4.0644527 a 0.33072901,0.33072901 0 0 0 0.330078,0.330078 0.33072901,0.33072901 0 0 0 0.332032,-0.330078 V 8.3348313 a 0.33072901,0.33072901 0 0 0 -0.332032,-0.332032 z"
         id="path39" />
      <g
         id="path27"
         transform="translate(-1.4714738,2.3094393)">
        <path
           style="color:#000000;fill:#79cdee;stroke-linecap:round;stroke-linejoin:round;-inkscape-stroke:none;paint-order:stroke markers fill"
           d="m 29.117187,5.6933594 a 0.29773301,0.29773301 0 0 0 -0.296875,0.2988281 v 3.2929688 a 0.29773301,0.29773301 0 0 0 0.296875,0.2988281 0.29773301,0.29773301 0 0 0 0.298829,-0.2988281 V 5.9921875 A 0.29773301,0.29773301 0 0 0 29.117187,5.6933594 Z"
           id="path37" />
        <path
           style="color:#000000;fill:#79cdee;stroke-linecap:round;stroke-linejoin:round;-inkscape-stroke:none;paint-order:stroke markers fill"
           d="M 29.117428,5.9915785 V 9.2855873"
           id="path36" />
      </g>
    </g>
    <g
       id="g47"
       transform="translate(-17.633107,-14.482031)">
      <g
         id="g43"
         transform="translate(-1.2318142,2.3406919)">
        <path
           style="color:#000000;fill:#79cdee;stroke-linecap:round;stroke-linejoin:round;-inkscape-stroke:none;paint-order:stroke markers fill"
           d="m 26.582031,5.6621094 a 0.24849699,0.24849699 0 0 0 -0.248047,0.2480468 v 2.2949219 a 0.24849699,0.24849699 0 0 0 0.248047,0.2480469 0.24849699,0.24849699 0 0 0 0.25,-0.2480469 V 5.9101562 a 0.24849699,0.24849699 0 0 0 -0.25,-0.2480468 z"
           id="path42" />
        <path
           style="color:#000000;fill:#79cdee;stroke-linecap:round;stroke-linejoin:round;-inkscape-stroke:none;paint-order:stroke markers fill"
           d="M 26.582642,5.9102609 V 8.2048963"
           id="path43" />
      </g>
      <path
         style="color:#000000;fill:#79cdee;stroke-linecap:round;stroke-linejoin:round;-inkscape-stroke:none;paint-order:stroke markers fill"
         d="m 26.473549,8.0027993 a 0.33072901,0.33072901 0 0 0 -0.330078,0.332032 v 4.0644527 a 0.33072901,0.33072901 0 0 0 0.330078,0.330078 0.33072901,0.33072901 0 0 0 0.332032,-0.330078 V 8.3348313 a 0.33072901,0.33072901 0 0 0 -0.332032,-0.332032 z"
         id="path44" />
      <g
         id="g46"
         transform="translate(-1.4714738,2.3094393)">
        <path
           style="color:#000000;fill:#79cdee;stroke-linecap:round;stroke-linejoin:round;-inkscape-stroke:none;paint-order:stroke markers fill"
           d="m 29.117187,5.6933594 a 0.29773301,0.29773301 0 0 0 -0.296875,0.2988281 v 3.2929688 a 0.29773301,0.29773301 0 0 0 0.296875,0.2988281 0.29773301,0.29773301 0 0 0 0.298829,-0.2988281 V 5.9921875 A 0.29773301,0.29773301 0 0 0 29.117187,5.6933594 Z"
           id="path45" />
        <path
           style="color:#000000;fill:#79cdee;stroke-linecap:round;stroke-linejoin:round;-inkscape-stroke:none;paint-order:stroke markers fill"
           d="M 29.117428,5.9915785 V 9.2855873"
           id="path46" />
      </g>
    </g>
  </g>
</svg>
