<?xml version="1.0" encoding="UTF-8" standalone="no"?>
<!-- Created with Inkscape (http://www.inkscape.org/) -->

<svg
   width="128"
   height="128"
   viewBox="0 0 33.866666 33.866666"
   version="1.1"
   id="svg1"
   inkscape:version="1.3 (0e150ed6c4, 2023-07-21)"
   sodipodi:docname="pin.svg"
   inkscape:export-filename="Icon_chara.png"
   inkscape:export-xdpi="768"
   inkscape:export-ydpi="768"
   xmlns:inkscape="http://www.inkscape.org/namespaces/inkscape"
   xmlns:sodipodi="http://sodipodi.sourceforge.net/DTD/sodipodi-0.dtd"
   xmlns="http://www.w3.org/2000/svg"
   xmlns:svg="http://www.w3.org/2000/svg">
  <sodipodi:namedview
     id="namedview1"
     pagecolor="#ffffff"
     bordercolor="#000000"
     borderopacity="0.25"
     inkscape:showpageshadow="2"
     inkscape:pageopacity="0.0"
     inkscape:pagecheckerboard="true"
     inkscape:deskcolor="#d1d1d1"
     inkscape:document-units="px"
     inkscape:zoom="4"
     inkscape:cx="87.75"
     inkscape:cy="109.375"
     inkscape:window-width="2560"
     inkscape:window-height="1377"
     inkscape:window-x="1912"
     inkscape:window-y="-8"
     inkscape:window-maximized="1"
     inkscape:current-layer="layer1"
     labelstyle="below" />
  <defs
     id="defs1" />
  <g
     inkscape:label="Layer 1"
     inkscape:groupmode="layer"
     id="layer1"
     style="display:inline">
    <g
       id="g9"
       transform="matrix(0.31949164,0.40228332,-0.6831845,0.18812803,10.217779,22.552258)"
       style="opacity:0.292">
      <path
         id="path8"
         style="fill:#bebebe;stroke-width:3.2086;stroke-linecap:round;stroke-linejoin:round;paint-order:stroke fill markers"
         d="m 56.366014,-2.5161469 1.785861,-0.01655 0.279598,37.6356819 -0.871692,1.446386 -0.914169,-1.429831 z"
         sodipodi:nodetypes="cccccc" />
      <path
         id="path9"
         style="fill:#fdb515;fill-opacity:1;stroke-width:0.206724"
         d="m 68.791666,8.8602251 c 0,6.2921379 -5.100784,11.3929219 -11.39292,11.3929219 -6.29214,0 -11.392925,-5.100785 -11.392925,-11.3929219 0,-6.292139 5.100785,-11.392922 11.392925,-11.392922 6.292136,0 11.39292,5.100783 11.39292,11.392922 z"
         sodipodi:nodetypes="sssss" />
    </g>
    <path
       id="path2"
       style="fill:#79cdee;fill-opacity:1;stroke-width:0.0830855"
       d="m -8.6733894,14.132597 c 0,2.528903 -2.0500796,4.578982 -4.5789806,4.578982 -2.528902,0 -4.578982,-2.05008 -4.578982,-4.578982 0,-2.528901 2.05008,-4.5789806 4.578982,-4.5789807 2.528901,0 4.5789806,2.0500797 4.5789806,4.5789807 z"
       sodipodi:nodetypes="sssss" />
    <path
       id="path3"
       style="fill:#fdb515;fill-opacity:1;stroke-width:0.0830855"
       d="m -8.6072436,26.408026 c 0,2.528902 -2.0500794,4.578981 -4.5789804,4.578981 -2.528902,0 -4.578982,-2.05008 -4.578982,-4.578981 0,-2.528902 2.05008,-4.578981 4.578982,-4.578981 2.528901,0 4.5789804,2.050079 4.5789804,4.578981 z"
       sodipodi:nodetypes="sssss" />
    <path
       id="path4"
       style="fill:#fcf9f7;fill-opacity:1;stroke-width:0.0830855"
       d="m -8.7178455,3.507585 c 0,2.5289025 -2.0500805,4.5789815 -4.5789805,4.5789815 -2.528902,0 -4.578982,-2.05008 -4.578982,-4.5789815 0,-2.52890097 2.05008,-4.578981 4.578982,-4.578981 2.5289,0 4.5789805,2.05008003 4.5789805,4.578981 z"
       sodipodi:nodetypes="sssss" />
    <path
       id="path5"
       style="fill:#79cdee;stroke-width:0.264583"
       d="m -14.003874,-21.294347 c 0,-2.946293 1.895115,-5.869133 3.600946,-6.827907 1.7058313,0.958774 3.6009458,3.881614 3.6009458,6.827907 0,2.946293 -1.7379385,5.601934 -3.6009458,5.947721 -1.863007,-0.345787 -3.600946,-3.001428 -3.600946,-5.947721 z"
       sodipodi:nodetypes="scscs" />
    <path
       id="path21"
       style="fill:#79cdee;stroke-width:0.264583"
       d="m -34.699982,-24.463385 c -2.946288,0 -5.601653,1.738324 -5.94744,3.60133 0.345787,1.863005 3.001152,3.600814 5.94744,3.600814 2.491503,0 4.96584,-1.355578 6.250265,-2.805514 v 6.037875 h 1.066601 v -6.141228 c 1.256325,1.488307 3.788383,2.908867 6.339148,2.908867 2.946288,0 5.602171,-1.737809 5.947957,-3.600814 -0.345786,-1.863006 -3.001669,-3.60133 -5.947957,-3.60133 -2.94629,0 -5.869234,1.8955 -6.828007,3.60133 0.0058,0.01033 0.01265,0.02066 0.0186,0.03101 h -0.03721 c 0.0059,-0.01035 0.0128,-0.02067 0.0186,-0.03101 -0.958773,-1.70583 -3.881717,-3.60133 -6.828007,-3.60133 z" />
    <path
       id="path23"
       style="fill:#79cdee;stroke-width:0.173814"
       d="m -54.160361,-4.6751596 a 16.83798,16.83798 0 0 0 -16.837731,16.8377316 16.83798,16.83798 0 0 0 6.263183,13.063802 c 0.06192,-0.671981 -0.0088,-1.169774 -0.0088,-1.980758 0,-4.231325 1.190856,-8.062081 3.115572,-10.834997 1.807358,-2.603843 4.262146,-4.27436 6.986653,-4.468461 V 4.2509104 c -1.186956,1.3399086 -3.473437,2.5926066 -5.775874,2.5926066 -2.722712,0 -5.176758,-1.605814 -5.496305,-3.3274455 0.319547,-1.7216343 2.773593,-3.32796221 5.496305,-3.32796221 2.722714,0 5.423666,1.75157791 6.309692,3.32796221 0.886017,-1.5763843 3.587498,-3.32796221 6.310209,-3.32796221 2.722712,0 5.176761,1.60632791 5.496305,3.32796221 -0.319544,1.7216315 -2.773593,3.3274455 -5.496305,3.3274455 -2.357203,0 -4.697566,-1.31284 -5.858557,-2.688208 v 3.783748 c 2.757128,0.166183 5.243922,1.841708 7.069336,4.471562 1.924716,2.772915 3.115055,6.603672 3.115055,10.834997 0,0.794868 -0.06925,1.286768 -0.01395,1.938383 a 16.83798,16.83798 0 0 0 6.162924,-13.021427 16.83798,16.83798 0 0 0 -16.837732,-16.8377316 z m 0.05271,8.1912311 c -0.0055,0.00954 -0.01145,0.018902 -0.01705,0.028422 h 0.03462 c -0.0056,-0.00955 -0.01207,-0.018902 -0.01757,-0.028422 z" />
    <path
       id="path24"
       style="fill:#79cdee;stroke-width:0.173814"
       d="m -29.50104,62.272684 a 16.83798,16.83798 0 0 0 -16.837732,16.837731 16.83798,16.83798 0 0 0 6.263184,13.063802 c 0.06192,-0.671981 -0.0088,-1.169774 -0.0088,-1.980758 0,-4.231325 1.190856,-8.062081 3.115572,-10.834997 1.807358,-2.603843 4.262146,-4.27436 6.986653,-4.468461 v -3.691247 c -1.186956,1.339908 -3.473437,2.592606 -5.775874,2.592606 -2.722713,0 -5.176758,-1.605814 -5.496306,-3.327445 0.319548,-1.721635 2.773593,-3.327962 5.496306,-3.327962 2.722714,0 5.423666,1.751577 6.309692,3.327962 0.886017,-1.576385 3.587498,-3.327962 6.310209,-3.327962 2.722712,0 5.176761,1.606327 5.496305,3.327962 -0.319544,1.721631 -2.773593,3.327445 -5.496305,3.327445 -2.357203,0 -4.697566,-1.31284 -5.858557,-2.688208 V 74.8869 c 2.757128,0.166183 5.243922,1.841708 7.069336,4.471562 1.924716,2.772915 3.115055,6.603672 3.115055,10.834997 0,0.794868 -0.06926,1.286768 -0.01395,1.938383 A 16.83798,16.83798 0 0 0 -12.663309,79.110415 16.83798,16.83798 0 0 0 -29.50104,62.272684 Z m 0.05271,8.191231 c -0.0055,0.0095 -0.01145,0.0189 -0.01705,0.02842 h 0.03462 c -0.0056,-0.0096 -0.01207,-0.0189 -0.01757,-0.02842 z" />
    <path
       id="path10"
       style="opacity:0.312;fill:#c4af9e;fill-opacity:1;stroke-width:0.12542"
       d="m 79.678527,28.49704 c 0,2.344729 -5.038485,4.245506 -11.253768,4.245506 -6.215285,0 -11.25377,-1.900778 -11.25377,-4.245506 0,-2.344727 5.038485,-4.245505 11.25377,-4.245505 6.215283,0 11.253768,1.900778 11.253768,4.245505 z"
       sodipodi:nodetypes="sssss" />
    <path
       id="path1"
       style="fill:#fdb515;fill-opacity:1;stroke-width:0.209823"
       d="m 57.371149,-5.4872655 c -0.0381,6.38634404 -5.246137,11.532611 -11.63248,11.494513 -6.386346,-0.038099 -11.532615,-5.24613896 -11.494516,-11.632482 0.0381,-6.3863455 5.24614,-11.5326115 11.632486,-11.4945125 6.386341,0.0381 11.532609,5.246136 11.49451,11.6324815 z"
       sodipodi:nodetypes="sssss" />
    <g
       id="g20"
       transform="matrix(0.94654143,0,0,0.94654143,1.4533554,1.1297517)">
      <path
         id="path13"
         style="opacity:0.312;fill:#c4af9e;fill-opacity:1;stroke-width:0.0864607"
         d="m 11.759874,29.381433 c 0,1.88634 -2.9762565,3.415521 -6.6476546,3.415521 -3.6713998,0 -6.6476571,-1.529181 -6.6476571,-3.415521 0,-1.886339 2.9762573,-3.415519 6.6476571,-3.415519 3.6713981,0 6.6476546,1.52918 6.6476546,3.415519 z"
         sodipodi:nodetypes="sssss" />
      <g
         id="g15"
         transform="matrix(0.68192902,0.69011423,-0.69011423,0.68192902,-9.8367553,-34.005027)">
        <path
           id="path14"
           style="fill:#bebebe;stroke-width:3.2086;stroke-linecap:round;stroke-linejoin:round;paint-order:stroke fill markers"
           d="m 56.366014,-2.5161469 1.785861,-0.01655 0.279598,37.6356819 -0.871692,1.446386 -0.914169,-1.429831 z"
           sodipodi:nodetypes="cccccc" />
        <path
           id="path15"
           style="fill:#fdb515;fill-opacity:1;stroke-width:0.206724"
           d="m 68.791666,8.8602251 c 0,6.2921379 -5.100784,11.3929219 -11.39292,11.3929219 -6.29214,0 -11.392925,-5.100785 -11.392925,-11.3929219 0,-6.292139 5.100785,-11.392922 11.392925,-11.392922 6.292136,0 11.39292,5.100783 11.39292,11.392922 z"
           sodipodi:nodetypes="sssss" />
      </g>
    </g>
    <g
       id="g17"
       transform="matrix(0.97018109,0.00578782,-0.00578782,0.97018109,-60.47031,43.808524)">
      <path
         id="path16"
         style="fill:#bebebe;stroke-width:3.2086;stroke-linecap:round;stroke-linejoin:round;paint-order:stroke fill markers"
         d="m 56.366014,-2.5161469 1.785861,-0.01655 0.279598,37.6356819 -0.871692,1.446386 -0.914169,-1.429831 z"
         sodipodi:nodetypes="cccccc" />
      <path
         id="path17"
         style="fill:#fdb515;fill-opacity:1;stroke-width:0.206724"
         d="m 68.791666,8.8602251 c 0,6.2921379 -5.100784,11.3929219 -11.39292,11.3929219 -6.29214,0 -11.392925,-5.100785 -11.392925,-11.3929219 0,-6.292139 5.100785,-11.392922 11.392925,-11.392922 6.292136,0 11.39292,5.100783 11.39292,11.392922 z"
         sodipodi:nodetypes="sssss" />
    </g>
    <g
       id="g19"
       transform="translate(24.209375,13.824479)">
      <path
         id="path18"
         style="fill:#bebebe;stroke-width:3.11298;stroke-linecap:round;stroke-linejoin:round;paint-order:stroke fill markers"
         d="m 43.322316,3.5785666 1.732704,-0.0057 0.05343,9.4613984 -0.85407,1.398211 -0.878634,-1.392486 z"
         sodipodi:nodetypes="cccccc" />
      <path
         id="path19"
         style="fill:#fdb515;fill-opacity:1;stroke-width:0.200563"
         d="M 55.268581,0.13188033 C 55.232163,6.2363935 50.253957,11.155555 44.149445,11.119138 38.04493,11.08272 33.125767,6.1045122 33.162185,-4.3936423e-8 33.198603,-6.1045143 38.176811,-11.023675 44.281326,-10.987257 c 6.104511,0.03642 11.023673,5.0146231 10.987255,11.11913733 z"
         sodipodi:nodetypes="sssss" />
    </g>
  </g>
  <g
     inkscape:groupmode="layer"
     id="layer2"
     inkscape:label="Layer 2"
     style="display:inline">
    <path
       id="path22"
       style="fill:#79cdee;fill-opacity:1;stroke-width:0.209115"
       d="m -74.291802,33.866666 c -2.373308,0 -4.512276,1.400266 -4.790816,2.900964 0.27854,1.500697 2.417508,2.900548 4.790816,2.900548 2.006968,0 4.000113,-1.091954 5.03475,-2.259913 v 3.217327 c -2.374874,0.169192 -4.514564,1.625316 -6.089986,3.89501 -1.677719,2.41707 -2.715726,5.756358 -2.715726,9.444681 0,1.749367 0.418986,1.768902 -1.63468,6.783902 -0.20748,0.506659 2.611046,-0.784315 2.803142,-0.288056 0.369143,0.953645 1.304148,3.109556 3.140734,4.78915 0.213461,0.195216 1.013383,1.260924 1.302499,1.938558 0.402874,-0.253109 0.862239,-1.809319 1.684633,-1.552261 0.636398,0.19892 1.297022,0.303876 1.97477,0.303875 0.677748,0 1.338789,-0.104955 1.975188,-0.303875 0.822392,-0.257058 1.281756,1.299152 1.684631,1.552261 0.289116,-0.677634 1.088622,-1.743342 1.302083,-1.938558 1.836586,-1.679594 2.771591,-3.835505 3.140735,-4.78915 0.192095,-0.496259 3.010621,0.794715 2.803142,0.288056 -2.053666,-5.015 -1.634681,-5.034535 -1.634681,-6.783902 0,-3.688323 -1.037591,-7.027611 -2.715309,-9.444681 -1.591162,-2.292366 -3.758694,-3.752651 -6.162,-3.897507 v -3.298083 c 1.012,1.198868 3.051642,2.343166 5.106347,2.343166 2.373309,0 4.512693,-1.399851 4.791233,-2.900548 -0.27854,-1.500698 -2.417924,-2.900964 -4.791233,-2.900964 -2.373311,0 -4.727821,1.526876 -5.500136,2.900964 0.0047,0.0083 0.01019,0.01664 0.01498,0.02498 h -0.02997 c 0.0048,-0.0083 0.01031,-0.01665 0.01498,-0.02498 -0.772314,-1.374088 -3.126824,-2.900964 -5.500135,-2.900964 z" />
  </g>
</svg>
