<svg xmlns="http://www.w3.org/2000/svg" width="128" height="128" viewBox="0 0 33.867 33.867"><path fill="#79cdee" d="M-8.673 14.133a4.579 4.579 0 1 1-9.158 0 4.579 4.579 0 0 1 9.158 0"/><path fill="#fdb515" d="M-8.673 24.358a4.579 4.579 0 1 1-9.158 0 4.579 4.579 0 0 1 9.158 0"/><path fill="#fcf9f7" d="M-8.718 3.508a4.579 4.579 0 1 1-9.158 0 4.579 4.579 0 0 1 9.158 0"/><path fill="#79cdee" d="M-14.004-21.294c0-2.947 1.895-5.87 3.601-6.828 1.706.959 3.601 3.881 3.601 6.828 0 2.946-1.738 5.602-3.6 5.947-1.864-.345-3.602-3.001-3.602-5.947M-34.7-24.463c-2.946 0-5.602 1.738-5.947 3.6.345 1.864 3 3.602 5.947 3.602 2.492 0 4.966-1.356 6.25-2.806v6.038h1.067v-6.141c1.256 1.488 3.788 2.909 6.339 2.909 2.946 0 5.602-1.738 5.948-3.601-.346-1.863-3.002-3.601-5.948-3.601s-5.87 1.895-6.828 3.6l.019.032h-.038l.019-.031c-.959-1.706-3.882-3.601-6.828-3.601M-54.16-4.675a16.84 16.84 0 0 0-16.838 16.838 16.84 16.84 0 0 0 6.263 13.063c.062-.672-.009-1.17-.009-1.98 0-4.232 1.191-8.062 3.116-10.835 1.807-2.604 4.262-4.275 6.987-4.469V4.251c-1.187 1.34-3.474 2.593-5.776 2.593-2.723 0-5.177-1.606-5.497-3.328.32-1.722 2.774-3.328 5.497-3.328s5.423 1.752 6.31 3.328c.885-1.576 3.587-3.328 6.31-3.328s5.176 1.606 5.496 3.328c-.32 1.722-2.774 3.328-5.496 3.328-2.358 0-4.698-1.313-5.859-2.689V7.94c2.757.166 5.244 1.842 7.07 4.472 1.924 2.773 3.114 6.603 3.114 10.835 0 .794-.069 1.286-.014 1.938a16.84 16.84 0 0 0 6.163-13.021A16.84 16.84 0 0 0-54.16-4.675m.052 8.191-.017.028h.035zm24.018 57.447a16.84 16.84 0 0 0-16.838 16.838 16.84 16.84 0 0 0 6.263 13.064c.062-.672-.008-1.17-.008-1.981 0-4.231 1.19-8.062 3.115-10.835 1.807-2.604 4.262-4.275 6.987-4.469v-3.69c-1.187 1.339-3.474 2.592-5.776 2.592-2.723 0-5.177-1.606-5.496-3.328.32-1.721 2.773-3.328 5.496-3.328s5.424 1.752 6.31 3.328c.886-1.576 3.587-3.328 6.31-3.328s5.177 1.607 5.496 3.328c-.32 1.722-2.773 3.328-5.496 3.328-2.357 0-4.698-1.313-5.859-2.688v3.783c2.757.166 5.244 1.842 7.07 4.472 1.924 2.773 3.115 6.604 3.115 10.835 0 .795-.07 1.287-.014 1.938a16.84 16.84 0 0 0 6.163-13.021A16.84 16.84 0 0 0-30.09 60.963m.053 8.191-.017.029h.034z"/><path fill="none" stroke="#79cdee" stroke-linejoin="round" stroke-width=".397" d="M-86.597 29.095c-2.373 0-4.512 1.4-4.79 2.9.278 1.502 2.417 2.901 4.79 2.901 2.007 0 4-1.091 5.035-2.26v3.218c-2.375.17-4.515 1.625-6.09 3.895-1.678 2.417-2.716 5.756-2.716 9.445 0 1.75.419 1.769-1.635 6.784-.207.507 2.612-.785 2.804-.289.369.954 1.304 3.11 3.14 4.79.214.195 1.014 1.26 1.303 1.938.403-.253.862-1.81 1.685-1.552a6.6 6.6 0 0 0 3.95 0c.822-.257 1.281 1.3 1.684 1.552.289-.677 1.089-1.743 1.302-1.938 1.837-1.68 2.772-3.836 3.141-4.79.192-.496 3.01.796 2.803.289-2.054-5.015-1.635-5.035-1.635-6.784 0-3.689-1.037-7.028-2.715-9.445-1.591-2.293-3.759-3.753-6.162-3.898v-3.298c1.012 1.2 3.052 2.343 5.107 2.343 2.373 0 4.512-1.4 4.79-2.9-.278-1.5-2.417-2.9-4.79-2.9s-4.729 1.526-5.5 2.9c-.773-1.374-3.127-2.9-5.5-2.9z"/><path fill="#79cdee" d="M-56.567 28.368c-2.373 0-4.512 1.4-4.79 2.9.278 1.501 2.417 2.9 4.79 2.9 2.007 0 4-1.09 5.035-2.259v3.217c-2.375.17-4.514 1.626-6.09 3.895-1.678 2.417-2.715 5.757-2.715 9.445 0 1.75.418 1.77-1.635 6.784-.208.507 2.61-.784 2.803-.288.37.954 1.304 3.11 3.14 4.79.214.195 1.014 1.26 1.303 1.938.403-.253.862-1.81 1.685-1.553a6.6 6.6 0 0 0 3.95 0c.822-.257 1.281 1.3 1.684 1.553.29-.678 1.089-1.743 1.302-1.939 1.837-1.68 2.772-3.835 3.141-4.789.192-.496 3.01.795 2.803.288-2.054-5.015-1.634-5.034-1.634-6.784 0-3.688-1.038-7.028-2.716-9.445-1.591-2.292-3.759-3.752-6.162-3.897v-3.298c1.012 1.199 3.052 2.343 5.107 2.343 2.373 0 4.512-1.4 4.79-2.9-.278-1.501-2.417-2.901-4.79-2.901s-4.728 1.526-5.5 2.9c-.773-1.374-3.127-2.9-5.5-2.9"/><path fill="none" stroke="#79cdee" stroke-linejoin="round" stroke-width=".265" d="M-9.453-8.071a1.94 1.427 75.746 0 0-.184.03 1.94 1.427 75.746 0 0-.177.062 1.94 1.427 75.746 0 0-.165.093 1.94 1.427 75.746 0 0-.151.123 1.94 1.427 75.746 0 0-.135.15 1.94 1.427 75.746 0 0-.115.175 1.94 1.427 75.746 0 0-.095.196 1.94 1.427 75.746 0 0-.073.215 1.94 1.427 75.746 0 0-.048.23 1.94 1.427 75.746 0 0-.024.241 1.94 1.427 75.746 0 0 0 .248 1.94 1.427 75.746 0 0 .027.25 1.94 1.427 75.746 0 0 .05.248 1.94 1.427 75.746 0 0 .074.243 1.94 1.427 75.746 0 0 .097.232 1.94 1.427 75.746 0 0 .117.218 1.94 1.427 75.746 0 0 .136.2 1.94 1.427 75.746 0 0 .153.18 1.94 1.427 75.746 0 0 .166.154 1.94 1.427 75.746 0 0 .177.127 1.94 1.427 75.746 0 0 .185.1 1.94 1.427 75.746 0 0 .19.066 1.94 1.427 75.746 0 0 .192.036 1.94 1.427 75.746 0 0 .19.003 1.94 1.427 75.746 0 0 .184-.03 1.94 1.427 75.746 0 0 .063-.018 1.94 1.427 75.746 0 0 .063-.022 1.94 1.427 75.746 0 0 .06-.027 1.94 1.427 75.746 0 0 .06-.03 1.94 1.427 75.746 0 0 .058-.033 1.94 1.427 75.746 0 0 .056-.038 1.94 1.427 75.746 0 0 .055-.041 1.94 1.427 75.746 0 0 .052-.046 1.94 1.427 75.746 0 0 .051-.047 1.94 1.427 75.746 0 0 .049-.051 1.94 1.427 75.746 0 0 .046-.056 1.94 1.427 75.746 0 0 .043-.058 1.94 1.427 75.746 0 0 .042-.06 1.94 1.427 75.746 0 0 .04-.065 1.94 1.427 75.746 0 0 .035-.066 1.94 1.427 75.746 0 0 .034-.07 1.94 1.427 75.746 0 0 .03-.07 1.94 1.427 75.746 0 0 .03-.075 1.94 1.427 75.746 0 0 .025-.076 1.94 1.427 75.746 0 0 .022-.078 1.94 1.427 75.746 0 0 .02-.08 1.94 1.427 75.746 0 0 .016-.082 1.94 1.427 75.746 0 0 .013-.083 1.94 1.427 75.746 0 0 .01-.084 1.94 1.427 75.746 0 0 .007-.086 1.94 1.427 75.746 0 0 .005-.087 1.94 1.427 75.746 0 0 0-.087 1.94 1.427 75.746 0 0-.001-.087 1.94 1.427 75.746 0 0-.006-.089 1.94 1.427 75.746 0 0-.008-.088 1.94 1.427 75.746 0 0-.012-.088 1.94 1.427 75.746 0 0-.014-.088 1.94 1.427 75.746 0 0-.018-.088 1.94 1.427 75.746 0 0-.02-.087 1.94 1.427 75.746 0 0-.075-.243 1.94 1.427 75.746 0 0-.096-.232 1.94 1.427 75.746 0 0-.118-.218 1.94 1.427 75.746 0 0-.136-.2 1.94 1.427 75.746 0 0-.152-.18 1.94 1.427 75.746 0 0-.167-.154 1.94 1.427 75.746 0 0-.177-.127 1.94 1.427 75.746 0 0-.185-.099 1.94 1.427 75.746 0 0-.19-.067 1.94 1.427 75.746 0 0-.191-.036 1.94 1.427 75.746 0 0-.19-.003zm-7.688 0a1.427 1.94 14.254 0 0-.19.003 1.427 1.94 14.254 0 0-.192.036 1.427 1.94 14.254 0 0-.19.067 1.427 1.94 14.254 0 0-.184.099 1.427 1.94 14.254 0 0-.178.127 1.427 1.94 14.254 0 0-.166.155 1.427 1.94 14.254 0 0-.152.179 1.427 1.94 14.254 0 0-.136.2 1.427 1.94 14.254 0 0-.118.218 1.427 1.94 14.254 0 0-.096.232 1.427 1.94 14.254 0 0-.075.243 1.427 1.94 14.254 0 0-.05.248 1.427 1.94 14.254 0 0-.026.25 1.427 1.94 14.254 0 0-.001.248 1.427 1.94 14.254 0 0 .024.24 1.427 1.94 14.254 0 0 .049.23 1.427 1.94 14.254 0 0 .072.216 1.427 1.94 14.254 0 0 .095.196 1.427 1.94 14.254 0 0 .115.176 1.427 1.94 14.254 0 0 .135.15 1.427 1.94 14.254 0 0 .151.122 1.427 1.94 14.254 0 0 .166.093 1.427 1.94 14.254 0 0 .176.062 1.427 1.94 14.254 0 0 .185.03 1.427 1.94 14.254 0 0 .19-.003 1.427 1.94 14.254 0 0 .19-.036 1.427 1.94 14.254 0 0 .19-.067 1.427 1.94 14.254 0 0 .186-.099 1.427 1.94 14.254 0 0 .177-.127 1.427 1.94 14.254 0 0 .166-.155 1.427 1.94 14.254 0 0 .154-.178 1.427 1.94 14.254 0 0 .136-.2 1.427 1.94 14.254 0 0 .117-.218 1.427 1.94 14.254 0 0 .097-.232 1.427 1.94 14.254 0 0 .074-.243 1.427 1.94 14.254 0 0 .02-.087 1.427 1.94 14.254 0 0 .018-.088 1.427 1.94 14.254 0 0 .014-.088 1.427 1.94 14.254 0 0 .012-.088 1.427 1.94 14.254 0 0 .009-.088 1.427 1.94 14.254 0 0 .005-.089 1.427 1.94 14.254 0 0 .002-.087 1.427 1.94 14.254 0 0 0-.087 1.427 1.94 14.254 0 0-.005-.087 1.427 1.94 14.254 0 0-.007-.085 1.427 1.94 14.254 0 0-.01-.085 1.427 1.94 14.254 0 0-.014-.083 1.427 1.94 14.254 0 0-.016-.082 1.427 1.94 14.254 0 0-.02-.08 1.427 1.94 14.254 0 0-.022-.078 1.427 1.94 14.254 0 0-.026-.076 1.427 1.94 14.254 0 0-.028-.074 1.427 1.94 14.254 0 0-.03-.071 1.427 1.94 14.254 0 0-.034-.07 1.427 1.94 14.254 0 0-.037-.066 1.427 1.94 14.254 0 0-.039-.064 1.427 1.94 14.254 0 0-.04-.061 1.427 1.94 14.254 0 0-.045-.058 1.427 1.94 14.254 0 0-.046-.055 1.427 1.94 14.254 0 0-.049-.052 1.427 1.94 14.254 0 0-.05-.048 1.427 1.94 14.254 0 0-.053-.045 1.427 1.94 14.254 0 0-.055-.041 1.427 1.94 14.254 0 0-.056-.038 1.427 1.94 14.254 0 0-.058-.033 1.427 1.94 14.254 0 0-.06-.03A1.427 1.94 14.254 0 0-16.83-8a1.427 1.94 14.254 0 0-.062-.022 1.427 1.94 14.254 0 0-.064-.018 1.427 1.94 14.254 0 0-.184-.03z"/><path fill="none" stroke="#79cdee" stroke-linejoin="round" stroke-width=".265" d="M-8.696-4.113a.653.527 0 0 0 .004.01.653.527 0 0 0 .032.071.653.527 0 0 0 .045.066.653.527 0 0 0 .055.06.653.527 0 0 0 .066.054.653.527 0 0 0 .075.045.653.527 0 0 0 .082.036.653.527 0 0 0 .087.026.653.527 0 0 0 .091.016.653.527 0 0 0 .093.005.653.527 0 0 0 .031 0 .653.527 0 0 0 .031-.002.653.527 0 0 0 .031-.003.653.527 0 0 0 .03-.005.653.527 0 0 0 .031-.005.653.527 0 0 0 .03-.006.653.527 0 0 0 .03-.008.653.527 0 0 0 .029-.008.653.527 0 0 0 .029-.01.653.527 0 0 0 .028-.012.653.527 0 0 0 .027-.012.653.527 0 0 0 .026-.012.653.527 0 0 0 .026-.014.653.527 0 0 0 .025-.015.653.527 0 0 0 .024-.016.653.527 0 0 0 .023-.017.653.527 0 0 0 .022-.018.653.527 0 0 0 .02-.019.653.527 0 0 0 .02-.02.653.527 0 0 0 .02-.019.653.527 0 0 0 .017-.021.653.527 0 0 0 .016-.021.653.527 0 0 0 .015-.023.653.527 0 0 0 .013-.022.653.527 0 0 0 .013-.023.653.527 0 0 0 .01-.023.653.527 0 0 0 .01-.025.653.527 0 0 0 .008-.023.653.527 0 0 0 .007-.025.653.527 0 0 0 .005-.025.653.527 0 0 0 .004-.025.653.527 0 0 0 .002-.025.653.527 0 0 0 0-.025.653.527 0 0 0 0-.025.653.527 0 0 0-.002-.025.653.527 0 0 0-.004-.025.653.527 0 0 0-.005-.025.653.527 0 0 0-.007-.024.653.527 0 0 0-.008-.024.653.527 0 0 0-.01-.024.653.527 0 0 0-.01-.024.653.527 0 0 0-.013-.022.653.527 0 0 0-.013-.023.653.527 0 0 0-.015-.022.653.527 0 0 0-.016-.022.653.527 0 0 0-.018-.02.653.527 0 0 0-.018-.02.653.527 0 0 0-.02-.02.653.527 0 0 0-.021-.018.653.527 0 0 0-.022-.018.653.527 0 0 0-.023-.017.653.527 0 0 0-.024-.016.653.527 0 0 0-.025-.015.653.527 0 0 0-.026-.014.653.527 0 0 0-.026-.013.653.527 0 0 0-.027-.012.653.527 0 0 0-.028-.01.653.527 0 0 0-.03-.01.653.527 0 0 0-.028-.01.653.527 0 0 0-.03-.007.653.527 0 0 0-.03-.007.653.527 0 0 0-.03-.005.653.527 0 0 0-.03-.004.653.527 0 0 0-.032-.003.653.527 0 0 0-.03-.002.653.527 0 0 0-.023 0 1.94 1.427 75.746 0 1-.031.064 1.94 1.427 75.746 0 1-.037.066 1.94 1.427 75.746 0 1-.039.064 1.94 1.427 75.746 0 1-.041.06 1.94 1.427 75.746 0 1-.044.059 1.94 1.427 75.746 0 1-.046.055 1.94 1.427 75.746 0 1-.049.051 1.94 1.427 75.746 0 1-.05.049 1.94 1.427 75.746 0 1-.053.044 1.94 1.427 75.746 0 1-.054.041 1.94 1.427 75.746 0 1-.057.038 1.94 1.427 75.746 0 1-.057.034 1.94 1.427 75.746 0 1-.06.03 1.94 1.427 75.746 0 1-.02.009z"/><path fill="#79cdee" d="M11.433.272c-2.373 0-4.512 1.4-4.79 2.9.278 1.502 2.417 2.902 4.79 2.902 2.007 0 4-1.092 5.035-2.26V7.03c-2.375.17-4.514 1.625-6.09 3.895-1.678 2.417-2.715 5.757-2.715 9.445 0 1.75.418 1.769-1.635 6.784-.208.507 2.61-.785 2.803-.288.37.953 1.304 3.11 3.14 4.789.214.195 1.014 1.26 1.303 1.938.403-.253.862-1.81 1.685-1.552a6.6 6.6 0 0 0 3.95 0c.822-.257 1.281 1.3 1.684 1.552.29-.677 1.089-1.743 1.302-1.938 1.837-1.68 2.772-3.836 3.141-4.79.192-.496 3.01.796 2.803.289-2.054-5.015-1.634-5.035-1.634-6.784 0-3.688-1.038-7.028-2.716-9.445-1.591-2.292-3.759-3.753-6.162-3.897V3.73c1.012 1.198 3.052 2.343 5.107 2.343 2.373 0 4.512-1.4 4.79-2.901-.278-1.5-2.417-2.9-4.79-2.9s-4.728 1.526-5.5 2.9c-.773-1.374-3.127-2.9-5.5-2.9m1.655 12.436a1.427 1.94 14.254 0 1 .185.03 1.427 1.94 14.254 0 1 .063.018 1.427 1.94 14.254 0 1 .062.023 1.427 1.94 14.254 0 1 .061.026 1.427 1.94 14.254 0 1 .06.03 1.427 1.94 14.254 0 1 .057.033 1.427 1.94 14.254 0 1 .057.038 1.427 1.94 14.254 0 1 .055.042 1.427 1.94 14.254 0 1 .052.044 1.427 1.94 14.254 0 1 .05.049 1.427 1.94 14.254 0 1 .049.05 1.427 1.94 14.254 0 1 .046.056 1.427 1.94 14.254 0 1 .044.058 1.427 1.94 14.254 0 1 .042.06 1.427 1.94 14.254 0 1 .038.065 1.427 1.94 14.254 0 1 .037.066 1.427 1.94 14.254 0 1 .034.07 1.427 1.94 14.254 0 1 .03.071 1.427 1.94 14.254 0 1 .029.075 1.427 1.94 14.254 0 1 .025.076 1.427 1.94 14.254 0 1 .023.078 1.427 1.94 14.254 0 1 .019.08 1.427 1.94 14.254 0 1 .016.081 1.427 1.94 14.254 0 1 .014.084 1.427 1.94 14.254 0 1 .01.084 1.427 1.94 14.254 0 1 .007.086 1.427 1.94 14.254 0 1 .004.086 1.427 1.94 14.254 0 1 .001.087 1.427 1.94 14.254 0 1-.002.087 1.427 1.94 14.254 0 1-.005.089 1.427 1.94 14.254 0 1-.009.088 1.427 1.94 14.254 0 1-.011.089 1.427 1.94 14.254 0 1-.015.087 1.427 1.94 14.254 0 1-.018.088 1.427 1.94 14.254 0 1-.02.088 1.427 1.94 14.254 0 1-.074.242 1.427 1.94 14.254 0 1-.097.232 1.427 1.94 14.254 0 1-.117.218 1.427 1.94 14.254 0 1-.136.2 1.427 1.94 14.254 0 1-.152.18 1.427 1.94 14.254 0 1-.167.154 1.427 1.94 14.254 0 1-.177.128 1.427 1.94 14.254 0 1-.185.098 1.427 1.94 14.254 0 1-.19.067 1.427 1.94 14.254 0 1-.191.036 1.427 1.94 14.254 0 1-.19.003 1.427 1.94 14.254 0 1-.185-.03 1.427 1.94 14.254 0 1-.176-.062 1.427 1.94 14.254 0 1-.166-.093 1.427 1.94 14.254 0 1-.15-.122 1.427 1.94 14.254 0 1-.135-.15 1.427 1.94 14.254 0 1-.116-.175 1.427 1.94 14.254 0 1-.095-.197 1.427 1.94 14.254 0 1-.072-.215 1.427 1.94 14.254 0 1-.049-.23 1.427 1.94 14.254 0 1-.024-.241 1.427 1.94 14.254 0 1 .001-.247 1.427 1.94 14.254 0 1 .026-.25 1.427 1.94 14.254 0 1 .05-.25 1.427 1.94 14.254 0 1 .075-.242 1.427 1.94 14.254 0 1 .097-.232 1.427 1.94 14.254 0 1 .117-.218 1.427 1.94 14.254 0 1 .136-.2 1.427 1.94 14.254 0 1 .152-.179 1.427 1.94 14.254 0 1 .167-.154 1.427 1.94 14.254 0 1 .177-.128 1.427 1.94 14.254 0 1 .185-.099 1.427 1.94 14.254 0 1 .19-.067 1.427 1.94 14.254 0 1 .191-.036 1.427 1.94 14.254 0 1 .19-.003m7.689 0a1.94 1.427 75.746 0 1 .19.003 1.94 1.427 75.746 0 1 .19.036 1.94 1.427 75.746 0 1 .19.067 1.94 1.427 75.746 0 1 .186.099 1.94 1.427 75.746 0 1 .177.128 1.94 1.427 75.746 0 1 .166.154 1.94 1.427 75.746 0 1 .153.179 1.94 1.427 75.746 0 1 .136.2 1.94 1.427 75.746 0 1 .117.218 1.94 1.427 75.746 0 1 .096.232 1.94 1.427 75.746 0 1 .075.243 1.94 1.427 75.746 0 1 .02.087 1.94 1.427 75.746 0 1 .018.088 1.94 1.427 75.746 0 1 .015.088 1.94 1.427 75.746 0 1 .011.088 1.94 1.427 75.746 0 1 .008.089 1.94 1.427 75.746 0 1 .006.088 1.94 1.427 75.746 0 1 .002.087 1.94 1.427 75.746 0 1 0 .088 1.94 1.427 75.746 0 1-.005.086 1.94 1.427 75.746 0 1-.007.086 1.94 1.427 75.746 0 1-.01.084 1.94 1.427 75.746 0 1-.013.083 1.94 1.427 75.746 0 1-.017.082 1.94 1.427 75.746 0 1-.02.08 1.94 1.427 75.746 0 1-.022.078 1.94 1.427 75.746 0 1-.025.076 1.94 1.427 75.746 0 1-.029.074 1.94 1.427 75.746 0 1-.03.072 1.94 1.427 75.746 0 1-.003.005.653.527 0 0 1 .023 0 .653.527 0 0 1 .03.002.653.527 0 0 1 .032.004.653.527 0 0 1 .03.004.653.527 0 0 1 .03.005.653.527 0 0 1 .03.007.653.527 0 0 1 .03.007.653.527 0 0 1 .029.01.653.527 0 0 1 .029.009.653.527 0 0 1 .028.01.653.527 0 0 1 .027.013.653.527 0 0 1 .026.013.653.527 0 0 1 .026.014.653.527 0 0 1 .025.015.653.527 0 0 1 .024.016.653.527 0 0 1 .023.017.653.527 0 0 1 .022.018.653.527 0 0 1 .021.018.653.527 0 0 1 .02.02.653.527 0 0 1 .018.02.653.527 0 0 1 .018.02.653.527 0 0 1 .016.022.653.527 0 0 1 .015.022.653.527 0 0 1 .013.022.653.527 0 0 1 .013.023.653.527 0 0 1 .01.024.653.527 0 0 1 .01.024.653.527 0 0 1 .008.024.653.527 0 0 1 .007.024.653.527 0 0 1 .005.025.653.527 0 0 1 .004.025.653.527 0 0 1 .002.025.653.527 0 0 1 0 .025.653.527 0 0 1 0 .025.653.527 0 0 1-.002.025.653.527 0 0 1-.004.025.653.527 0 0 1-.005.025.653.527 0 0 1-.007.025.653.527 0 0 1-.008.023.653.527 0 0 1-.01.025.653.527 0 0 1-.01.023.653.527 0 0 1-.013.023.653.527 0 0 1-.013.022.653.527 0 0 1-.015.023.653.527 0 0 1-.016.02.653.527 0 0 1-.018.022.653.527 0 0 1-.018.02.653.527 0 0 1-.02.02.653.527 0 0 1-.021.018.653.527 0 0 1-.022.017.653.527 0 0 1-.023.017.653.527 0 0 1-.024.016.653.527 0 0 1-.025.015.653.527 0 0 1-.026.014.653.527 0 0 1-.026.013.653.527 0 0 1-.027.012.653.527 0 0 1-.028.012.653.527 0 0 1-.03.01.653.527 0 0 1-.028.008.653.527 0 0 1-.03.007.653.527 0 0 1-.03.007.653.527 0 0 1-.03.005.653.527 0 0 1-.03.004.653.527 0 0 1-.031.003.653.527 0 0 1-.031.003.653.527 0 0 1-.031 0 .653.527 0 0 1-.094-.006.653.527 0 0 1-.09-.016.653.527 0 0 1-.088-.025.653.527 0 0 1-.082-.037.653.527 0 0 1-.074-.045.653.527 0 0 1-.067-.053.653.527 0 0 1-.055-.06.653.527 0 0 1-.045-.066.653.527 0 0 1-.032-.07.653.527 0 0 1-.003-.012 1.94 1.427 75.746 0 1-.04.018 1.94 1.427 75.746 0 1-.063.022 1.94 1.427 75.746 0 1-.063.018 1.94 1.427 75.746 0 1-.185.03 1.94 1.427 75.746 0 1-.19-.003 1.94 1.427 75.746 0 1-.191-.036 1.94 1.427 75.746 0 1-.19-.067 1.94 1.427 75.746 0 1-.185-.098 1.94 1.427 75.746 0 1-.178-.128 1.94 1.427 75.746 0 1-.166-.155 1.94 1.427 75.746 0 1-.152-.178 1.94 1.427 75.746 0 1-.136-.2 1.94 1.427 75.746 0 1-.118-.219 1.94 1.427 75.746 0 1-.096-.232 1.94 1.427 75.746 0 1-.074-.242 1.94 1.427 75.746 0 1-.05-.249 1.94 1.427 75.746 0 1-.027-.25 1.94 1.427 75.746 0 1 0-.248 1.94 1.427 75.746 0 1 .023-.24 1.94 1.427 75.746 0 1 .049-.23 1.94 1.427 75.746 0 1 .072-.216 1.94 1.427 75.746 0 1 .095-.196 1.94 1.427 75.746 0 1 .115-.175 1.94 1.427 75.746 0 1 .135-.15 1.94 1.427 75.746 0 1 .152-.123 1.94 1.427 75.746 0 1 .165-.093 1.94 1.427 75.746 0 1 .176-.062 1.94 1.427 75.746 0 1 .185-.03"/><g fill="none" stroke="#79cdee" stroke-linejoin="round" transform="translate(-2.722 44.03)"><path stroke-width=".265" d="M11.433.272c-2.373 0-4.512 1.4-4.79 2.9.278 1.502 2.417 2.902 4.79 2.902 2.007 0 4-1.092 5.035-2.26V7.03c-2.375.17-4.514 1.625-6.09 3.895-1.678 2.417-2.715 5.757-2.715 9.445 0 1.75.418 1.769-1.635 6.784-.208.507 2.61-.785 2.803-.288.37.953 1.304 3.11 3.14 4.789.214.195 1.014 1.26 1.303 1.938.403-.253.862-1.81 1.685-1.552a6.6 6.6 0 0 0 3.95 0c.822-.257 1.281 1.3 1.684 1.552.29-.677 1.089-1.743 1.302-1.938 1.837-1.68 2.772-3.836 3.141-4.79.192-.496 3.01.796 2.803.289-2.054-5.015-1.634-5.035-1.634-6.784 0-3.688-1.038-7.028-2.716-9.445-1.591-2.292-3.759-3.753-6.162-3.897V3.73c1.012 1.198 3.052 2.343 5.107 2.343 2.373 0 4.512-1.4 4.79-2.901-.278-1.5-2.417-2.9-4.79-2.9s-4.728 1.526-5.5 2.9c-.773-1.374-3.127-2.9-5.5-2.9Z"/><ellipse cx="16.822" cy="19.356" stroke-linecap="round" stroke-width=".221" paint-order="stroke markers fill" rx="1.427" ry="1.94" transform="rotate(-14.254)"/><ellipse cx="-16" cy="11.018" stroke-linecap="round" stroke-width=".221" paint-order="stroke markers fill" rx="1.427" ry="1.94" transform="rotate(14.254)scale(-1 1)"/></g><path fill="none" stroke="#79cdee" stroke-linejoin="round" stroke-width=".265" d="M52.3 39.181a1.94 1.427 75.746 0 0-.184.03 1.94 1.427 75.746 0 0-.176.062 1.94 1.427 75.746 0 0-.165.093 1.94 1.427 75.746 0 0-.152.123 1.94 1.427 75.746 0 0-.134.15 1.94 1.427 75.746 0 0-.116.175 1.94 1.427 75.746 0 0-.095.196 1.94 1.427 75.746 0 0-.072.216 1.94 1.427 75.746 0 0-.049.23 1.94 1.427 75.746 0 0-.023.24 1.94 1.427 75.746 0 0 0 .248 1.94 1.427 75.746 0 0 .026.25 1.94 1.427 75.746 0 0 .051.249 1.94 1.427 75.746 0 0 .074.242 1.94 1.427 75.746 0 0 .097.232 1.94 1.427 75.746 0 0 .117.218 1.94 1.427 75.746 0 0 .136.2 1.94 1.427 75.746 0 0 .152.18 1.94 1.427 75.746 0 0 .167.154 1.94 1.427 75.746 0 0 .177.128 1.94 1.427 75.746 0 0 .185.098 1.94 1.427 75.746 0 0 .19.067 1.94 1.427 75.746 0 0 .191.036 1.94 1.427 75.746 0 0 .19.003 1.94 1.427 75.746 0 0 .185-.03 1.94 1.427 75.746 0 0 .063-.018 1.94 1.427 75.746 0 0 .063-.022 1.94 1.427 75.746 0 0 .06-.026 1.94 1.427 75.746 0 0 .06-.03 1.94 1.427 75.746 0 0 .058-.034 1.94 1.427 75.746 0 0 .056-.038 1.94 1.427 75.746 0 0 .054-.041 1.94 1.427 75.746 0 0 .053-.044 1.94 1.427 75.746 0 0 .05-.049 1.94 1.427 75.746 0 0 .05-.051 1.94 1.427 75.746 0 0 .045-.055 1.94 1.427 75.746 0 0 .044-.058 1.94 1.427 75.746 0 0 .042-.061 1.94 1.427 75.746 0 0 .039-.064 1.94 1.427 75.746 0 0 .036-.067 1.94 1.427 75.746 0 0 .034-.07 1.94 1.427 75.746 0 0 .03-.07 1.94 1.427 75.746 0 0 .029-.075 1.94 1.427 75.746 0 0 .025-.076 1.94 1.427 75.746 0 0 .023-.078 1.94 1.427 75.746 0 0 .02-.08 1.94 1.427 75.746 0 0 .016-.082 1.94 1.427 75.746 0 0 .013-.083 1.94 1.427 75.746 0 0 .01-.084 1.94 1.427 75.746 0 0 .007-.086 1.94 1.427 75.746 0 0 .004-.086 1.94 1.427 75.746 0 0 .001-.088 1.94 1.427 75.746 0 0-.002-.087 1.94 1.427 75.746 0 0-.006-.088 1.94 1.427 75.746 0 0-.008-.089 1.94 1.427 75.746 0 0-.011-.088 1.94 1.427 75.746 0 0-.015-.088 1.94 1.427 75.746 0 0-.017-.088 1.94 1.427 75.746 0 0-.02-.087 1.94 1.427 75.746 0 0-.075-.242 1.94 1.427 75.746 0 0-.097-.233 1.94 1.427 75.746 0 0-.117-.218 1.94 1.427 75.746 0 0-.136-.2 1.94 1.427 75.746 0 0-.153-.179 1.94 1.427 75.746 0 0-.166-.154 1.94 1.427 75.746 0 0-.177-.128 1.94 1.427 75.746 0 0-.185-.099 1.94 1.427 75.746 0 0-.19-.067 1.94 1.427 75.746 0 0-.192-.036 1.94 1.427 75.746 0 0-.19-.003zm-7.687 0a1.427 1.94 14.254 0 0-.19.003 1.427 1.94 14.254 0 0-.192.036 1.427 1.94 14.254 0 0-.19.067 1.427 1.94 14.254 0 0-.184.099 1.427 1.94 14.254 0 0-.178.128 1.427 1.94 14.254 0 0-.166.154 1.427 1.94 14.254 0 0-.153.179 1.427 1.94 14.254 0 0-.135.2 1.427 1.94 14.254 0 0-.118.218 1.427 1.94 14.254 0 0-.096.233 1.427 1.94 14.254 0 0-.075.242 1.427 1.94 14.254 0 0-.05.248 1.427 1.94 14.254 0 0-.026.25 1.427 1.94 14.254 0 0-.001.248 1.427 1.94 14.254 0 0 .024.24 1.427 1.94 14.254 0 0 .049.23 1.427 1.94 14.254 0 0 .072.216 1.427 1.94 14.254 0 0 .094.197 1.427 1.94 14.254 0 0 .116.175 1.427 1.94 14.254 0 0 .135.15 1.427 1.94 14.254 0 0 .151.122 1.427 1.94 14.254 0 0 .165.093 1.427 1.94 14.254 0 0 .177.062 1.427 1.94 14.254 0 0 .185.03 1.427 1.94 14.254 0 0 .19-.003 1.427 1.94 14.254 0 0 .19-.036 1.427 1.94 14.254 0 0 .19-.067 1.427 1.94 14.254 0 0 .186-.098 1.427 1.94 14.254 0 0 .177-.128 1.427 1.94 14.254 0 0 .166-.155 1.427 1.94 14.254 0 0 .153-.178 1.427 1.94 14.254 0 0 .136-.2 1.427 1.94 14.254 0 0 .117-.219 1.427 1.94 14.254 0 0 .097-.232 1.427 1.94 14.254 0 0 .073-.242 1.427 1.94 14.254 0 0 .021-.088 1.427 1.94 14.254 0 0 .018-.088 1.427 1.94 14.254 0 0 .014-.087 1.427 1.94 14.254 0 0 .012-.089 1.427 1.94 14.254 0 0 .008-.088 1.427 1.94 14.254 0 0 .006-.088 1.427 1.94 14.254 0 0 .002-.088 1.427 1.94 14.254 0 0 0-.087 1.427 1.94 14.254 0 0-.005-.086 1.427 1.94 14.254 0 0-.007-.086 1.427 1.94 14.254 0 0-.01-.084 1.427 1.94 14.254 0 0-.014-.084 1.427 1.94 14.254 0 0-.017-.081 1.427 1.94 14.254 0 0-.019-.08 1.427 1.94 14.254 0 0-.022-.078 1.427 1.94 14.254 0 0-.026-.076 1.427 1.94 14.254 0 0-.028-.075 1.427 1.94 14.254 0 0-.03-.071 1.427 1.94 14.254 0 0-.034-.07 1.427 1.94 14.254 0 0-.037-.066 1.427 1.94 14.254 0 0-.039-.064 1.427 1.94 14.254 0 0-.041-.061 1.427 1.94 14.254 0 0-.044-.058 1.427 1.94 14.254 0 0-.046-.055 1.427 1.94 14.254 0 0-.049-.051 1.427 1.94 14.254 0 0-.05-.049 1.427 1.94 14.254 0 0-.053-.044 1.427 1.94 14.254 0 0-.055-.042 1.427 1.94 14.254 0 0-.056-.037 1.427 1.94 14.254 0 0-.058-.034 1.427 1.94 14.254 0 0-.06-.03 1.427 1.94 14.254 0 0-.06-.026 1.427 1.94 14.254 0 0-.062-.023 1.427 1.94 14.254 0 0-.064-.018 1.427 1.94 14.254 0 0-.184-.03z"/><path fill="none" stroke="#79cdee" stroke-linejoin="round" stroke-width=".265" d="M42.958 26.745c-2.373 0-4.513 1.4-4.791 2.901.278 1.5 2.418 2.9 4.79 2.9 2.008 0 4.001-1.091 5.036-2.26v3.218c-2.375.17-4.515 1.625-6.09 3.895-1.678 2.417-2.716 5.757-2.716 9.445 0 1.75.419 1.769-1.635 6.784-.207.507 2.611-.785 2.803-.288.37.953 1.304 3.11 3.14 4.789.214.195 1.014 1.26 1.304 1.938.402-.253.862-1.809 1.684-1.552a6.6 6.6 0 0 0 3.95 0c.822-.257 1.282 1.3 1.684 1.552.29-.677 1.09-1.743 1.303-1.938 1.836-1.68 2.771-3.836 3.14-4.79.193-.496 3.011.796 2.804.289-2.054-5.015-1.635-5.035-1.635-6.784 0-3.688-1.038-7.028-2.716-9.445-1.59-2.292-3.758-3.753-6.161-3.897v-3.298c1.012 1.198 3.052 2.343 5.106 2.343 2.374 0 4.513-1.4 4.791-2.901-.278-1.5-2.417-2.9-4.79-2.9s-4.729 1.526-5.501 2.9c-.773-1.374-3.127-2.9-5.5-2.9zm1.655 12.436a1.427 1.94 14.254 0 1 .184.03 1.427 1.94 14.254 0 1 .064.018 1.427 1.94 14.254 0 1 .062.023 1.427 1.94 14.254 0 1 .06.026 1.427 1.94 14.254 0 1 .06.03 1.427 1.94 14.254 0 1 .058.034 1.427 1.94 14.254 0 1 .056.037 1.427 1.94 14.254 0 1 .055.042 1.427 1.94 14.254 0 1 .053.044 1.427 1.94 14.254 0 1 .05.049 1.427 1.94 14.254 0 1 .048.05 1.427 1.94 14.254 0 1 .047.056 1.427 1.94 14.254 0 1 .044.058 1.427 1.94 14.254 0 1 .041.06 1.427 1.94 14.254 0 1 .039.065 1.427 1.94 14.254 0 1 .037.066 1.427 1.94 14.254 0 1 .033.07 1.427 1.94 14.254 0 1 .031.071 1.427 1.94 14.254 0 1 .028.075 1.427 1.94 14.254 0 1 .025.076 1.427 1.94 14.254 0 1 .023.078 1.427 1.94 14.254 0 1 .02.08 1.427 1.94 14.254 0 1 .016.081 1.427 1.94 14.254 0 1 .013.084 1.427 1.94 14.254 0 1 .01.084 1.427 1.94 14.254 0 1 .008.086 1.427 1.94 14.254 0 1 .004.086 1.427 1.94 14.254 0 1 0 .087 1.427 1.94 14.254 0 1-.002.088 1.427 1.94 14.254 0 1-.005.088 1.427 1.94 14.254 0 1-.008.088 1.427 1.94 14.254 0 1-.012.089 1.427 1.94 14.254 0 1-.014.087 1.427 1.94 14.254 0 1-.018.088 1.427 1.94 14.254 0 1-.02.088 1.427 1.94 14.254 0 1-.075.242 1.427 1.94 14.254 0 1-.096.232 1.427 1.94 14.254 0 1-.118.218 1.427 1.94 14.254 0 1-.135.2 1.427 1.94 14.254 0 1-.153.18 1.427 1.94 14.254 0 1-.166.154 1.427 1.94 14.254 0 1-.178.128 1.427 1.94 14.254 0 1-.185.098 1.427 1.94 14.254 0 1-.19.067 1.427 1.94 14.254 0 1-.19.036 1.427 1.94 14.254 0 1-.19.003 1.427 1.94 14.254 0 1-.186-.03 1.427 1.94 14.254 0 1-.176-.062 1.427 1.94 14.254 0 1-.165-.093 1.427 1.94 14.254 0 1-.151-.122 1.427 1.94 14.254 0 1-.135-.15 1.427 1.94 14.254 0 1-.116-.175 1.427 1.94 14.254 0 1-.094-.197 1.427 1.94 14.254 0 1-.073-.215 1.427 1.94 14.254 0 1-.048-.23 1.427 1.94 14.254 0 1-.024-.24 1.427 1.94 14.254 0 1 0-.248 1.427 1.94 14.254 0 1 .026-.25 1.427 1.94 14.254 0 1 .051-.25 1.427 1.94 14.254 0 1 .074-.242 1.427 1.94 14.254 0 1 .097-.232 1.427 1.94 14.254 0 1 .117-.218 1.427 1.94 14.254 0 1 .136-.2 1.427 1.94 14.254 0 1 .153-.179 1.427 1.94 14.254 0 1 .166-.154 1.427 1.94 14.254 0 1 .177-.128 1.427 1.94 14.254 0 1 .185-.099 1.427 1.94 14.254 0 1 .19-.067 1.427 1.94 14.254 0 1 .192-.036 1.427 1.94 14.254 0 1 .19-.003zm7.688 0a1.94 1.427 75.746 0 1 .19.003 1.94 1.427 75.746 0 1 .191.036 1.94 1.427 75.746 0 1 .19.067 1.94 1.427 75.746 0 1 .185.099 1.94 1.427 75.746 0 1 .177.128 1.94 1.427 75.746 0 1 .167.154 1.94 1.427 75.746 0 1 .152.179 1.94 1.427 75.746 0 1 .136.2 1.94 1.427 75.746 0 1 .117.218 1.94 1.427 75.746 0 1 .097.233 1.94 1.427 75.746 0 1 .074.242 1.94 1.427 75.746 0 1 .021.087 1.94 1.427 75.746 0 1 .018.088 1.94 1.427 75.746 0 1 .014.088 1.94 1.427 75.746 0 1 .011.088 1.94 1.427 75.746 0 1 .009.089 1.94 1.427 75.746 0 1 .005.088 1.94 1.427 75.746 0 1 .003.087 1.94 1.427 75.746 0 1-.001.088 1.94 1.427 75.746 0 1-.005.086 1.94 1.427 75.746 0 1-.007.086 1.94 1.427 75.746 0 1-.01.084 1.94 1.427 75.746 0 1-.013.083 1.94 1.427 75.746 0 1-.017.082 1.94 1.427 75.746 0 1-.02.08 1.94 1.427 75.746 0 1-.021.078 1.94 1.427 75.746 0 1-.026.076 1.94 1.427 75.746 0 1-.028.074 1.94 1.427 75.746 0 1-.03.072 1.94 1.427 75.746 0 1-.035.07 1.94 1.427 75.746 0 1-.036.066 1.94 1.427 75.746 0 1-.04.064 1.94 1.427 75.746 0 1-.04.06 1.94 1.427 75.746 0 1-.044.059 1.94 1.427 75.746 0 1-.046.055 1.94 1.427 75.746 0 1-.05.051 1.94 1.427 75.746 0 1-.05.049 1.94 1.427 75.746 0 1-.052.044 1.94 1.427 75.746 0 1-.055.041 1.94 1.427 75.746 0 1-.056.038 1.94 1.427 75.746 0 1-.058.034 1.94 1.427 75.746 0 1-.06.03 1.94 1.427 75.746 0 1-.06.026 1.94 1.427 75.746 0 1-.063.022 1.94 1.427 75.746 0 1-.063.018 1.94 1.427 75.746 0 1-.185.03 1.94 1.427 75.746 0 1-.19-.003 1.94 1.427 75.746 0 1-.19-.036 1.94 1.427 75.746 0 1-.19-.067 1.94 1.427 75.746 0 1-.186-.098 1.94 1.427 75.746 0 1-.177-.128 1.94 1.427 75.746 0 1-.167-.155 1.94 1.427 75.746 0 1-.152-.178 1.94 1.427 75.746 0 1-.136-.2 1.94 1.427 75.746 0 1-.117-.219 1.94 1.427 75.746 0 1-.097-.232 1.94 1.427 75.746 0 1-.074-.242 1.94 1.427 75.746 0 1-.05-.249 1.94 1.427 75.746 0 1-.026-.25 1.94 1.427 75.746 0 1-.001-.248 1.94 1.427 75.746 0 1 .024-.24 1.94 1.427 75.746 0 1 .048-.23 1.94 1.427 75.746 0 1 .072-.216 1.94 1.427 75.746 0 1 .096-.196 1.94 1.427 75.746 0 1 .115-.175 1.94 1.427 75.746 0 1 .135-.15 1.94 1.427 75.746 0 1 .151-.123 1.94 1.427 75.746 0 1 .165-.093 1.94 1.427 75.746 0 1 .177-.062 1.94 1.427 75.746 0 1 .184-.03zm.947-49.76c-2.374 0-4.513 1.4-4.791 2.9.278 1.501 2.417 2.901 4.79 2.901 2.008 0 4-1.091 5.036-2.26v3.218c-2.375.17-4.515 1.625-6.09 3.895-1.678 2.417-2.716 5.756-2.716 9.445 0 1.75.419 1.769-1.635 6.784-.208.506 2.611-.785 2.803-.289.37.954 1.304 3.11 3.14 4.79.214.195 1.014 1.26 1.303 1.938.403-.253.863-1.81 1.685-1.552a6.6 6.6 0 0 0 3.95 0c.822-.257 1.281 1.3 1.684 1.552.29-.677 1.09-1.743 1.303-1.938 1.836-1.68 2.771-3.836 3.14-4.79.193-.496 3.01.795 2.803.289-2.053-5.015-1.634-5.035-1.634-6.784 0-3.689-1.038-7.028-2.716-9.445-1.59-2.293-3.758-3.753-6.162-3.898V-7.12c1.012 1.2 3.052 2.343 5.107 2.343 2.373 0 4.512-1.4 4.791-2.9-.279-1.5-2.418-2.9-4.79-2.9-2.374 0-4.729 1.526-5.501 2.9-.773-1.374-3.127-2.9-5.5-2.9zm1.654 12.436a1.427 1.94 14.254 0 1 .185.03 1.427 1.94 14.254 0 1 .063.018 1.427 1.94 14.254 0 1 .062.022 1.427 1.94 14.254 0 1 .061.027 1.427 1.94 14.254 0 1 .06.03 1.427 1.94 14.254 0 1 .058.033 1.427 1.94 14.254 0 1 .056.038 1.427 1.94 14.254 0 1 .055.041 1.427 1.94 14.254 0 1 .053.045 1.427 1.94 14.254 0 1 .05.048 1.427 1.94 14.254 0 1 .048.052 1.427 1.94 14.254 0 1 .047.055 1.427 1.94 14.254 0 1 .044.058 1.427 1.94 14.254 0 1 .041.06 1.427 1.94 14.254 0 1 .039.065 1.427 1.94 14.254 0 1 .037.066 1.427 1.94 14.254 0 1 .033.07 1.427 1.94 14.254 0 1 .031.071 1.427 1.94 14.254 0 1 .028.074 1.427 1.94 14.254 0 1 .025.076 1.427 1.94 14.254 0 1 .023.078 1.427 1.94 14.254 0 1 .02.08 1.427 1.94 14.254 0 1 .016.082 1.427 1.94 14.254 0 1 .013.083 1.427 1.94 14.254 0 1 .01.085 1.427 1.94 14.254 0 1 .008.085 1.427 1.94 14.254 0 1 .004.087 1.427 1.94 14.254 0 1 0 .087 1.427 1.94 14.254 0 1-.002.087 1.427 1.94 14.254 0 1-.005.089 1.427 1.94 14.254 0 1-.008.088 1.427 1.94 14.254 0 1-.012.088 1.427 1.94 14.254 0 1-.015.088 1.427 1.94 14.254 0 1-.017.088 1.427 1.94 14.254 0 1-.02.087 1.427 1.94 14.254 0 1-.075.243 1.427 1.94 14.254 0 1-.096.232 1.427 1.94 14.254 0 1-.118.218 1.427 1.94 14.254 0 1-.136.2 1.427 1.94 14.254 0 1-.152.18 1.427 1.94 14.254 0 1-.166.154 1.427 1.94 14.254 0 1-.178.127 1.427 1.94 14.254 0 1-.185.1 1.427 1.94 14.254 0 1-.19.066 1.427 1.94 14.254 0 1-.191.036 1.427 1.94 14.254 0 1-.19.003 1.427 1.94 14.254 0 1-.185-.03 1.427 1.94 14.254 0 1-.176-.062 1.427 1.94 14.254 0 1-.165-.093 1.427 1.94 14.254 0 1-.151-.122 1.427 1.94 14.254 0 1-.135-.15 1.427 1.94 14.254 0 1-.116-.175 1.427 1.94 14.254 0 1-.094-.197 1.427 1.94 14.254 0 1-.073-.215 1.427 1.94 14.254 0 1-.048-.23 1.427 1.94 14.254 0 1-.025-.241 1.427 1.94 14.254 0 1 .001-.248 1.427 1.94 14.254 0 1 .026-.25 1.427 1.94 14.254 0 1 .05-.248 1.427 1.94 14.254 0 1 .075-.243 1.427 1.94 14.254 0 1 .097-.232 1.427 1.94 14.254 0 1 .117-.218 1.427 1.94 14.254 0 1 .136-.2 1.427 1.94 14.254 0 1 .153-.18 1.427 1.94 14.254 0 1 .166-.154 1.427 1.94 14.254 0 1 .177-.127 1.427 1.94 14.254 0 1 .185-.099 1.427 1.94 14.254 0 1 .19-.067 1.427 1.94 14.254 0 1 .192-.036 1.427 1.94 14.254 0 1 .19-.003zm7.689 0a1.94 1.427 75.746 0 1 .19.003 1.94 1.427 75.746 0 1 .191.036 1.94 1.427 75.746 0 1 .19.067 1.94 1.427 75.746 0 1 .185.099 1.94 1.427 75.746 0 1 .177.127 1.94 1.427 75.746 0 1 .166.155 1.94 1.427 75.746 0 1 .153.179 1.94 1.427 75.746 0 1 .136.2 1.94 1.427 75.746 0 1 .117.218 1.94 1.427 75.746 0 1 .097.232 1.94 1.427 75.746 0 1 .074.243 1.94 1.427 75.746 0 1 .02.087 1.94 1.427 75.746 0 1 .018.088 1.94 1.427 75.746 0 1 .015.088 1.94 1.427 75.746 0 1 .011.088 1.94 1.427 75.746 0 1 .009.088 1.94 1.427 75.746 0 1 .005.089 1.94 1.427 75.746 0 1 .002.087 1.94 1.427 75.746 0 1 0 .087 1.94 1.427 75.746 0 1-.005.087 1.94 1.427 75.746 0 1-.007.086 1.94 1.427 75.746 0 1-.01.084 1.94 1.427 75.746 0 1-.013.083 1.94 1.427 75.746 0 1-.017.082 1.94 1.427 75.746 0 1-.02.08 1.94 1.427 75.746 0 1-.022.078 1.94 1.427 75.746 0 1-.025.076 1.94 1.427 75.746 0 1-.028.074 1.94 1.427 75.746 0 1-.03.071 1.94 1.427 75.746 0 1-.035.07 1.94 1.427 75.746 0 1-.036.066 1.94 1.427 75.746 0 1-.04.064 1.94 1.427 75.746 0 1-.04.061 1.94 1.427 75.746 0 1-.045.058 1.94 1.427 75.746 0 1-.046.056 1.94 1.427 75.746 0 1-.048.05 1.94 1.427 75.746 0 1-.05.05 1.94 1.427 75.746 0 1-.054.044 1.94 1.427 75.746 0 1-.054.041 1.94 1.427 75.746 0 1-.056.038 1.94 1.427 75.746 0 1-.058.033 1.94 1.427 75.746 0 1-.06.03 1.94 1.427 75.746 0 1-.06.027 1.94 1.427 75.746 0 1-.063.022 1.94 1.427 75.746 0 1-.063.018 1.94 1.427 75.746 0 1-.185.03 1.94 1.427 75.746 0 1-.19-.003 1.94 1.427 75.746 0 1-.19-.036 1.94 1.427 75.746 0 1-.191-.067 1.94 1.427 75.746 0 1-.185-.099 1.94 1.427 75.746 0 1-.177-.127 1.94 1.427 75.746 0 1-.167-.155 1.94 1.427 75.746 0 1-.152-.179 1.94 1.427 75.746 0 1-.136-.2 1.94 1.427 75.746 0 1-.117-.218 1.94 1.427 75.746 0 1-.097-.232 1.94 1.427 75.746 0 1-.074-.243 1.94 1.427 75.746 0 1-.05-.248 1.94 1.427 75.746 0 1-.026-.25 1.94 1.427 75.746 0 1-.001-.248 1.94 1.427 75.746 0 1 .023-.24 1.94 1.427 75.746 0 1 .049-.23 1.94 1.427 75.746 0 1 .072-.216 1.94 1.427 75.746 0 1 .095-.196 1.94 1.427 75.746 0 1 .116-.176 1.94 1.427 75.746 0 1 .135-.15 1.94 1.427 75.746 0 1 .151-.122 1.94 1.427 75.746 0 1 .165-.093 1.94 1.427 75.746 0 1 .177-.062 1.94 1.427 75.746 0 1 .184-.03z"/><path fill="none" stroke="#79cdee" stroke-linecap="round" stroke-linejoin="round" stroke-width=".273" d="M3.697-4.449c0 .465-.614.841-1.37.841S.736-4.46.736-4.46s.833-.83 1.59-.83c.756 0 1.37.378 1.37.842" paint-order="stroke markers fill"/><path fill="#79cdee" d="M26.582 5.662a.25.25 0 0 0-.248.248v2.295a.25.25 0 0 0 .248.248.25.25 0 0 0 .25-.248V5.91a.25.25 0 0 0-.25-.248m.001.248v2.295" color="#000" paint-order="stroke markers fill" style="-inkscape-stroke:none" transform="translate(-1.232 2.34)"/><path fill="#79cdee" d="M26.474 8.003a.33.33 0 0 0-.33.332v4.064a.33.33 0 0 0 .33.33.33.33 0 0 0 .332-.33V8.335a.33.33 0 0 0-.332-.332" color="#000" paint-order="stroke markers fill" style="-inkscape-stroke:none"/><path fill="#79cdee" d="M29.117 5.693a.3.3 0 0 0-.297.3v3.292a.3.3 0 0 0 .297.299.3.3 0 0 0 .299-.299V5.992a.3.3 0 0 0-.299-.299m0 .299v3.294" color="#000" paint-order="stroke markers fill" style="-inkscape-stroke:none" transform="translate(-1.471 2.31)"/><path fill="#79cdee" d="M26.582 5.662a.25.25 0 0 0-.248.248v2.295a.25.25 0 0 0 .248.248.25.25 0 0 0 .25-.248V5.91a.25.25 0 0 0-.25-.248m.001.248v2.295" color="#000" paint-order="stroke markers fill" style="-inkscape-stroke:none" transform="translate(-18.865 -12.141)"/><path fill="#79cdee" d="M26.474 8.003a.33.33 0 0 0-.33.332v4.064a.33.33 0 0 0 .33.33.33.33 0 0 0 .332-.33V8.335a.33.33 0 0 0-.332-.332" color="#000" paint-order="stroke markers fill" style="-inkscape-stroke:none" transform="translate(-17.633 -14.482)"/><path fill="#79cdee" d="M29.117 5.693a.3.3 0 0 0-.297.3v3.292a.3.3 0 0 0 .297.299.3.3 0 0 0 .299-.299V5.992a.3.3 0 0 0-.299-.299m0 .299v3.294" color="#000" paint-order="stroke markers fill" style="-inkscape-stroke:none" transform="translate(-19.105 -12.173)"/></svg>