<svg xmlns="http://www.w3.org/2000/svg" xml:space="preserve" width="512" height="512" viewBox="0 0 135.467 135.467"><defs><path id="reuse-0" fill="none" stroke="#f7f2f0" d="M67.756 56.442v2.548m-.023 17.487v2.547m11.292-11.279h-2.548m-17.487-.023h-2.547m19.267 8.004-1.802-1.802M61.559 61.542l-1.801-1.8M59.74 75.71l1.803-1.802M73.924 61.56l1.801-1.802"/></defs><g paint-order="stroke markers fill" transform="translate(-89.083 20.325)"><circle cx="67.733" cy="67.733" r="5.994" fill="#f7f2f0"/><use stroke-linecap="round" stroke-linejoin="round" stroke-width="1.058" href="#reuse-0"/></g><g paint-order="stroke markers fill" transform="translate(-94.744 55.072)"><circle cx="67.733" cy="67.733" r="5.994" fill="#f7f2f0"/><use stroke-linecap="round" stroke-linejoin="round" stroke-width="2.117" href="#reuse-0"/></g><g fill="#f7f2f0"><path d="M28.367 13.768c-2.374 0-4.513 1.4-4.791 2.9.278 1.501 2.417 2.901 4.79 2.901 2.008 0 4-1.092 5.036-2.26v3.218c-2.375.17-4.515 1.625-6.09 3.895-1.678 2.417-2.716 5.756-2.716 9.445 0 1.749.419 1.769-1.635 6.784-.207.506 2.611-.785 2.803-.289.37.954 1.305 3.11 3.141 4.79.214.195 1.013 1.26 1.302 1.938.403-.253.863-1.81 1.685-1.552a6.6 6.6 0 0 0 1.975.304c.678 0 1.339-.105 1.975-.304.823-.257 1.282 1.299 1.685 1.552.289-.677 1.088-1.743 1.302-1.938 1.836-1.68 2.771-3.836 3.14-4.79.193-.496 3.01.795 2.803.289-2.053-5.015-1.634-5.035-1.634-6.784 0-3.689-1.037-7.028-2.715-9.445-1.591-2.293-3.759-3.753-6.162-3.898v-3.298c1.012 1.2 3.051 2.343 5.106 2.343 2.373 0 4.513-1.4 4.792-2.9-.279-1.5-2.419-2.9-4.792-2.9s-4.728 1.526-5.5 2.9l.015.025h-.03l.015-.025c-.772-1.374-3.127-2.9-5.5-2.9m66.45 16.466c-2.947 0-5.602 1.739-5.948 3.602.346 1.863 3.001 3.6 5.947 3.6 2.492 0 4.966-1.355 6.25-2.805v6.038h1.067v-6.141c1.257 1.488 3.789 2.908 6.34 2.908 2.946 0 5.602-1.737 5.947-3.6-.345-1.863-3.001-3.602-5.948-3.602-2.946 0-5.869 1.896-6.828 3.602l.019.03h-.037l.018-.03c-.958-1.706-3.881-3.602-6.828-3.602M96.1 81.501c-2.373 0-4.512 1.4-4.79 2.902.278 1.5 2.417 2.9 4.79 2.9 2.007 0 4-1.092 5.034-2.26v3.217c-2.374.17-4.514 1.625-6.09 3.895-1.677 2.417-2.715 5.757-2.715 9.445 0 1.75.419 1.77-1.635 6.784-.207.507 2.611-.785 2.803-.288.37.953 1.304 3.11 3.141 4.79.213.194 1.014 1.26 1.303 1.937.403-.253.862-1.809 1.684-1.552a6.6 6.6 0 0 0 3.95 0c.822-.257 1.282 1.3 1.685 1.552.289-.677 1.089-1.743 1.302-1.938 1.837-1.68 2.772-3.836 3.14-4.79.193-.496 3.011.796 2.804.29-2.054-5.016-1.635-5.036-1.635-6.785 0-3.688-1.038-7.028-2.715-9.445-1.592-2.292-3.759-3.752-6.162-3.897V84.96c1.012 1.199 3.051 2.343 5.106 2.343 2.373 0 4.513-1.4 4.791-2.9-.278-1.501-2.418-2.902-4.791-2.902s-4.728 1.528-5.5 2.902l.015.024h-.03l.015-.024c-.772-1.374-3.127-2.902-5.5-2.902M27.04 98c-2.947 0-5.602 1.738-5.948 3.601.346 1.863 3.001 3.6 5.948 3.6 2.491 0 4.965-1.355 6.25-2.805v6.038h1.067v-6.141c1.256 1.488 3.788 2.909 6.339 2.909 2.946 0 5.602-1.738 5.948-3.601C46.298 99.738 43.642 98 40.696 98s-5.87 1.895-6.828 3.601l.018.031h-.037l.019-.031C32.908 99.895 29.986 98 27.04 98"/><path d="M67.756 55.385a1.06 1.06 0 0 0-1.059 1.057v2.548a1.06 1.06 0 0 0 1.06 1.059 1.06 1.06 0 0 0 1.057-1.059v-2.548a1.06 1.06 0 0 0-1.058-1.057m-7.998 3.298a1.06 1.06 0 0 0-.748.31 1.06 1.06 0 0 0 0 1.497l1.8 1.8a1.06 1.06 0 0 0 1.497 0 1.06 1.06 0 0 0 0-1.495l-1.801-1.803a1.06 1.06 0 0 0-.748-.31m15.967.017a1.06 1.06 0 0 0-.748.31l-1.801 1.8a1.06 1.06 0 0 0 0 1.497 1.06 1.06 0 0 0 1.496 0l1.8-1.801a1.06 1.06 0 0 0 0-1.496 1.06 1.06 0 0 0-.747-.31m-7.992 3.04a5.994 5.994 0 0 0-5.994 5.993 5.994 5.994 0 0 0 5.994 5.994 5.994 5.994 0 0 0 5.994-5.994 5.994 5.994 0 0 0-5.994-5.994m-11.291 4.924a1.06 1.06 0 0 0-1.057 1.058 1.06 1.06 0 0 0 1.057 1.06h2.548a1.06 1.06 0 0 0 1.059-1.06 1.06 1.06 0 0 0-1.059-1.058zm20.034.021a1.06 1.06 0 0 0-1.058 1.06 1.06 1.06 0 0 0 1.058 1.058h2.548a1.06 1.06 0 0 0 1.058-1.059 1.06 1.06 0 0 0-1.058-1.059zM61.543 72.85a1.06 1.06 0 0 0-.748.31l-1.803 1.8a1.06 1.06 0 0 0 0 1.497 1.06 1.06 0 0 0 1.498 0l1.8-1.8a1.06 1.06 0 0 0 0-1.497 1.06 1.06 0 0 0-.747-.31m12.365.016a1.06 1.06 0 0 0-.748.31 1.06 1.06 0 0 0 0 1.496l1.8 1.8a1.06 1.06 0 0 0 1.497 0 1.06 1.06 0 0 0 0-1.495l-1.8-1.801a1.06 1.06 0 0 0-.749-.31m-6.176 2.552a1.06 1.06 0 0 0-1.056 1.058v2.548a1.06 1.06 0 0 0 1.056 1.058 1.06 1.06 0 0 0 1.06-1.058v-2.548a1.06 1.06 0 0 0-1.06-1.058" paint-order="stroke markers fill"/></g></svg>