<svg xmlns="http://www.w3.org/2000/svg" width="128" height="128" viewBox="0 0 33.867 33.867"><path fill="#fcf9f7" d="M11.433.272c-2.373 0-4.512 1.4-4.79 2.901.278 1.5 2.417 2.9 4.79 2.9 2.007 0 4-1.091 5.035-2.26v3.218c-2.375.17-4.515 1.625-6.09 3.895-1.678 2.417-2.716 5.757-2.716 9.445 0 1.75.42 1.769-1.634 6.784-.208.506 2.61-.785 2.803-.288.369.953 1.304 3.11 3.14 4.789.214.195 1.014 1.26 1.303 1.938.403-.253.862-1.809 1.685-1.552a6.6 6.6 0 0 0 3.95 0c.822-.257 1.281 1.3 1.684 1.552.29-.677 1.089-1.743 1.302-1.938 1.837-1.68 2.772-3.836 3.141-4.79.192-.496 3.01.795 2.803.289-2.054-5.015-1.635-5.035-1.635-6.784 0-3.688-1.037-7.028-2.715-9.445-1.591-2.292-3.759-3.752-6.162-3.897V3.73c1.012 1.198 3.052 2.343 5.106 2.343 2.374 0 4.513-1.4 4.792-2.9-.279-1.501-2.418-2.902-4.792-2.902s-4.727 1.527-5.5 2.901l.015.025h-.03l.015-.025c-.772-1.374-3.127-2.9-5.5-2.9"/></svg>