<svg xmlns="http://www.w3.org/2000/svg" width="128" height="128" viewBox="0 0 33.867 33.867"><path fill="#79cdee" d="M-8.673 14.133a4.579 4.579 0 1 1-9.158 0 4.579 4.579 0 0 1 9.158 0"/><path fill="#fdb515" d="M-8.673 24.358a4.579 4.579 0 1 1-9.158 0 4.579 4.579 0 0 1 9.158 0"/><path fill="#fcf9f7" d="M-8.718 3.508a4.579 4.579 0 1 1-9.158 0 4.579 4.579 0 0 1 9.158 0"/><path fill="#79cdee" d="M-14.004-21.294c0-2.947 1.895-5.87 3.601-6.828 1.706.959 3.601 3.881 3.601 6.828 0 2.946-1.738 5.602-3.6 5.947-1.864-.345-3.602-3.001-3.602-5.947M-34.7-24.463c-2.946 0-5.602 1.738-5.947 3.6.345 1.864 3 3.602 5.947 3.602 2.492 0 4.966-1.356 6.25-2.806v6.038h1.067v-6.141c1.256 1.488 3.788 2.909 6.339 2.909 2.946 0 5.602-1.738 5.948-3.601-.346-1.863-3.002-3.601-5.948-3.601s-5.87 1.895-6.828 3.6l.019.032h-.038l.019-.031c-.959-1.706-3.882-3.601-6.828-3.601M-54.16-4.675a16.84 16.84 0 0 0-16.838 16.838 16.84 16.84 0 0 0 6.263 13.063c.062-.672-.009-1.17-.009-1.98 0-4.232 1.191-8.062 3.116-10.835 1.807-2.604 4.262-4.275 6.987-4.469V4.251c-1.187 1.34-3.474 2.593-5.776 2.593-2.723 0-5.177-1.606-5.497-3.328.32-1.722 2.774-3.328 5.497-3.328s5.423 1.752 6.31 3.328c.885-1.576 3.587-3.328 6.31-3.328s5.176 1.606 5.496 3.328c-.32 1.722-2.774 3.328-5.496 3.328-2.358 0-4.698-1.313-5.859-2.689V7.94c2.757.166 5.244 1.842 7.07 4.472 1.924 2.773 3.114 6.603 3.114 10.835 0 .794-.069 1.286-.014 1.938a16.84 16.84 0 0 0 6.163-13.021A16.84 16.84 0 0 0-54.16-4.675m.052 8.191-.017.028h.035zm24.607 58.757A16.84 16.84 0 0 0-46.339 79.11a16.84 16.84 0 0 0 6.263 13.064c.062-.672-.008-1.17-.008-1.98 0-4.232 1.19-8.063 3.115-10.836 1.808-2.603 4.262-4.274 6.987-4.468v-3.691c-1.187 1.34-3.474 2.592-5.776 2.592-2.723 0-5.177-1.605-5.496-3.327.32-1.722 2.773-3.328 5.496-3.328s5.424 1.752 6.31 3.328c.886-1.576 3.587-3.328 6.31-3.328s5.177 1.606 5.496 3.328c-.32 1.722-2.773 3.327-5.496 3.327-2.357 0-4.698-1.312-5.859-2.688v3.784c2.757.166 5.244 1.842 7.07 4.471 1.924 2.773 3.115 6.604 3.115 10.835 0 .795-.07 1.287-.014 1.939a16.84 16.84 0 0 0 6.163-13.022 16.84 16.84 0 0 0-16.838-16.837m.053 8.19-.017.03h.034zM11.433.272c-2.373 0-4.512 1.4-4.79 2.901.278 1.5 2.417 2.9 4.79 2.9 2.007 0 4-1.091 5.035-2.26v3.218c-2.375.17-4.515 1.625-6.09 3.895-1.678 2.417-2.716 5.757-2.716 9.445 0 1.75.42 1.769-1.634 6.784-.208.506 2.61-.785 2.803-.288.369.953 1.304 3.11 3.14 4.789.214.195 1.014 1.26 1.303 1.938.403-.253.862-1.809 1.685-1.552a6.6 6.6 0 0 0 3.95 0c.822-.257 1.281 1.3 1.684 1.552.29-.677 1.089-1.743 1.302-1.938 1.837-1.68 2.772-3.836 3.141-4.79.192-.496 3.01.795 2.803.289-2.054-5.015-1.635-5.035-1.635-6.784 0-3.688-1.037-7.028-2.715-9.445-1.591-2.292-3.759-3.752-6.162-3.897V3.73c1.012 1.198 3.052 2.343 5.106 2.343 2.374 0 4.513-1.4 4.792-2.9-.279-1.501-2.418-2.902-4.792-2.902s-4.727 1.527-5.5 2.901l.015.025h-.03l.015-.025c-.772-1.374-3.127-2.9-5.5-2.9"/></svg>