<svg xmlns="http://www.w3.org/2000/svg" width="24" height="24" viewBox="0 -960 960 960"><path d="M321.543-960c-68.374 0-129.997 40.341-138.022 83.576 8.025 43.234 69.648 83.564 138.022 83.564 57.82 0 115.242-31.46 145.05-65.108v92.69c-68.42 4.875-130.064 46.825-175.45 112.214-48.335 69.635-78.24 165.839-78.24 272.098 0 50.399 12.07 50.962-47.095 195.442-5.977 14.597 75.224-22.596 80.758-8.299 10.635 27.475 37.572 89.586 90.483 137.974C343.2-50.225 366.244-19.522 374.574 0c11.607-7.292 24.84-52.126 48.534-44.72 18.334 5.73 37.366 8.755 56.892 8.755s38.57-3.024 56.904-8.755C560.597-52.126 573.831-7.292 585.438 0c8.33-19.522 31.363-50.225 37.512-55.849 52.912-48.388 79.85-110.5 90.484-137.974 5.534-14.297 86.735 22.896 80.758 8.3-59.166-144.481-47.095-145.044-47.095-195.443 0-106.26-29.893-202.463-78.227-272.098-45.84-66.042-108.287-108.112-177.525-112.285v-95.017c29.155 34.539 87.916 67.506 147.112 67.506 68.374 0 130.01-40.33 138.034-83.564C768.466-919.66 706.83-960 638.457-960S502.25-916.011 480-876.424c.15.24.3.48.432.72h-.864c.15-.24.3-.48.432-.72C457.75-916.011 389.918-960 321.543-960"/></svg>