<svg xmlns="http://www.w3.org/2000/svg" width="1024" height="256" viewBox="0 0 270.933 67.733"><path fill="#79cdee" d="M82.13-28.495a4.579 4.579 0 1 1-9.157 0 4.579 4.579 0 0 1 9.158 0"/><path fill="#fdb515" d="M82.13-18.27a4.579 4.579 0 1 1-9.157 0 4.579 4.579 0 0 1 9.158 0"/><path fill="#fcf9f7" d="M82.086-39.12a4.579 4.579 0 1 1-9.158 0 4.579 4.579 0 0 1 9.158 0"/><path fill="#79cdee" d="M38.983-44.89c-2.946 0-5.602 1.739-5.947 3.602.345 1.863 3 3.6 5.947 3.6 2.492 0 4.966-1.355 6.25-2.805v3.994c-2.948.21-5.604 2.018-7.56 4.836-2.083 3-3.371 7.146-3.371 11.725 0 2.171.52 2.196-2.03 8.421-.257.63 3.242-.973 3.48-.357.459 1.184 1.62 3.86 3.9 5.945.264.242 1.257 1.565 1.616 2.407.5-.315 1.07-2.246 2.092-1.927a8.2 8.2 0 0 0 4.903 0c1.021-.32 1.591 1.612 2.092 1.927.358-.842 1.351-2.165 1.616-2.407 2.28-2.085 3.44-4.761 3.899-5.945.238-.616 3.737.986 3.48.357-2.55-6.225-2.03-6.25-2.03-8.421 0-4.58-1.288-8.725-3.37-11.725-1.976-2.846-4.666-4.659-7.65-4.839v-4.094c1.256 1.488 3.788 2.909 6.34 2.909 2.945 0 5.601-1.738 5.947-3.601-.346-1.863-3.002-3.601-5.948-3.601s-5.87 1.895-6.828 3.601l.019.031h-.037l.018-.031c-.959-1.706-3.882-3.601-6.828-3.601"/><path fill="#79cdee" stroke="#fff" stroke-linecap="round" stroke-linejoin="round" stroke-width="5.343" d="M-436.993 53.544c-3.718 0-7.07 2.194-7.506 4.545.437 2.351 3.788 4.544 7.506 4.544 3.144 0 6.267-1.71 7.888-3.54v5.04c-3.72.265-7.073 2.547-9.541 6.103-2.629 3.786-4.255 9.018-4.255 14.796 0 2.667.592 2.826-2.337 10.065.205-1.741-.59-2.781-2.411-3.101q-12.805-2.015-26.446-5.366-2.888-.509-3.395 2.38l-1.43 17.61q-.51 2.887 2.38 3.396l13.601 1.201q1.733.305 1.429 2.038l-.249 5.136q-.264 1.502-1.766 1.238l-4.668.132q-6.739.064-8.703 5.137-1.954 5.016.593 8.143 2.613 3.08 10.176 3.754 4.195.856 7.072-.602 2.886-1.517 3.615-4.306.416-2.368 2.843-1.94c2.223.202 4.27.467 6.176.78a24 24 0 0 1-.53 1.641q-1.74 4.815-3.75 6.426-2 1.554-1.04 3.21.949 1.716 7.311-3.655a72 72 0 0 0 6-5.67c.766.27 1.501.551 2.17.855q3.51 2.047 4.695.052 1.195-2.052-2.184-4.85-.38-.33-.776-.647c.26-.34.522-.678.772-1.02q4.372-5.9 8.099-17.273.508-2.887-2.38-3.395l-5.665-1.13c.546-.82 1.208-2.272 2.229-1.953.997.311 2.032.476 3.094.476s2.097-.165 3.094-.476c.98-.306 1.63 1.024 2.162 1.856-1.376 1.33-1.244 2.965-.97 3.707.329.653-.314 1.197-.52 1.423-1.625 1.34-2.41 2.808-2.243 3.951.148 1.827 1.862 3.251 3.64 3.139.685.02 1.967-.77 2.91-1.313.458-.187 1.204-.286 1.737.44l.354.484c.604.824.113 1.78.025 2.066a58 58 0 0 0-1.163 3.086 12.78 12.78 0 0 0 .336 8.688c1.95 4.898 7.454 7.937 12.577 7.31 1.492-.2 3.772-1.051 4.957-1.77.665-.414 1.433-.381 1.768-.33 1.617.379 8.428 2.46 15.451-1.569 5.318-3.003 8.455-9.694 7.983-14.708-.177-1.359-1.149-2.583-2.492-2.79-2.146-.288-3.196 1.225-3.57 2.542-.298.814-.324 2.099-.748 3.451-.87 3.69-4.205 6.655-7.947 7.238-.975.194-2.738-.079-3.851-.38-.827-.213-.83-1.03-.861-1.378-.02-1.55.2-4.093-.286-5.672-.748-2.95-2.603-5.686-5.156-7.24-3.783-2.215-7.217-2.23-9.803-1.898-.614.077-1.291-.543-1.433-.737-.355-.484-.545-.642-.732-1.1-.165-.327-.172-.843.339-1.366.923-.975 3.849-2.672 4.621-4.057 1.176-2.052-.702-4.92-3.046-4.766-1.381.045-4.407 2.114-5.86 3.178-.339.249-1.046.097-1.272-.11-.195-.179-1.652-1.16-3.423-.408.485-.727.998-1.392 1.196-1.572 2.877-2.632 4.342-6.01 4.92-7.504.301-.777 4.717 1.246 4.392.452-3.218-7.857-2.561-7.888-2.561-10.629 0-5.778-1.626-11.01-4.254-14.796-2.493-3.592-5.889-5.88-9.654-6.107v-5.167c1.585 1.879 4.78 3.671 8 3.671 3.718 0 7.07-2.193 7.506-4.544-.436-2.351-3.788-4.545-7.506-4.545s-7.407 2.392-8.617 4.545l.023.04h-.047l.024-.04c-1.21-2.153-4.899-4.545-8.617-4.545M-531.53 77.64q-2.464 0-2.464 3.695-.82 29.438 3.754 37.94 4.574 8.504 9.44 8.562h.94q4.866 0 4.925-2.58t-3.225-2.58q-1.877-14.72.997-41.342 0-3.695-2.464-3.695zm19.292.88q-2.932 0-2.932 3.401l.176 11.2q.06 1.76 1.466 1.642l13.84-.117q.762 0 .762 1.173 0 .762-.762.528l-14.308.117q-.705.117-.88 1.29l.176 8.972q0 2.17 1.935 2.17h13.546q.88.469.938 1.76l.234 1.993q.47 1.523-2.638.704-3.108-.822-7.565-.645-4.399.175-5.571 4.339-1.173 4.105.938 7.623 2.111 3.46 12.257 3.46h4.808q4.867.292 6.92-3.753 3.518 1.29 4.75-.528 1.29-1.818.351-3.166-.879-1.35-5.805-4.281l.47-5.395q0-1.818 1.758-1.818h4.867q1.76-.058 2.053-2.287l.645-9.559q.06-1.114-.88-1.348l-7.271.117q-.762.234-.763-.586 0-.997.763-.997h7.154q1.23.117 1.29-1.35l.704-11.258q0-3.4-3.284-3.401zm209.167 4.836q-2.932 0-2.932 2.932v4.926h-8.092q-2.932 0-2.932 3.401l.645 13.312q-.059 1.172.763 1.466l8.679.058q1.466 0 1.466 1.291.058 1.29-1.466 1.114l-8.21.117q-.705.117-.88 1.29l.587 6.803q0 2.11 1.876 2.11h6.86q.88.06 1.174 1.642.117 4.398 2.756 7.39 2.64 2.99 8.15 4.515 5.512 1.584 10.908.293 5.454-1.29 5.043-3.343t-3.753-1.29q-3.285.764-7.037-.645-3.753-1.407-3.811-5.043 0-3.635.82-3.753l8.855.059q1.526-.06 1.76-1.935l.41-7.213q.06-1.114-.88-1.349l-8.444.117q-1.114.176-1.172-1.173-.06-1.348 1.172-1.348h8.327q1.232.117 1.29-1.349l.938-13.136q0-3.4-3.283-3.4h-6.803l.47-4.926q0-2.933-2.932-2.933zm-35.086 3.19q-2.588.091-2.588 1.924l-.763 4.926q-7.623.94-12.432 3.401l-.762-6.919q-.352-1.349-2.463-1.115l-8.972 1.76q-2.229.293-1.642 2.932.587 2.58 2.522 9.09-6.04 6.743-6.92 15.656-.82 8.855 3.753 14.133 4.633 5.219 12.725 4.046 8.152-1.173 15.481-12.725 7.33-11.553 11.435-10.32 4.164 1.171 3.87 6.508-.292 5.278-3.694 8.737-3.342 3.402-5.805 3.93-2.405.469-2.111 2.17.293 1.759 4.984.351 4.692-1.407 9.676-7.33 10.966-21.814-7.975-32.37l.88-3.753q1.524-3.05-5.16-4.515-2.485-.573-4.039-.517m-103.459 8.485c.288-.014.49.033.546.178.578 1.494 2.043 4.872 4.92 7.503.274.251 1.16 1.417 1.722 2.414l-3.73-.744q-2.887-.508-3.396 2.38c-1.139 6.583-2.138 11.924-3.006 16.104a49 49 0 0 0-6.503-1.641q-1.502-.264-1.238-1.766l6.904-23.633c.442.16 2.709-.743 3.781-.795m51.234 4.318c-1.784.042-3.537.824-4.551 2.386-1.538 2.169-1.465 5.316.29 7.305 1.791 2.038 5.016 2.579 7.408 1.272 3.01-1.684 3.841-6.238 1.59-8.906-1.138-1.4-2.953-2.098-4.737-2.057m41.907 10.509q5.417.1 2.51 9.106-3.987 10.965-8.971 10.438-4.984-.528-4.692-8.562 0-1.642.41-3.166.646 1.29 1.584 2.58 3.811 6.45 5.981 6.274t2.287-3.518l-2.052-12.725q1.694-.45 2.943-.427m-155.282 10.18q2.837-.044 4.42.703 2.17.997 2.17 2.522v.235q0 1.64-2.17 1.582h-3.87q-3.519 0-4.105-2.286-.527-2.287 1.525-2.64 1.085-.101 2.03-.116m96.156.423c1.055.03 2.1.342 2.972.96 2.504 1.589 3.22 5.308 1.476 7.703-1.602 2.588-5.406 3.29-7.836 1.498-2.624-1.65-3.203-5.693-1.207-8.049 1.052-1.422 2.837-2.16 4.595-2.112m-61.098 7.386q.954.03 2.196.249l1.04.183q5.025.884 4.649 3.02l-.132.751q-.386 2.195-5.41 1.31l-1.04-.182q-4.968-.873-4.582-3.068l.133-.75q.281-1.605 3.146-1.513" font-family="Top-Heavy_Font" font-size="47.582" font-weight="400" paint-order="stroke fill markers" style="-inkscape-font-specification:Top-Heavy_Font"/><g fill="#79cdee" stroke-linecap="round" stroke-width="1.265" paint-order="stroke fill markers"><text xml:space="preserve" x="40.185" y="87.371" font-family="Top-Heavy_Font" font-size="47.582" font-weight="400" style="-inkscape-font-specification:Top-Heavy_Font" transform="translate(-527.686 -127.336)"><tspan x="40.185" y="87.371">ほ</tspan></text><text xml:space="preserve" x="92.678" y="78.591" font-family="Top-Heavy_Font" font-size="47.582" font-weight="400" style="-inkscape-font-specification:Top-Heavy_Font" transform="rotate(9.975 465.698 -3086.907)"><tspan x="92.678" y="78.591">み</tspan></text><text xml:space="preserve" x="45.86" y="170.426" font-family="Amanatsu" font-size="47.582" font-weight="400" style="-inkscape-font-specification:Amanatsu" transform="rotate(-36.232 -458.452 742.797)"><tspan x="45.86" y="170.426" style="-inkscape-font-specification:Amanatsu">む</tspan></text><text xml:space="preserve" x="167.151" y="93.908" font-family="Top-Heavy_Font" font-size="47.582" font-weight="400" style="-inkscape-font-specification:Top-Heavy_Font" transform="translate(-527.686 -127.336)"><tspan x="167.151" y="93.908">め</tspan></text><text xml:space="preserve" x="209.829" y="92.969" font-family="Top-Heavy_Font" font-size="47.582" font-weight="400" style="-inkscape-font-specification:Top-Heavy_Font" transform="translate(-527.686 -127.336)"><tspan x="209.829" y="92.969">も</tspan></text><path d="M-409.571-96.65c-2.946 0-5.602 1.738-5.947 3.601.345 1.863 3 3.601 5.947 3.601 2.492 0 4.966-1.355 6.25-2.805v3.994c-2.948.21-5.604 2.018-7.56 4.835-2.083 3-3.371 7.146-3.371 11.725 0 2.172.52 2.196-2.03 8.422-.257.629 3.242-.974 3.48-.358.458 1.184 1.62 3.86 3.9 5.946.264.242 1.257 1.565 1.616 2.406.5-.314 1.07-2.246 2.091-1.927a8.2 8.2 0 0 0 4.904 0c1.021-.319 1.591 1.613 2.091 1.927.36-.841 1.352-2.164 1.617-2.406 2.28-2.086 3.44-4.762 3.899-5.946.238-.616 3.737.987 3.48.358-2.55-6.226-2.03-6.25-2.03-8.422 0-4.579-1.288-8.724-3.37-11.725-1.976-2.846-4.667-4.658-7.65-4.838v-4.095c1.256 1.489 3.788 2.91 6.339 2.91 2.946 0 5.602-1.739 5.948-3.602-.346-1.863-3.002-3.6-5.948-3.6s-5.87 1.895-6.828 3.6l.019.031h-.038l.019-.03c-.959-1.706-3.882-3.602-6.828-3.602"/></g><path fill="#79cdee" stroke="#fff" stroke-linecap="round" stroke-width="1.265" d="M-404.93-21.558c-2.946 0-5.602 1.738-5.948 3.601.346 1.863 3.002 3.601 5.948 3.601 2.491 0 4.966-1.356 6.25-2.805v3.994c-2.948.21-5.604 2.017-7.56 4.835-2.083 3-3.372 7.146-3.372 11.725 0 2.113.47 2.239-1.852 7.975.163-1.38-.466-2.204-1.91-2.458q-10.146-1.596-20.955-4.252-2.288-.402-2.69 1.886l-1.134 13.955q-.402 2.288 1.886 2.69l10.778.952q1.373.242 1.132 1.615l-.197 4.07q-.21 1.19-1.4.98l-3.698.105q-5.34.051-6.896 4.071-1.548 3.974.469 6.452 2.071 2.44 8.063 2.975 3.325.68 5.604-.477 2.288-1.202 2.865-3.412.33-1.877 2.252-1.538c1.762.16 3.384.37 4.894.619-.148.507-.289.952-.42 1.3q-1.378 3.814-2.97 5.092-1.585 1.23-.826 2.544.752 1.359 5.794-2.897a57 57 0 0 0 4.755-4.492c.606.214 1.189.436 1.72.677q2.781 1.621 3.72.04.945-1.626-1.731-3.842-.3-.262-.615-.512c.206-.27.414-.538.612-.81q3.464-4.674 6.417-13.686.403-2.288-1.886-2.69l-4.489-.895c.432-.65.957-1.801 1.766-1.548a8.2 8.2 0 0 0 4.904 0c.776-.243 1.29.811 1.713 1.471-1.09 1.054-.986 2.35-.769 2.937.26.517-.249.949-.412 1.128-1.287 1.061-1.91 2.225-1.777 3.13.117 1.448 1.475 2.577 2.885 2.488.542.015 1.558-.611 2.305-1.04.363-.149.954-.227 1.376.348l.281.384c.478.652.089 1.41.02 1.637a46 46 0 0 0-.922 2.445 10.13 10.13 0 0 0 .266 6.884c1.546 3.881 5.907 6.29 9.966 5.792 1.182-.158 2.989-.833 3.928-1.403.527-.327 1.135-.301 1.401-.26 1.282.3 6.678 1.95 12.243-1.243 4.214-2.38 6.7-7.682 6.326-11.655-.14-1.077-.91-2.047-1.974-2.21-1.701-.229-2.533.97-2.83 2.014-.236.644-.256 1.662-.592 2.734-.69 2.923-3.332 5.274-6.297 5.735-.773.154-2.17-.062-3.052-.3-.655-.17-.657-.817-.682-1.093-.015-1.228.159-3.243-.227-4.494-.592-2.338-2.062-4.506-4.085-5.737-2.998-1.756-5.72-1.767-7.768-1.505-.486.062-1.023-.43-1.136-.583-.28-.384-.432-.509-.58-.872-.13-.259-.136-.668.269-1.082.732-.773 3.05-2.117 3.662-3.215.931-1.626-.557-3.898-2.414-3.776-1.095.035-3.492 1.674-4.643 2.518-.269.197-.83.077-1.008-.087-.155-.142-1.31-.92-2.713-.324.384-.576.791-1.102.948-1.246 2.28-2.085 3.44-4.761 3.899-5.945.238-.616 3.737.987 3.48.358-2.55-6.226-2.03-6.25-2.03-8.422 0-4.579-1.288-8.724-3.37-11.725-1.976-2.846-4.667-4.659-7.65-4.838v-4.095c1.256 1.488 3.788 2.909 6.339 2.909 2.946 0 5.602-1.738 5.948-3.6-.346-1.864-3.002-3.602-5.948-3.602s-5.87 1.895-6.828 3.601l.018.031h-.037l.019-.03c-.959-1.707-3.882-3.602-6.828-3.602zm-74.91 19.093q-1.952 0-1.952 2.928-.65 23.325 2.974 30.064 3.624 6.737 7.481 6.784h.744q3.856 0 3.903-2.045.046-2.044-2.556-2.044-1.487-11.663.79-32.76 0-2.926-1.952-2.927zm15.287.697q-2.323 0-2.323 2.695l.14 8.875q.046 1.395 1.161 1.301l10.966-.093q.604 0 .604.93 0 .603-.604.418l-11.338.093q-.557.093-.697 1.022l.14 7.11q0 1.719 1.533 1.719h10.734q.696.372.743 1.394l.186 1.58q.371 1.208-2.09.557-2.464-.65-5.995-.51-3.486.138-4.415 3.438-.93 3.252.744 6.04 1.672 2.742 9.712 2.742h3.81q3.855.232 5.483-2.974 2.787 1.022 3.764-.418 1.022-1.44.278-2.51-.697-1.068-4.6-3.391l.372-4.275q0-1.44 1.394-1.44h3.856q1.395-.048 1.627-1.813l.511-7.574q.047-.883-.697-1.069l-5.762.093q-.604.187-.604-.464 0-.79.604-.79h5.67q.975.092 1.021-1.07l.558-8.92q0-2.696-2.602-2.696zm165.741 3.833q-2.322 0-2.323 2.323v3.903h-6.412q-2.323 0-2.323 2.695l.51 10.548q-.046.93.605 1.162l6.877.046q1.161 0 1.162 1.023.045 1.022-1.162.882l-6.506.093q-.557.093-.697 1.023l.465 5.39q0 1.673 1.487 1.673h5.436q.697.046.93 1.3.093 3.486 2.184 5.855t6.458 3.578q4.368 1.255 8.643.232 4.321-1.022 3.997-2.648-.326-1.626-2.974-1.022-2.603.604-5.576-.511-2.975-1.116-3.02-3.996 0-2.881.65-2.974l7.016.046q1.208-.046 1.395-1.533l.325-5.716q.045-.882-.697-1.068l-6.691.092q-.884.14-.93-.929t.93-1.068h6.598q.975.092 1.022-1.07l.743-10.408q0-2.695-2.602-2.695h-5.39l.372-3.903q0-2.323-2.323-2.323zm-27.801 2.527q-2.052.073-2.052 1.525l-.604 3.903q-6.04.744-9.85 2.695l-.605-5.483q-.279-1.068-1.951-.883l-7.11 1.394q-1.765.233-1.3 2.324.464 2.044 1.997 7.202-4.785 5.343-5.483 12.406-.65 7.016 2.974 11.199 3.672 4.135 10.084 3.206 6.457-.93 12.267-10.083 5.808-9.155 9.06-8.178 3.3.93 3.067 5.158-.231 4.182-2.927 6.923-2.65 2.694-4.6 3.113-1.905.372-1.673 1.72.232 1.394 3.95.278t7.666-5.808q8.69-17.284-6.319-25.65l.697-2.973q1.208-2.417-4.089-3.578-1.969-.454-3.2-.41zm-81.98 6.723c.228-.01.387.026.432.142.458 1.184 1.619 3.86 3.899 5.945.217.199.92 1.122 1.365 1.913l-2.956-.59q-2.29-.403-2.69 1.886c-.903 5.216-1.695 9.448-2.383 12.76a38.5 38.5 0 0 0-5.153-1.3q-1.19-.209-.981-1.399l5.47-18.727c.351.128 2.147-.588 2.997-.63zm40.597 3.422c-1.414.033-2.803.653-3.606 1.89-1.219 1.72-1.16 4.213.23 5.79 1.42 1.614 3.974 2.042 5.87 1.007 2.385-1.334 3.043-4.943 1.259-7.057-.901-1.109-2.34-1.663-3.753-1.63zm33.207 8.327q4.292.08 1.989 7.216-3.16 8.689-7.11 8.27-3.949-.417-3.717-6.784 0-1.3.326-2.509.51 1.022 1.254 2.045 3.02 5.11 4.74 4.972 1.719-.14 1.812-2.788l-1.626-10.084q1.34-.356 2.332-.338zm-123.044 8.067q2.248-.036 3.503.557 1.719.79 1.719 1.998v.186q0 1.3-1.72 1.254h-3.066q-2.788 0-3.253-1.811-.418-1.813 1.208-2.092.86-.081 1.61-.092zm76.193.335c.836.023 1.664.27 2.355.76 1.984 1.26 2.551 4.207 1.17 6.104-1.27 2.051-4.284 2.608-6.21 1.187-2.079-1.308-2.538-4.51-.956-6.377.833-1.127 2.248-1.712 3.64-1.674zm-48.414 5.852q.757.024 1.74.198l.824.145q3.982.7 3.685 2.393l-.105.595q-.306 1.739-4.287 1.039l-.824-.145q-3.936-.693-3.63-2.431l.104-.595q.224-1.27 2.493-1.199z" font-family="Top-Heavy_Font" font-size="47.582" font-weight="400" paint-order="stroke fill markers" style="-inkscape-font-specification:Top-Heavy_Font"/><text xml:space="preserve" x="37.802" y="73.553" fill="#79cdee" stroke-linecap="round" stroke-width="1.265" font-family="Top-Heavy_Font" font-size="47.582" font-weight="400" paint-order="stroke fill markers" style="-inkscape-font-specification:Top-Heavy_Font" transform="translate(-202.191 -101.972)"><tspan x="37.802" y="73.553">ほ</tspan></text><text xml:space="preserve" x="88.065" y="60.909" fill="#79cdee" stroke-linecap="round" stroke-width="1.082" font-family="Top-Heavy_Font" font-size="40.689" font-weight="400" paint-order="stroke fill markers" style="-inkscape-font-specification:Top-Heavy_Font" transform="matrix(.99239 .15889 -.18623 .97786 -202.191 -101.972)"><tspan x="88.065" y="60.909">み</tspan></text><text xml:space="preserve" x="111.397" y="104.651" fill="#79cdee" stroke-linecap="round" stroke-width="1.265" font-family="Top-Heavy_Font" font-size="47.582" font-weight="400" paint-order="stroke fill markers" style="-inkscape-font-specification:Top-Heavy_Font" transform="translate(-202.191 -101.972)"><tspan x="111.397" y="104.651">ろ</tspan></text><text xml:space="preserve" x="141.912" y="105.96" fill="#79cdee" stroke-linecap="round" stroke-width="1.146" font-family="Top-Heavy_Font" font-size="43.123" font-weight="400" paint-order="stroke fill markers" style="-inkscape-font-specification:Top-Heavy_Font" transform="rotate(-9.104 -741.499 1218.818)"><tspan x="141.912" y="105.96">に</tspan></text><path fill="#79cdee" d="M-73.552-76.736c-2.947 0-5.602 1.739-5.948 3.602.346 1.863 3.001 3.6 5.948 3.6 2.491 0 4.965-1.355 6.25-2.805v3.994c-2.948.21-5.605 2.018-7.56 4.835-2.083 3-3.372 7.146-3.372 11.725 0 2.172.52 2.196-2.029 8.422-.258.629 3.241-.974 3.48-.358.458 1.184 1.619 3.86 3.899 5.946.265.242 1.258 1.565 1.617 2.406.5-.314 1.07-2.246 2.091-1.927a8.2 8.2 0 0 0 4.904 0c1.02-.319 1.59 1.613 2.091 1.927.359-.841 1.351-2.164 1.616-2.406 2.28-2.085 3.441-4.762 3.9-5.946.238-.616 3.737.987 3.48.358-2.55-6.226-2.03-6.25-2.03-8.422 0-4.579-1.288-8.724-3.37-11.725-1.976-2.845-4.667-4.658-7.65-4.838v-4.094c1.256 1.488 3.788 2.908 6.339 2.908 2.946 0 5.602-1.737 5.948-3.6-.346-1.863-3.002-3.602-5.948-3.602s-5.87 1.896-6.828 3.602l.018.03h-.037l.019-.03c-.96-1.706-3.882-3.602-6.828-3.602" paint-order="stroke fill markers"/><text xml:space="preserve" x="-221.44" y="72.83" fill="#79cdee" stroke-linecap="round" stroke-width="4.233" font-family="Top-Heavy_Font" font-size="61.635" font-weight="400" paint-order="stroke fill markers" style="-inkscape-font-specification:Top-Heavy_Font"><tspan x="-221.44" y="72.83">ほ</tspan></text><text xml:space="preserve" x="-154.525" y="99.587" fill="#79cdee" stroke-linecap="round" stroke-width="4.233" font-family="Top-Heavy_Font" font-size="52.707" font-weight="400" paint-order="stroke fill markers" style="-inkscape-font-specification:Top-Heavy_Font" transform="matrix(.99239 .15889 -.18623 .97786 0 0)"><tspan x="-154.525" y="99.587">み</tspan></text><text xml:space="preserve" x="-126.109" y="113.113" fill="#79cdee" stroke-linecap="round" stroke-width="4.233" font-family="Top-Heavy_Font" font-size="61.635" font-weight="400" paint-order="stroke fill markers" style="-inkscape-font-specification:Top-Heavy_Font"><tspan x="-126.109" y="113.113">ろ</tspan></text><text xml:space="preserve" x="-79.624" y="72.306" fill="#79cdee" stroke-linecap="round" stroke-width="4.233" font-family="Top-Heavy_Font" font-size="55.859" font-weight="400" paint-order="stroke fill markers" style="-inkscape-font-specification:Top-Heavy_Font" transform="rotate(-9.104)"><tspan x="-79.624" y="72.306">に</tspan></text><path fill="#79cdee" d="M-103.775 11.302c-3.817 0-7.257 2.252-7.704 4.665.447 2.413 3.887 4.664 7.704 4.664 3.227 0 6.432-1.756 8.096-3.634v5.174c-3.82.272-7.26 2.614-9.793 6.263-2.698 3.887-4.367 9.257-4.367 15.188 0 2.813.673 2.845-2.63 10.91-.333.814 4.2-1.262 4.508-.464.594 1.533 2.098 5 5.051 7.701.343.314 1.63 2.028 2.095 3.117.647-.407 1.386-2.909 2.709-2.496 1.023.32 2.085.489 3.175.489s2.153-.169 3.176-.489c1.323-.413 2.062 2.09 2.71 2.496.464-1.09 1.75-2.803 2.093-3.117 2.954-2.7 4.457-6.168 5.05-7.701.31-.798 4.842 1.278 4.508.463-3.302-8.064-2.628-8.096-2.628-10.909 0-5.931-1.669-11.3-4.367-15.188-2.558-3.686-6.044-6.034-9.909-6.267v-5.304c1.628 1.928 4.908 3.768 8.212 3.768 3.816 0 7.256-2.25 7.704-4.664-.448-2.413-3.888-4.665-7.704-4.665-3.817 0-7.603 2.455-8.845 4.665l.024.04h-.048l.024-.04c-1.242-2.21-5.028-4.665-8.845-4.665" paint-order="stroke fill markers"/><text xml:space="preserve" x="-151.509" y="154.537" fill="#79cdee" stroke-linecap="round" stroke-linejoin="round" stroke-width="14.442" font-family="KyouryunoGuratan" font-size="10.832" font-weight="400" paint-order="stroke fill markers" style="-inkscape-font-specification:KyouryunoGuratan"><tspan x="-151.509" y="154.537" style="-inkscape-font-specification:KyouryunoGuratan">ほみの ほみよる</tspan><tspan x="-151.509" y="168.077" style="-inkscape-font-specification:KyouryunoGuratan">ほみのためのさいと</tspan></text><path fill="#79cdee" stroke="#fff" stroke-linecap="round" stroke-width="4.046" d="M-37.74 323.074c-3.647 0-6.934 2.152-7.362 4.458.428 2.306 3.715 4.458 7.362 4.458 3.085 0 6.148-1.679 7.738-3.474v4.945c-3.65.26-6.938 2.498-9.36 5.987-2.578 3.714-4.173 8.846-4.173 14.515 0 2.689.643 2.718-2.513 10.426-.319.779 4.013-1.206 4.308-.443.568 1.466 2.005 4.78 4.828 7.36.234.214.92 1.11 1.459 1.982-7.63.04-12.721.088-14.313.15q-2.876 0-2.876 4.429l1.61 16.97q1.151 3.048 4.028 3.049 8.685-.116 24.275-2.819-17.257 12.483-18.235 13.461t.92 3.681q1.898 2.647 3.279 1.669 1.38-.978 7.133-3.049t9.492-.287q3.797 1.725 3.797 6.097t-4.66 5.465q-4.602 1.15-7.478.23-2.82-.92-3.107 1.553-.23 2.532 7.881 2.646 8.168.116 12.944-5.35 4.775-5.407.345-12.022-4.372-6.674-17.833-3.51l19.098-13.115q2.475-1.209 2.762-3.912l.46-10.987q0-4.43-2.876-4.43c-6.1.01-9.53.029-14.288.043.535-.86 1.204-1.733 1.435-1.944 2.822-2.58 4.259-5.894 4.826-7.36.296-.763 4.627 1.222 4.309.443-3.157-7.707-2.513-7.737-2.513-10.426 0-5.669-1.595-10.8-4.173-14.515-2.446-3.524-5.777-5.768-9.47-5.99v-5.07c1.555 1.843 4.69 3.602 7.847 3.602 3.648 0 6.936-2.152 7.364-4.458-.428-2.306-3.716-4.458-7.364-4.458s-7.266 2.346-8.453 4.458l.024.038h-.047l.023-.038c-1.187-2.112-4.805-4.458-8.453-4.458zm-108.717 12.265q-2.416 0-2.416 3.625-.806 28.877 3.682 37.219 4.487 8.34 9.262 8.398h.92q4.775 0 4.832-2.53.058-2.532-3.164-2.532-1.84-14.439.978-40.555 0-3.625-2.416-3.625zm18.926.863q-2.876 0-2.876 3.337l.173 10.987q.057 1.726 1.438 1.611l13.576-.115q.748 0 .748 1.15 0 .749-.748.518l-14.036.115q-.69.116-.863 1.266l.172 8.801q0 2.13 1.899 2.129h13.288q.863.46.92 1.725l.23 1.957q.461 1.495-2.588.69t-7.421-.633q-4.314.172-5.465 4.257-1.15 4.026.92 7.478 2.072 3.394 12.023 3.394h4.717q4.775.288 6.788-3.682 3.451 1.265 4.66-.517 1.266-1.784.345-3.106-.863-1.325-5.695-4.2l.46-5.293q0-1.782 1.726-1.782h4.775q1.725-.058 2.013-2.244l.633-9.377q.057-1.093-.863-1.323l-7.133.115q-.747.23-.748-.575 0-.978.748-.978h7.018q1.208.115 1.266-1.323l.69-11.045q0-3.337-3.222-3.337zm36.368 7.135q-1.918-.036-2.32 2.068l-1.38 14.65q-.459 2.406 1.982 2.797l11.51.85q1.464.235 1.189 1.678l-.26 4.271q-.239 1.25-1.508 1.048l-3.954.16q-5.71.127-7.421 4.363-1.704 4.19.423 6.76 2.184 2.531 8.582 3.01 3.546.667 5.996-.577 2.46-1.29 3.104-3.617.375-1.972 2.426-1.644c1.881.144 3.612.343 5.224.583a21 21 0 0 1-.465 1.369q-1.52 4.02-3.238 5.38-1.709 1.312-.912 2.68.786 1.414 6.228-3.117a62 62 0 0 0 5.137-4.777c.645.216 1.265.442 1.83.687q2.952 1.662 3.975-.008 1.031-1.72-1.803-4.007-.319-.27-.651-.529c.224-.285.449-.57.664-.857q3.759-4.95 7.026-14.44.457-2.404-1.983-2.796l-8.555-1.568q-2.441-.39-2.9 2.015c-1.028 5.482-1.925 9.931-2.701 13.414a41 41 0 0 0-5.493-1.293q-1.27-.203-1.03-1.454l6.187-20.077q.458-2.405-1.983-2.795-10.826-1.535-22.346-4.173a4 4 0 0 0-.58-.054zm98 5.009-10.14 1.625q-2.574.412-2.162 2.986 3.773 25.85 6.723 31.078 2.95 5.23 5.61 7.338 2.662 2.109 4.869 1.385 2.267-.68 1.988-2.747-.226-2.076-2.83-2.504-3.546-19.496-2.327-36.27.35-2.432-1.73-2.891Zm28.45.375q-3.403-.053-8.287.565-7.771.928-14.099 2.629-2.208.723-1.836 3.04l1.522 11.478q.42 2.625 2.943 2.22l22.11-.744q.194 1.87 2.15 1.556 1.948-.365 2.586-3.635.63-3.321-.844-14.49-.37-2.316-2.694-2.314-1.51-.273-3.55-.305zm-67.84 23.137a1 1 0 0 1 .231.042c.978.306 1.994.467 3.035.467s2.058-.161 3.036-.467c.793-.248 1.354.591 1.824 1.354-3.157.01-7.203.018-9.737.03.427-.695.926-1.464 1.612-1.426zm-86.658 5.072q2.782-.042 4.336.69 2.128.979 2.128 2.474v.23q0 1.611-2.128 1.554h-3.797q-3.45 0-4.027-2.244-.517-2.243 1.496-2.589 1.064-.1 1.992-.115zm32.8.654q.807.015 1.858.183l.878.14q4.247.681 3.908 2.46l-.119.626q-.347 1.828-4.595 1.148l-.878-.14q-4.2-.673-3.85-2.5l.118-.626q.255-1.335 2.68-1.29zm106.597.752q-.167 0-.354.03-1.492.24-.822 4.092l.255 1.596q.602 3.757 6.515 4.077 5.963.312 13.41-2.307 2.037-.802 1.638-2.638-.357-1.896-2.699-1.68-6.268.424-16.532-1.68-.238-1.487-1.41-1.49z" font-family="Top-Heavy_Font" font-size="61.635" font-weight="400" paint-order="stroke fill markers" style="-inkscape-font-specification:Top-Heavy_Font"/><path fill="#79cdee" stroke="#fff" stroke-linecap="round" stroke-width="4.046" d="M-37.117 323.074c-3.648 0-6.935 2.152-7.363 4.458.428 2.306 3.715 4.458 7.363 4.458 3.084 0 6.148-1.679 7.738-3.474v4.945c-3.65.26-6.939 2.498-9.36 5.987-2.579 3.714-4.174 8.846-4.174 14.515 0 2.689.644 2.718-2.512 10.426-.32.779 4.013-1.206 4.308-.443.567 1.466 2.004 4.78 4.827 7.36.234.214.92 1.11 1.46 1.982-7.63.04-12.722.088-14.313.15q-2.877 0-2.877 4.429l1.611 16.97q1.151 3.048 4.027 3.049 8.686-.116 24.276-2.819-17.258 12.483-18.236 13.461t.92 3.681q1.899 2.646 3.28 1.669 1.38-.978 7.133-3.049 5.752-2.07 9.492-.287 3.796 1.725 3.796 6.097t-4.66 5.465q-4.602 1.15-7.478.23-2.819-.92-3.106 1.553-.23 2.532 7.88 2.646 8.17.116 12.944-5.35 4.775-5.406.345-12.022-4.372-6.674-17.833-3.51l19.099-13.115q2.474-1.209 2.761-3.912l.46-10.987q0-4.43-2.876-4.43c-6.1.01-9.53.029-14.288.043.535-.86 1.205-1.733 1.435-1.944 2.823-2.58 4.26-5.894 4.827-7.36.295-.763 4.627 1.222 4.308.443-3.156-7.707-2.512-7.737-2.512-10.426 0-5.669-1.595-10.8-4.174-14.515-2.445-3.524-5.777-5.768-9.47-5.99v-5.07c1.555 1.843 4.69 3.602 7.848 3.602 3.647 0 6.936-2.152 7.364-4.458-.428-2.306-3.717-4.458-7.364-4.458-3.648 0-7.266 2.346-8.453 4.458l.023.038h-.046l.023-.038c-1.187-2.112-4.806-4.458-8.453-4.458zm-108.717 12.265q-2.416 0-2.416 3.625-.805 28.877 3.681 37.219 4.487 8.34 9.262 8.398h.92q4.775 0 4.832-2.53.058-2.532-3.164-2.532-1.84-14.439.978-40.555 0-3.625-2.416-3.625zm18.926.863q-2.877 0-2.877 3.337l.173 10.987q.058 1.726 1.438 1.611l13.576-.115q.748 0 .748 1.15 0 .749-.748.518l-14.036.115q-.69.116-.863 1.266l.172 8.801q0 2.13 1.899 2.129h13.288q.863.46.92 1.725l.23 1.957q.462 1.495-2.588.69-3.048-.805-7.42-.633-4.315.172-5.466 4.257-1.15 4.026.92 7.478 2.073 3.394 12.024 3.394h4.717q4.775.288 6.788-3.682 3.45 1.265 4.66-.517 1.265-1.784.344-3.106-.862-1.325-5.695-4.2l.46-5.293q0-1.782 1.726-1.782h4.775q1.726-.058 2.013-2.244l.633-9.377q.057-1.093-.863-1.323l-7.133.115q-.748.23-.748-.575 0-.978.748-.978h7.018q1.209.115 1.266-1.323l.69-11.045q0-3.336-3.221-3.337zm36.368 7.135q-1.92-.036-2.32 2.068l-1.382 14.65q-.458 2.406 1.983 2.797l11.51.85q1.464.235 1.19 1.678l-.26 4.271q-.24 1.25-1.508 1.048l-3.955.16q-5.71.127-7.421 4.363-1.703 4.19.423 6.76 2.184 2.531 8.583 3.01 3.545.667 5.995-.577 2.46-1.29 3.104-3.617.376-1.973 2.426-1.644c1.881.144 3.613.343 5.224.583a21 21 0 0 1-.464 1.369q-1.52 4.02-3.238 5.38-1.71 1.312-.913 2.68.787 1.415 6.228-3.117a62 62 0 0 0 5.137-4.777c.646.216 1.266.442 1.83.687q2.953 1.662 3.975-.008 1.032-1.72-1.802-4.007-.319-.27-.652-.529c.224-.285.45-.57.664-.857q3.76-4.95 7.026-14.44.459-2.405-1.983-2.796l-8.555-1.568q-2.441-.39-2.899 2.015c-1.028 5.482-1.926 9.931-2.702 13.414a41 41 0 0 0-5.493-1.293q-1.27-.203-1.03-1.454l6.188-20.077q.458-2.405-1.983-2.795-10.825-1.535-22.347-4.173a4 4 0 0 0-.58-.054zm98 5.009-10.141 1.625q-2.574.412-2.161 2.986 3.772 25.85 6.722 31.078 2.95 5.23 5.611 7.338t4.868 1.385q2.267-.68 1.989-2.747-.228-2.076-2.83-2.504-3.547-19.496-2.328-36.27.35-2.432-1.73-2.891Zm28.45.375q-3.405-.053-8.288.565-7.77.928-14.099 2.629-2.206.723-1.836 3.04l1.523 11.478q.42 2.625 2.943 2.22l22.11-.744q.194 1.87 2.15 1.556 1.947-.365 2.585-3.635.63-3.321-.843-14.49-.372-2.316-2.694-2.314-1.509-.273-3.552-.305zm-67.84 23.137a1 1 0 0 1 .23.042c.979.306 1.994.467 3.036.467 1.041 0 2.058-.161 3.036-.467.793-.248 1.353.591 1.823 1.354-3.157.01-7.203.018-9.737.03.427-.695.927-1.464 1.612-1.426zm-86.659 5.072q2.782-.042 4.336.69 2.129.979 2.129 2.474v.23q0 1.611-2.129 1.554h-3.797q-3.45 0-4.026-2.244-.518-2.242 1.495-2.589 1.065-.1 1.992-.115zm32.8.654q.808.015 1.858.183l.879.14q4.247.681 3.908 2.46l-.12.626q-.347 1.828-4.594 1.148l-.88-.14q-4.198-.673-3.85-2.5l.12-.626q.254-1.335 2.679-1.29zm106.598.752q-.168 0-.354.03-1.494.24-.823 4.092l.256 1.596q.602 3.757 6.514 4.077 5.964.312 13.411-2.307 2.037-.802 1.637-2.638-.357-1.896-2.698-1.68-6.269.424-16.532-1.68-.239-1.487-1.411-1.49z" font-family="Top-Heavy_Font" font-size="61.635" font-weight="400" paint-order="stroke fill markers" style="-inkscape-font-specification:Top-Heavy_Font"/><path fill="#fdb515" stroke="#fff" stroke-width="3.008" d="M84.54 367.325c-1.77 0-3.365 1.044-3.573 2.163.208 1.12 1.803 2.163 3.572 2.163 1.497 0 2.983-.814 3.755-1.685v2.399c-1.771.126-3.367 1.212-4.541 2.904-1.251 1.803-2.026 4.293-2.026 7.043 0 1.304.313 1.319-1.218 5.059-.155.377 1.947-.585 2.09-.215.275.71.972 2.319 2.342 3.571.159.146.755.94.971 1.446.3-.19.643-1.35 1.256-1.158a4.9 4.9 0 0 0 2.946 0c.613-.192.955.969 1.256 1.158.215-.506.812-1.3.97-1.446 1.37-1.252 2.067-2.86 2.343-3.571.143-.37 2.245.592 2.09.215-1.531-3.74-1.219-3.755-1.219-5.059 0-2.75-.774-5.24-2.025-7.043-1.186-1.709-2.802-2.798-4.595-2.906v-2.46c.755.895 2.276 1.748 3.808 1.748 1.77 0 3.365-1.044 3.573-2.163-.208-1.119-1.803-2.163-3.573-2.163s-3.525 1.139-4.101 2.163l.011.019h-.022l.01-.019c-.575-1.024-2.33-2.163-4.1-2.163z" paint-order="stroke markers fill"/><path fill="#79cdee" stroke="#fff" stroke-width="3.87" d="M54.266 347.11c-3.164 0-6.016 1.867-6.388 3.868.372 2 3.224 3.867 6.388 3.867 2.676 0 5.334-1.456 6.713-3.013v4.29c-3.166.225-6.02 2.167-8.12 5.193-2.237 3.223-3.62 7.675-3.62 12.593 0 2.332.558 2.358-2.18 9.045-.277.675 3.481-1.046 3.737-.384.492 1.271 1.739 4.146 4.188 6.385.284.26 1.35 1.681 1.736 2.585.538-.338 1.15-2.413 2.247-2.07.848.265 1.729.405 2.633.405s1.785-.14 2.633-.405c1.097-.343 1.709 1.732 2.246 2.07.386-.904 1.452-2.325 1.736-2.585 2.449-2.24 3.696-5.114 4.188-6.385.256-.662 4.014 1.06 3.737.384-2.738-6.687-2.18-6.713-2.18-9.045 0-4.918-1.383-9.37-3.62-12.593-2.121-3.056-5.011-5.003-8.215-5.197v-4.397c1.349 1.599 4.068 3.124 6.808 3.124 3.164 0 6.017-1.866 6.388-3.867-.371-2.001-3.224-3.868-6.388-3.868s-6.304 2.036-7.333 3.868l.019.033h-.04l.019-.033c-1.03-1.832-4.17-3.868-7.333-3.868z" paint-order="stroke markers fill"/><path fill="#79cdee" stroke="#fff" stroke-linecap="round" stroke-width="4.233" d="M151.653 13.607c-3.817 0-7.256 2.251-7.704 4.664.448 2.414 3.887 4.665 7.704 4.665 3.227 0 6.432-1.757 8.096-3.635v5.174c-3.82.272-7.26 2.614-9.794 6.264-2.697 3.887-4.367 9.256-4.367 15.188 0 2.813.674 2.844-2.628 10.908-.334.815 4.198-1.261 4.507-.463.594 1.533 2.098 5 5.051 7.701.245.224.963 1.16 1.527 2.073-7.983.042-13.31.092-14.976.157q-3.01 0-3.01 4.634l1.686 17.756q1.204 3.19 4.214 3.19 9.088-.12 25.4-2.949-18.057 13.061-19.08 14.085-1.024 1.023.962 3.852 1.987 2.768 3.431 1.745 1.445-1.023 7.464-3.19t9.931-.3q3.973 1.805 3.973 6.38t-4.876 5.717q-4.815 1.204-7.824.241-2.95-.963-3.25 1.625-.241 2.649 8.245 2.769 8.548.12 13.543-5.598 4.995-5.658.361-12.58-4.575-6.981-18.658-3.671l19.982-13.723q2.589-1.264 2.89-4.093l.481-11.496q0-4.635-3.01-4.635c-6.382.01-9.97.03-14.949.045.56-.9 1.26-1.813 1.501-2.034 2.954-2.7 4.457-6.168 5.05-7.701.31-.798 4.842 1.278 4.508.463-3.302-8.064-2.628-8.095-2.628-10.908 0-5.932-1.67-11.301-4.367-15.188-2.559-3.686-6.044-6.035-9.909-6.268v-5.304c1.627 1.928 4.907 3.769 8.211 3.769 3.817 0 7.257-2.251 7.705-4.665-.448-2.413-3.888-4.664-7.705-4.664-3.816 0-7.602 2.455-8.844 4.664l.024.04h-.048l.024-.04c-1.242-2.21-5.028-4.664-8.844-4.664zM37.9 26.44q-2.528 0-2.528 3.792-.842 30.216 3.852 38.943 4.695 8.728 9.691 8.788h.963q4.995 0 5.056-2.648t-3.31-2.649q-1.927-15.107 1.023-42.434 0-3.792-2.528-3.792zm19.803.903q-3.01 0-3.01 3.491l.181 11.496q.06 1.806 1.505 1.686l14.205-.12q.782 0 .782 1.203 0 .783-.782.542l-14.687.12q-.721.12-.903 1.325l.18 9.209q0 2.227 1.987 2.227h13.904q.903.48.963 1.805l.24 2.047q.483 1.565-2.708.722-3.19-.843-7.764-.662-4.515.18-5.718 4.454-1.204 4.213.963 7.825 2.166 3.55 12.58 3.551h4.935q4.995.3 7.102-3.852 3.612 1.323 4.876-.542 1.324-1.866.36-3.25-.901-1.385-5.958-4.394l.482-5.538q0-1.866 1.805-1.865h4.996q1.806-.06 2.107-2.348l.662-9.81q.06-1.144-.903-1.385l-7.463.12q-.783.241-.783-.602 0-1.023.783-1.023h7.342q1.265.12 1.325-1.384l.722-11.557q0-3.49-3.37-3.49zm38.052 7.465q-2.007-.037-2.427 2.165L91.883 52.3q-.48 2.517 2.074 2.926l12.043.89q1.532.246 1.244 1.756l-.272 4.469q-.25 1.308-1.577 1.096l-4.138.167q-5.973.133-7.765 4.566-1.782 4.383.443 7.073 2.286 2.648 8.98 3.149 3.71.698 6.273-.604 2.574-1.35 3.248-3.785.393-2.063 2.538-1.72c1.969.151 3.78.359 5.466.61a22 22 0 0 1-.486 1.432q-1.59 4.206-3.388 5.63-1.788 1.374-.955 2.803.824 1.48 6.517-3.26a65 65 0 0 0 5.375-4.999 24 24 0 0 1 1.914.719q3.09 1.74 4.16-.009 1.079-1.797-1.886-4.192a22 22 0 0 0-.682-.553c.234-.298.47-.596.695-.897q3.934-5.178 7.351-15.108.48-2.517-2.074-2.926l-8.952-1.64q-2.554-.409-3.033 2.107c-1.076 5.737-2.015 10.392-2.827 14.036a43 43 0 0 0-5.747-1.353q-1.329-.213-1.079-1.521l6.475-21.007q.48-2.517-2.075-2.925-11.326-1.605-23.382-4.366a4 4 0 0 0-.606-.057zm102.54 5.241-10.612 1.7q-2.693.432-2.26 3.125 3.946 27.046 7.033 32.518t5.87 7.677q2.785 2.205 5.094 1.45 2.373-.712 2.08-2.875-.236-2.172-2.96-2.62-3.711-20.4-2.435-37.95.365-2.544-1.81-3.025zm29.766.393q-3.56-.055-8.671.59-8.13.972-14.752 2.751-2.31.757-1.92 3.181l1.592 12.01q.44 2.747 3.08 2.324l23.133-.78q.204 1.957 2.25 1.629 2.038-.383 2.705-3.804.66-3.475-.882-15.161-.39-2.424-2.82-2.421-1.578-.285-3.715-.319zm-70.98 24.208a1 1 0 0 1 .24.044c1.024.32 2.086.49 3.176.49s2.153-.17 3.177-.49c.829-.259 1.416.619 1.907 1.417-3.303.01-7.536.018-10.188.031.447-.727.97-1.531 1.687-1.492zm-90.673 5.308q2.91-.046 4.536.722 2.228 1.023 2.228 2.588v.24q0 1.686-2.228 1.626h-3.972q-3.612 0-4.213-2.347-.542-2.347 1.565-2.709 1.113-.105 2.084-.12zm34.318.684q.846.015 1.945.191l.919.147q4.443.712 4.089 2.574l-.125.655q-.363 1.913-4.808 1.2l-.919-.147q-4.392-.703-4.029-2.616l.125-.654q.266-1.396 2.803-1.35zm111.535.787q-.175 0-.37.03-1.562.252-.86 4.282l.266 1.67q.63 3.932 6.817 4.266 6.24.327 14.032-2.414 2.13-.84 1.712-2.76-.373-1.984-2.823-1.758-6.558.444-17.297-1.758-.25-1.555-1.477-1.558z" font-family="Top-Heavy_Font" font-size="61.635" font-weight="400" paint-order="stroke fill markers" style="-inkscape-font-specification:Top-Heavy_Font" transform="translate(-254.835 185.242)"/><path fill="#79cdee" stroke="#fff" stroke-linecap="round" stroke-width="4.233" d="M151.653 13.607c-3.817 0-7.256 2.251-7.704 4.664.448 2.414 3.887 4.665 7.704 4.665 3.227 0 6.432-1.757 8.096-3.635v5.174c-3.82.272-7.26 2.614-9.794 6.264-2.697 3.887-4.367 9.256-4.367 15.188 0 2.813.674 2.844-2.628 10.908-.334.815 4.198-1.261 4.507-.463.594 1.533 2.098 5 5.051 7.701.245.224.963 1.16 1.527 2.073-7.983.042-13.31.092-14.976.157q-3.01 0-3.01 4.634l1.686 17.756q1.204 3.19 4.214 3.19 9.088-.12 25.4-2.949-18.057 13.061-19.08 14.085-1.024 1.023.962 3.852 1.987 2.768 3.431 1.745 1.445-1.023 7.464-3.19t9.931-.3q3.973 1.805 3.973 6.38t-4.876 5.717q-4.815 1.204-7.824.241-2.95-.963-3.25 1.625-.241 2.649 8.245 2.769 8.548.12 13.543-5.598 4.995-5.658.361-12.58-4.575-6.981-18.658-3.671l19.982-13.723q2.589-1.264 2.89-4.093l.481-11.496q0-4.635-3.01-4.635c-6.382.01-9.97.03-14.949.045.56-.9 1.26-1.813 1.501-2.034 2.954-2.7 4.457-6.168 5.05-7.701.31-.798 4.842 1.278 4.508.463-3.302-8.064-2.628-8.095-2.628-10.908 0-5.932-1.67-11.301-4.367-15.188-2.559-3.686-6.044-6.035-9.909-6.268v-5.304c1.627 1.928 4.907 3.769 8.211 3.769 3.817 0 7.257-2.251 7.705-4.665-.448-2.413-3.888-4.664-7.705-4.664-3.816 0-7.602 2.455-8.844 4.664l.024.04h-.048l.024-.04c-1.242-2.21-5.028-4.664-8.844-4.664zM37.9 26.44q-2.528 0-2.528 3.792-.842 30.216 3.852 38.943 4.695 8.728 9.691 8.788h.963q4.995 0 5.056-2.648t-3.31-2.649q-1.927-15.107 1.023-42.434 0-3.792-2.528-3.792zm19.803.903q-3.01 0-3.01 3.491l.181 11.496q.06 1.806 1.505 1.686l14.205-.12q.782 0 .782 1.203 0 .783-.782.542l-14.687.12q-.721.12-.903 1.325l.18 9.209q0 2.227 1.987 2.227h13.904q.903.48.963 1.805l.24 2.047q.483 1.565-2.708.722-3.19-.843-7.764-.662-4.515.18-5.718 4.454-1.204 4.213.963 7.825 2.166 3.55 12.58 3.551h4.935q4.995.3 7.102-3.852 3.612 1.323 4.876-.542 1.324-1.866.36-3.25-.901-1.385-5.958-4.394l.482-5.538q0-1.866 1.805-1.865h4.996q1.806-.06 2.107-2.348l.662-9.81q.06-1.144-.903-1.385l-7.463.12q-.783.241-.783-.602 0-1.023.783-1.023h7.342q1.265.12 1.325-1.384l.722-11.557q0-3.49-3.37-3.49zm38.052 7.465q-2.007-.037-2.427 2.165L91.883 52.3q-.48 2.517 2.074 2.926l12.043.89q1.532.246 1.244 1.756l-.272 4.469q-.25 1.308-1.577 1.096l-4.138.167q-5.973.133-7.765 4.566-1.782 4.383.443 7.073 2.286 2.648 8.98 3.149 3.71.698 6.273-.604 2.574-1.35 3.248-3.785.393-2.063 2.538-1.72c1.969.151 3.78.359 5.466.61a22 22 0 0 1-.486 1.432q-1.59 4.206-3.388 5.63-1.788 1.374-.955 2.803.824 1.48 6.517-3.26a65 65 0 0 0 5.375-4.999 24 24 0 0 1 1.914.719q3.09 1.74 4.16-.009 1.079-1.797-1.886-4.192a22 22 0 0 0-.682-.553c.234-.298.47-.596.695-.897q3.934-5.178 7.351-15.108.48-2.517-2.074-2.926l-8.952-1.64q-2.554-.409-3.033 2.107c-1.076 5.737-2.015 10.392-2.827 14.036a43 43 0 0 0-5.747-1.353q-1.329-.213-1.079-1.521l6.475-21.007q.48-2.517-2.075-2.925-11.326-1.605-23.382-4.366a4 4 0 0 0-.606-.057zm102.54 5.241-10.612 1.7q-2.693.432-2.26 3.125 3.946 27.046 7.033 32.518t5.87 7.677q2.785 2.205 5.094 1.45 2.373-.712 2.08-2.875-.236-2.172-2.96-2.62-3.711-20.4-2.435-37.95.365-2.544-1.81-3.025zm29.766.393q-3.56-.055-8.671.59-8.13.972-14.752 2.751-2.31.757-1.92 3.181l1.592 12.01q.44 2.747 3.08 2.324l23.133-.78q.204 1.957 2.25 1.629 2.038-.383 2.705-3.804.66-3.475-.882-15.161-.39-2.424-2.82-2.421-1.578-.285-3.715-.319zm-70.98 24.208a1 1 0 0 1 .24.044c1.024.32 2.086.49 3.176.49s2.153-.17 3.177-.49c.829-.259 1.416.619 1.907 1.417-3.303.01-7.536.018-10.188.031.447-.727.97-1.531 1.687-1.492zm-90.673 5.308q2.91-.046 4.536.722 2.228 1.023 2.228 2.588v.24q0 1.686-2.228 1.626h-3.972q-3.612 0-4.213-2.347-.542-2.347 1.565-2.709 1.113-.105 2.084-.12zm34.318.684q.846.015 1.945.191l.919.147q4.443.712 4.089 2.574l-.125.655q-.363 1.913-4.808 1.2l-.919-.147q-4.392-.703-4.029-2.616l.125-.654q.266-1.396 2.803-1.35zm111.535.787q-.175 0-.37.03-1.562.252-.86 4.282l.266 1.67q.63 3.932 6.817 4.266 6.24.327 14.032-2.414 2.13-.84 1.712-2.76-.373-1.984-2.823-1.758-6.558.444-17.297-1.758-.25-1.555-1.477-1.558z" font-family="Top-Heavy_Font" font-size="61.635" font-weight="400" paint-order="stroke fill markers" style="-inkscape-font-specification:Top-Heavy_Font" transform="translate(-254.835 185.242)"/><path fill="#fdb515" d="M-141.973 287.502c-1.245 0-2.367.734-2.513 1.521.146.788 1.268 1.522 2.513 1.522 1.054 0 2.1-.573 2.642-1.185v1.688c-1.246.089-2.369.853-3.195 2.043-.88 1.269-1.425 3.02-1.425 4.956 0 .918.22.928-.858 3.56-.109.265 1.37-.412 1.47-.152.195.5.685 1.632 1.649 2.513.112.103.532.662.683 1.017.212-.132.453-.949.884-.814a3.46 3.46 0 0 0 2.073 0c.431-.135.672.682.884.814.151-.355.57-.914.683-1.017.964-.881 1.454-2.012 1.648-2.513.1-.26 1.58.417 1.47.152-1.077-2.632-.857-2.642-.857-3.56 0-1.935-.545-3.687-1.425-4.956-.835-1.202-1.972-1.969-3.233-2.045v-1.73c.531.629 1.601 1.23 2.68 1.23 1.245 0 2.367-.735 2.513-1.523-.146-.787-1.268-1.522-2.514-1.522s-2.48.801-2.886 1.522l.008.014h-.015l.008-.014c-.406-.72-1.641-1.522-2.886-1.522z"/><path fill="#79cdee" d="M-167.844 280.688c-1.73 0-3.29 1.021-3.493 2.115.203 1.095 1.763 2.115 3.493 2.115 1.464 0 2.917-.796 3.671-1.647v2.345c-1.731.124-3.292 1.186-4.44 2.84-1.224 1.763-1.98 4.198-1.98 6.887 0 1.276.305 1.29-1.192 4.947-.152.37 1.903-.572 2.044-.21.269.695.95 2.267 2.29 3.492.155.142.739.92.95 1.413.293-.184.628-1.319 1.228-1.131a4.8 4.8 0 0 0 2.88 0c.6-.188.935.947 1.228 1.131.211-.494.794-1.27.95-1.413 1.339-1.225 2.02-2.797 2.29-3.492.14-.362 2.195.58 2.044.21-1.498-3.657-1.192-3.671-1.192-4.947 0-2.69-.757-5.124-1.98-6.886-1.16-1.672-2.74-2.737-4.493-2.842v-2.405c.738.874 2.225 1.708 3.723 1.708 1.73 0 3.29-1.02 3.494-2.115-.203-1.094-1.763-2.115-3.494-2.115-1.73 0-3.447 1.113-4.01 2.115l.01.019h-.022l.01-.019c-.562-1.002-2.28-2.115-4.01-2.115z"/><path fill="#fcf9f7" d="M-199.326 271.547c-2.382 0-4.528 1.405-4.808 2.911.28 1.506 2.426 2.911 4.808 2.911 2.014 0 4.014-1.096 5.052-2.268v3.229c-2.383.17-4.53 1.63-6.11 3.908-1.684 2.426-2.726 5.777-2.726 9.478 0 1.755.42 1.775-1.64 6.807-.209.509 2.62-.787 2.812-.289.37.957 1.31 3.12 3.152 4.806.214.196 1.017 1.265 1.307 1.945.404-.254.865-1.815 1.69-1.557a6.6 6.6 0 0 0 3.964 0c.826-.258 1.287 1.303 1.69 1.557.29-.68 1.093-1.749 1.307-1.945 1.843-1.685 2.782-3.849 3.152-4.806.193-.498 3.021.798 2.813.29-2.06-5.033-1.64-5.053-1.64-6.808 0-3.701-1.042-7.052-2.725-9.478-1.597-2.3-3.772-3.765-6.184-3.91v-3.31c1.016 1.203 3.063 2.351 5.125 2.351 2.381 0 4.528-1.405 4.807-2.91-.28-1.507-2.426-2.912-4.807-2.912s-4.745 1.533-5.52 2.911l.015.026h-.03l.014-.026c-.775-1.378-3.138-2.91-5.52-2.91z"/><path fill="#79cdee" stroke="#fff" stroke-linecap="round" stroke-width="4.233" d="M151.653 13.607c-3.817 0-7.256 2.251-7.704 4.664.448 2.414 3.887 4.665 7.704 4.665 3.227 0 6.432-1.757 8.096-3.635v5.174c-3.82.272-7.26 2.614-9.794 6.264-2.697 3.887-4.367 9.256-4.367 15.188 0 2.813.674 2.844-2.628 10.908-.334.815 4.198-1.261 4.507-.463.594 1.533 2.098 5 5.051 7.701.245.224.963 1.16 1.527 2.073-7.983.042-13.31.092-14.976.157q-3.01 0-3.01 4.634l1.686 17.756q1.204 3.19 4.214 3.19 9.088-.12 25.4-2.949-18.057 13.061-19.08 14.085-1.024 1.023.962 3.852 1.987 2.768 3.431 1.745 1.445-1.023 7.464-3.19t9.931-.3q3.973 1.805 3.973 6.38t-4.876 5.717q-4.815 1.204-7.824.241-2.95-.963-3.25 1.625-.241 2.649 8.245 2.769 8.548.12 13.543-5.598 4.995-5.658.361-12.58-4.575-6.981-18.658-3.671l19.982-13.723q2.589-1.264 2.89-4.093l.481-11.496q0-4.635-3.01-4.635c-6.382.01-9.97.03-14.949.045.56-.9 1.26-1.813 1.501-2.034 2.954-2.7 4.457-6.168 5.05-7.701.31-.798 4.842 1.278 4.508.463-3.302-8.064-2.628-8.095-2.628-10.908 0-5.932-1.67-11.301-4.367-15.188-2.559-3.686-6.044-6.035-9.909-6.268v-5.304c1.627 1.928 4.907 3.769 8.211 3.769 3.817 0 7.257-2.251 7.705-4.665-.448-2.413-3.888-4.664-7.705-4.664-3.816 0-7.602 2.455-8.844 4.664l.024.04h-.048l.024-.04c-1.242-2.21-5.028-4.664-8.844-4.664zM37.9 26.44q-2.528 0-2.528 3.792-.842 30.216 3.852 38.943 4.695 8.728 9.691 8.788h.963q4.995 0 5.056-2.648t-3.31-2.649q-1.927-15.107 1.023-42.434 0-3.792-2.528-3.792zm19.803.903q-3.01 0-3.01 3.491l.181 11.496q.06 1.806 1.505 1.686l14.205-.12q.782 0 .782 1.203 0 .783-.782.542l-14.687.12q-.721.12-.903 1.325l.18 9.209q0 2.227 1.987 2.227h13.904q.903.48.963 1.805l.24 2.047q.483 1.565-2.708.722-3.19-.843-7.764-.662-4.515.18-5.718 4.454-1.204 4.213.963 7.825 2.166 3.55 12.58 3.551h4.935q4.995.3 7.102-3.852 3.612 1.323 4.876-.542 1.324-1.866.36-3.25-.901-1.385-5.958-4.394l.482-5.538q0-1.866 1.805-1.865h4.996q1.806-.06 2.107-2.348l.662-9.81q.06-1.144-.903-1.385l-7.463.12q-.783.241-.783-.602 0-1.023.783-1.023h7.342q1.265.12 1.325-1.384l.722-11.557q0-3.49-3.37-3.49zm38.052 7.465q-2.007-.037-2.427 2.165L91.883 52.3q-.48 2.517 2.074 2.926l12.043.89q1.532.246 1.244 1.756l-.272 4.469q-.25 1.308-1.577 1.096l-4.138.167q-5.973.133-7.765 4.566-1.782 4.383.443 7.073 2.286 2.648 8.98 3.149 3.71.698 6.273-.604 2.574-1.35 3.248-3.785.393-2.063 2.538-1.72c1.969.151 3.78.359 5.466.61a22 22 0 0 1-.486 1.432q-1.59 4.206-3.388 5.63-1.788 1.374-.955 2.803.824 1.48 6.517-3.26a65 65 0 0 0 5.375-4.999 24 24 0 0 1 1.914.719q3.09 1.74 4.16-.009 1.079-1.797-1.886-4.192a22 22 0 0 0-.682-.553c.234-.298.47-.596.695-.897q3.934-5.178 7.351-15.108.48-2.517-2.074-2.926l-8.952-1.64q-2.554-.409-3.033 2.107c-1.076 5.737-2.015 10.392-2.827 14.036a43 43 0 0 0-5.747-1.353q-1.329-.213-1.079-1.521l6.475-21.007q.48-2.517-2.075-2.925-11.326-1.605-23.382-4.366a4 4 0 0 0-.606-.057zm102.54 5.241-10.612 1.7q-2.693.432-2.26 3.125 3.946 27.046 7.033 32.518t5.87 7.677q2.785 2.205 5.094 1.45 2.373-.712 2.08-2.875-.236-2.172-2.96-2.62-3.711-20.4-2.435-37.95.365-2.544-1.81-3.025zm29.766.393q-3.56-.055-8.671.59-8.13.972-14.752 2.751-2.31.757-1.92 3.181l1.592 12.01q.44 2.747 3.08 2.324l23.133-.78q.204 1.957 2.25 1.629 2.038-.383 2.705-3.804.66-3.475-.882-15.161-.39-2.424-2.82-2.421-1.578-.285-3.715-.319zm-70.98 24.208a1 1 0 0 1 .24.044c1.024.32 2.086.49 3.176.49s2.153-.17 3.177-.49c.829-.259 1.416.619 1.907 1.417-3.303.01-7.536.018-10.188.031.447-.727.97-1.531 1.687-1.492zm-90.673 5.308q2.91-.046 4.536.722 2.228 1.023 2.228 2.588v.24q0 1.686-2.228 1.626h-3.972q-3.612 0-4.213-2.347-.542-2.347 1.565-2.709 1.113-.105 2.084-.12zm34.318.684q.846.015 1.945.191l.919.147q4.443.712 4.089 2.574l-.125.655q-.363 1.913-4.808 1.2l-.919-.147q-4.392-.703-4.029-2.616l.125-.654q.266-1.396 2.803-1.35zm111.535.787q-.175 0-.37.03-1.562.252-.86 4.282l.266 1.67q.63 3.932 6.817 4.266 6.24.327 14.032-2.414 2.13-.84 1.712-2.76-.373-1.984-2.823-1.758-6.558.444-17.297-1.758-.25-1.555-1.477-1.558z" font-family="Top-Heavy_Font" font-size="61.635" font-weight="400" paint-order="stroke fill markers" style="-inkscape-font-specification:Top-Heavy_Font" transform="translate(2.845 135.812)"/><path fill="#79cdee" stroke="#fff" stroke-linecap="round" stroke-width="4.233" d="M151.653 13.607c-3.817 0-7.256 2.251-7.704 4.664.448 2.414 3.887 4.665 7.704 4.665 3.227 0 6.432-1.757 8.096-3.635v5.174c-3.82.272-7.26 2.614-9.794 6.264-2.697 3.887-4.367 9.256-4.367 15.188 0 2.813.674 2.844-2.628 10.908-.334.815 4.198-1.261 4.507-.463.594 1.533 2.098 5 5.051 7.701.245.224.963 1.16 1.527 2.073-7.983.042-13.31.092-14.976.157q-3.01 0-3.01 4.634l1.686 17.756q1.204 3.19 4.214 3.19 9.088-.12 25.4-2.949-18.057 13.061-19.08 14.085-1.024 1.023.962 3.852 1.987 2.768 3.431 1.745 1.445-1.023 7.464-3.19t9.931-.3q3.973 1.805 3.973 6.38t-4.876 5.717q-4.815 1.204-7.824.241-2.95-.963-3.25 1.625-.241 2.649 8.245 2.769 8.548.12 13.543-5.598 4.995-5.658.361-12.58-4.575-6.981-18.658-3.671l19.982-13.723q2.589-1.264 2.89-4.093l.481-11.496q0-4.635-3.01-4.635c-6.382.01-9.97.03-14.949.045.56-.9 1.26-1.813 1.501-2.034 2.954-2.7 4.457-6.168 5.05-7.701.31-.798 4.842 1.278 4.508.463-3.302-8.064-2.628-8.095-2.628-10.908 0-5.932-1.67-11.301-4.367-15.188-2.559-3.686-6.044-6.035-9.909-6.268v-5.304c1.627 1.928 4.907 3.769 8.211 3.769 3.817 0 7.257-2.251 7.705-4.665-.448-2.413-3.888-4.664-7.705-4.664-3.816 0-7.602 2.455-8.844 4.664l.024.04h-.048l.024-.04c-1.242-2.21-5.028-4.664-8.844-4.664zM37.9 26.44q-2.528 0-2.528 3.792-.842 30.216 3.852 38.943 4.695 8.728 9.691 8.788h.963q4.995 0 5.056-2.648t-3.31-2.649q-1.927-15.107 1.023-42.434 0-3.792-2.528-3.792zm19.803.903q-3.01 0-3.01 3.491l.181 11.496q.06 1.806 1.505 1.686l14.205-.12q.782 0 .782 1.203 0 .783-.782.542l-14.687.12q-.721.12-.903 1.325l.18 9.209q0 2.227 1.987 2.227h13.904q.903.48.963 1.805l.24 2.047q.483 1.565-2.708.722-3.19-.843-7.764-.662-4.515.18-5.718 4.454-1.204 4.213.963 7.825 2.166 3.55 12.58 3.551h4.935q4.995.3 7.102-3.852 3.612 1.323 4.876-.542 1.324-1.866.36-3.25-.901-1.385-5.958-4.394l.482-5.538q0-1.866 1.805-1.865h4.996q1.806-.06 2.107-2.348l.662-9.81q.06-1.144-.903-1.385l-7.463.12q-.783.241-.783-.602 0-1.023.783-1.023h7.342q1.265.12 1.325-1.384l.722-11.557q0-3.49-3.37-3.49zm38.052 7.465q-2.007-.037-2.427 2.165L91.883 52.3q-.48 2.517 2.074 2.926l12.043.89q1.532.246 1.244 1.756l-.272 4.469q-.25 1.308-1.577 1.096l-4.138.167q-5.973.133-7.765 4.566-1.782 4.383.443 7.073 2.286 2.648 8.98 3.149 3.71.698 6.273-.604 2.574-1.35 3.248-3.785.393-2.063 2.538-1.72c1.969.151 3.78.359 5.466.61a22 22 0 0 1-.486 1.432q-1.59 4.206-3.388 5.63-1.788 1.374-.955 2.803.824 1.48 6.517-3.26a65 65 0 0 0 5.375-4.999 24 24 0 0 1 1.914.719q3.09 1.74 4.16-.009 1.079-1.797-1.886-4.192a22 22 0 0 0-.682-.553c.234-.298.47-.596.695-.897q3.934-5.178 7.351-15.108.48-2.517-2.074-2.926l-8.952-1.64q-2.554-.409-3.033 2.107c-1.076 5.737-2.015 10.392-2.827 14.036a43 43 0 0 0-5.747-1.353q-1.329-.213-1.079-1.521l6.475-21.007q.48-2.517-2.075-2.925-11.326-1.605-23.382-4.366a4 4 0 0 0-.606-.057zm102.54 5.241-10.612 1.7q-2.693.432-2.26 3.125 3.946 27.046 7.033 32.518t5.87 7.677q2.785 2.205 5.094 1.45 2.373-.712 2.08-2.875-.236-2.172-2.96-2.62-3.711-20.4-2.435-37.95.365-2.544-1.81-3.025zm29.766.393q-3.56-.055-8.671.59-8.13.972-14.752 2.751-2.31.757-1.92 3.181l1.592 12.01q.44 2.747 3.08 2.324l23.133-.78q.204 1.957 2.25 1.629 2.038-.383 2.705-3.804.66-3.475-.882-15.161-.39-2.424-2.82-2.421-1.578-.285-3.715-.319zm-70.98 24.208a1 1 0 0 1 .24.044c1.024.32 2.086.49 3.176.49s2.153-.17 3.177-.49c.829-.259 1.416.619 1.907 1.417-3.303.01-7.536.018-10.188.031.447-.727.97-1.531 1.687-1.492zm-90.673 5.308q2.91-.046 4.536.722 2.228 1.023 2.228 2.588v.24q0 1.686-2.228 1.626h-3.972q-3.612 0-4.213-2.347-.542-2.347 1.565-2.709 1.113-.105 2.084-.12zm34.318.684q.846.015 1.945.191l.919.147q4.443.712 4.089 2.574l-.125.655q-.363 1.913-4.808 1.2l-.919-.147q-4.392-.703-4.029-2.616l.125-.654q.266-1.396 2.803-1.35zm111.535.787q-.175 0-.37.03-1.562.252-.86 4.282l.266 1.67q.63 3.932 6.817 4.266 6.24.327 14.032-2.414 2.13-.84 1.712-2.76-.373-1.984-2.823-1.758-6.558.444-17.297-1.758-.25-1.555-1.477-1.558z" font-family="Top-Heavy_Font" font-size="61.635" font-weight="400" paint-order="stroke fill markers" style="-inkscape-font-specification:Top-Heavy_Font" transform="translate(2.845 135.812)"/><path fill="#fdb515" stroke="#fff" stroke-width="2.117" d="M115.707 238.072c-1.245 0-2.367.734-2.513 1.521.146.788 1.268 1.522 2.513 1.522 1.054 0 2.1-.573 2.642-1.185v1.688c-1.246.089-2.369.853-3.195 2.043-.88 1.269-1.425 3.02-1.425 4.956 0 .918.22.928-.858 3.56-.109.265 1.37-.412 1.47-.152.195.5.685 1.632 1.649 2.513.112.103.532.662.683 1.017.212-.132.453-.949.884-.814a3.46 3.46 0 0 0 2.073 0c.431-.135.672.682.884.814.151-.355.57-.914.683-1.017.964-.881 1.454-2.012 1.648-2.513.1-.26 1.58.417 1.47.152-1.077-2.632-.857-2.642-.857-3.56 0-1.935-.545-3.687-1.425-4.956-.835-1.202-1.972-1.969-3.233-2.045v-1.73c.531.629 1.601 1.23 2.68 1.23 1.245 0 2.367-.735 2.513-1.523-.146-.787-1.268-1.522-2.514-1.522s-2.48.801-2.886 1.522l.008.014h-.015l.008-.014c-.406-.72-1.641-1.522-2.886-1.522z" paint-order="stroke markers fill"/><path fill="#79cdee" stroke="#fff" stroke-width="2.117" d="M89.836 231.258c-1.73 0-3.29 1.021-3.493 2.115.203 1.095 1.763 2.115 3.493 2.115 1.464 0 2.917-.796 3.671-1.647v2.345c-1.731.124-3.292 1.186-4.44 2.84-1.224 1.763-1.98 4.198-1.98 6.887 0 1.276.305 1.29-1.192 4.947-.152.37 1.903-.572 2.044-.21.269.695.95 2.267 2.29 3.492.155.142.739.92.95 1.413.293-.184.628-1.319 1.228-1.131a4.8 4.8 0 0 0 2.88 0c.6-.188.935.947 1.228 1.131.211-.494.794-1.27.95-1.413 1.339-1.225 2.02-2.797 2.29-3.492.14-.362 2.195.58 2.044.21-1.498-3.657-1.192-3.671-1.192-4.947 0-2.69-.757-5.124-1.98-6.886-1.16-1.672-2.74-2.737-4.493-2.842v-2.405c.738.874 2.225 1.708 3.723 1.708 1.73 0 3.29-1.02 3.494-2.115-.203-1.094-1.763-2.115-3.494-2.115-1.73 0-3.447 1.113-4.01 2.115l.01.019h-.022l.01-.019c-.562-1.002-2.28-2.115-4.01-2.115z" paint-order="stroke markers fill"/><path fill="#fcf9f7" stroke="#fff" stroke-width="2.117" d="M58.354 222.117c-2.382 0-4.528 1.405-4.808 2.911.28 1.506 2.426 2.911 4.808 2.911 2.014 0 4.014-1.096 5.052-2.268v3.229c-2.383.17-4.53 1.63-6.11 3.908-1.684 2.426-2.726 5.777-2.726 9.478 0 1.755.42 1.775-1.64 6.807-.209.509 2.62-.787 2.812-.289.37.957 1.31 3.12 3.152 4.806.214.196 1.017 1.265 1.307 1.945.404-.254.865-1.815 1.69-1.557a6.6 6.6 0 0 0 3.964 0c.826-.258 1.287 1.303 1.69 1.557.29-.68 1.093-1.749 1.307-1.945 1.843-1.685 2.782-3.849 3.152-4.806.193-.498 3.021.798 2.813.29-2.06-5.033-1.64-5.053-1.64-6.808 0-3.701-1.042-7.052-2.725-9.478-1.597-2.3-3.772-3.765-6.184-3.91v-3.31c1.016 1.203 3.063 2.351 5.125 2.351 2.381 0 4.528-1.405 4.807-2.91-.28-1.507-2.426-2.912-4.807-2.912s-4.745 1.533-5.52 2.911l.015.026h-.03l.014-.026c-.775-1.378-3.138-2.91-5.52-2.91z" paint-order="stroke markers fill"/><g fill="#79cdee" stroke="#fff" stroke-linecap="round" stroke-width="4.233" font-family="Top-Heavy_Font" font-weight="400" paint-order="stroke fill markers"><text xml:space="preserve" x="5.37" y="54.092" font-size="61.635" style="-inkscape-font-specification:Top-Heavy_Font" transform="translate(-8.047 80.94)"><tspan x="5.37" y="54.092">ほ</tspan></text><text xml:space="preserve" x="63.872" y="45.48" font-size="52.707" style="-inkscape-font-specification:Top-Heavy_Font" transform="matrix(.99239 .15889 -.18623 .97786 -8.047 80.94)"><tspan x="63.872" y="45.48">み</tspan></text><text xml:space="preserve" x="97.815" y="53.539" font-size="63.824" style="-inkscape-font-specification:Top-Heavy_Font" transform="translate(-8.047 80.94)"><tspan x="97.815" y="53.539">ろ</tspan></text><text xml:space="preserve" x="148.048" y="84.989" font-size="55.859" style="-inkscape-font-specification:Top-Heavy_Font" transform="rotate(-9.104 504.297 91.01)"><tspan x="148.048" y="84.989">に</tspan></text></g><path fill="#fdb515" stroke="#fff" stroke-width="3.008" d="M242.515 115.139c-1.769 0-3.364 1.045-3.572 2.164.208 1.119 1.803 2.162 3.573 2.162 1.496 0 2.983-.814 3.754-1.685v2.4c-1.77.126-3.366 1.211-4.541 2.904-1.251 1.802-2.025 4.292-2.025 7.042 0 1.305.312 1.32-1.22 5.06-.154.377 1.948-.586 2.091-.216.275.711.973 2.319 2.342 3.571.16.146.756.94.971 1.446.3-.189.643-1.35 1.257-1.158a4.9 4.9 0 0 0 2.945 0c.613-.191.956.97 1.256 1.158.216-.505.812-1.3.971-1.446 1.37-1.252 2.067-2.86 2.342-3.57.143-.37 2.245.592 2.09.214-1.531-3.74-1.219-3.754-1.219-5.059 0-2.75-.773-5.24-2.024-7.042-1.187-1.71-2.803-2.798-4.595-2.906v-2.46c.754.894 2.275 1.747 3.807 1.747 1.77 0 3.365-1.043 3.573-2.162-.208-1.12-1.803-2.164-3.573-2.164s-3.525 1.139-4.1 2.164l.01.018h-.022l.011-.018c-.576-1.025-2.331-2.164-4.101-2.164z" paint-order="stroke markers fill"/><path fill="#79cdee" stroke="#fff" stroke-width="3.87" d="M212.242 94.925c-3.164 0-6.016 1.867-6.387 3.867.371 2.001 3.223 3.868 6.387 3.868 2.676 0 5.334-1.456 6.713-3.013v4.29c-3.166.225-6.019 2.166-8.12 5.192-2.236 3.223-3.62 7.676-3.62 12.593 0 2.333.558 2.359-2.18 9.045-.277.676 3.481-1.046 3.737-.384.493 1.272 1.74 4.146 4.188 6.386.285.26 1.351 1.68 1.737 2.584.537-.337 1.15-2.412 2.246-2.07a8.77 8.77 0 0 0 5.266.001c1.097-.343 1.71 1.732 2.247 2.07.385-.904 1.451-2.325 1.736-2.585 2.448-2.24 3.695-5.114 4.187-6.386.256-.662 4.014 1.06 3.738.384-2.739-6.686-2.18-6.712-2.18-9.045 0-4.917-1.383-9.37-3.62-12.593-2.122-3.056-5.012-5.003-8.216-5.196v-4.397c1.35 1.598 4.069 3.124 6.808 3.124 3.165 0 6.017-1.867 6.388-3.868-.37-2-3.223-3.867-6.388-3.867s-6.303 2.035-7.333 3.867l.02.034h-.041l.02-.034c-1.03-1.832-4.17-3.867-7.334-3.867z" paint-order="stroke markers fill"/><path fill="#79cdee" stroke="#fff" stroke-linecap="round" stroke-width="4.233" d="M153.348 4.017q-39.516.063-44.377.25-3.116 0-3.116 4.8l1.745 18.386q1.246 3.303 4.363 3.303 9.41-.124 26.302-3.054-18.699 13.525-19.758 14.585-1.06 1.06.997 3.989 2.058 2.867 3.553 1.807 1.496-1.059 7.729-3.303 6.232-2.244 10.284-.312 4.113 1.87 4.113 6.607t-5.048 5.921q-4.987 1.246-8.103.25-3.054-.998-3.365 1.682-.25 2.743 8.539 2.868 8.85.124 14.023-5.797 5.174-5.859.374-13.026-4.737-7.23-19.322-3.803l20.694-14.21q2.679-1.31 2.991-4.239l.499-11.904q0-4.8-3.117-4.8zM10.341 6.986q-2.528 0-2.528 3.792-.842 30.215 3.852 38.942 4.695 8.728 9.69 8.789h.964q4.995 0 5.056-2.649t-3.31-2.648q-1.927-15.108 1.022-42.434 0-3.792-2.528-3.792zm19.802.902q-3.009 0-3.009 3.492l.18 11.496q.06 1.806 1.505 1.685l14.205-.12q.783 0 .783 1.203 0 .783-.783.543l-14.686.12q-.723.12-.903 1.324l.18 9.21q0 2.226 1.987 2.226h13.904q.902.481.963 1.805l.24 2.047q.482 1.565-2.708.722t-7.764-.662q-4.515.18-5.719 4.454-1.203 4.215.963 7.825 2.167 3.552 12.58 3.551h4.936q4.995.301 7.102-3.852 3.612 1.324 4.876-.542 1.323-1.866.36-3.25-.903-1.384-5.958-4.394l.481-5.537q0-1.866 1.806-1.866h4.996q1.806-.06 2.107-2.348l.662-9.81q.06-1.144-.903-1.385l-7.464.12q-.782.241-.782-.601 0-1.023.782-1.024h7.343q1.264.121 1.324-1.384l.723-11.556q0-3.492-3.371-3.492zm140.592 7.944-10.61 1.7q-2.694.432-2.262 3.125 3.947 27.045 7.033 32.518 3.087 5.471 5.871 7.677t5.094 1.45q2.372-.713 2.081-2.876-.237-2.17-2.961-2.62-3.711-20.397-2.435-37.95.365-2.544-1.81-3.024zm-102.54.05q-2.007-.036-2.426 2.165l-1.446 15.329q-.48 2.516 2.075 2.925l12.042.89q1.533.246 1.245 1.756l-.272 4.469q-.25 1.308-1.577 1.096l-4.138.167q-5.973.133-7.765 4.566-1.782 4.383.443 7.073 2.285 2.648 8.98 3.15 3.71.696 6.273-.604 2.574-1.352 3.248-3.785.393-2.065 2.538-1.72c1.969.15 3.78.358 5.466.61a22 22 0 0 1-.486 1.432q-1.59 4.206-3.388 5.63-1.788 1.373-.955 2.803.824 1.48 6.516-3.261a65 65 0 0 0 5.376-4.998c.675.226 1.324.462 1.914.718q3.09 1.74 4.16-.008 1.079-1.798-1.886-4.192-.334-.282-.682-.553c.234-.298.47-.597.695-.897q3.933-5.18 7.351-15.109.48-2.516-2.075-2.926l-8.951-1.64q-2.554-.409-3.034 2.107c-1.075 5.737-2.015 10.392-2.826 14.036a43 43 0 0 0-5.747-1.353q-1.328-.212-1.08-1.52l6.475-21.007q.48-2.517-2.074-2.926Q80.856 18.7 68.802 15.94a4 4 0 0 0-.606-.057Zm132.307.343q-3.561-.055-8.67.591-8.133.971-14.753 2.75-2.31.758-1.921 3.18l1.593 12.01q.44 2.748 3.08 2.324l23.133-.778q.203 1.956 2.25 1.628 2.038-.383 2.705-3.804.66-3.475-.883-15.161-.388-2.424-2.818-2.421-1.58-.285-3.716-.32zm-15.8 30.987q-.175 0-.37.03-1.562.251-.861 4.282l.268 1.67q.63 3.931 6.815 4.267 6.24.325 14.032-2.415 2.13-.84 1.713-2.76-.373-1.984-2.823-1.758-6.558.444-17.298-1.758-.249-1.556-1.476-1.558zm-145.854 3.29q2.912-.044 4.537.723 2.227 1.023 2.227 2.589v.24q0 1.685-2.227 1.625h-3.972q-3.611 0-4.214-2.347-.541-2.347 1.565-2.709 1.114-.105 2.084-.12zm34.32 1.214q.845.015 1.943.191l.92.148q4.444.711 4.09 2.573l-.126.655q-.364 1.912-4.808 1.2l-.92-.146q-4.391-.704-4.028-2.616l.125-.654q.265-1.398 2.803-1.35z" font-family="Top-Heavy_Font" font-size="61.635" font-weight="400" paint-order="stroke fill markers" style="-inkscape-font-specification:Top-Heavy_Font" transform="translate(11.645 2.695)scale(.91409)"/><path fill="#fdb515" stroke="#fff" stroke-width="2.75" d="M241.649 35.407c-1.617 0-3.075.955-3.265 1.978.19 1.023 1.648 1.977 3.266 1.977 1.367 0 2.726-.745 3.431-1.54v2.193c-1.618.115-3.077 1.107-4.15 2.655-1.144 1.647-1.852 3.923-1.852 6.437 0 1.193.285 1.206-1.115 4.625-.14.345 1.78-.536 1.911-.198.252.65.89 2.12 2.141 3.265.146.133.691.859.888 1.321.274-.172.587-1.234 1.149-1.058a4.5 4.5 0 0 0 2.692 0c.56-.175.874.887 1.148 1.058.197-.461.742-1.188.887-1.321 1.253-1.145 1.89-2.615 2.141-3.264.13-.338 2.052.542 1.91.196-1.399-3.419-1.114-3.431-1.114-4.624 0-2.514-.706-4.79-1.85-6.437-1.085-1.563-2.562-2.558-4.2-2.657v-2.248c.69.817 2.08 1.597 3.48 1.597 1.618 0 3.076-.954 3.266-1.977-.19-1.024-1.648-1.978-3.266-1.978s-3.222 1.041-3.748 1.978l.01.017h-.02l.01-.017c-.527-.937-2.131-1.978-3.75-1.978z" paint-order="stroke markers fill"/><path fill="#79cdee" stroke="#fff" stroke-width="3.538" d="M213.976 16.93c-2.892 0-5.499 1.706-5.838 3.535.34 1.829 2.946 3.535 5.838 3.535 2.447 0 4.876-1.33 6.137-2.754v3.922c-2.894.205-5.502 1.98-7.423 4.745-2.044 2.947-3.309 7.017-3.309 11.512 0 2.132.51 2.156-1.992 8.268-.254.617 3.182-.957 3.416-.351.45 1.162 1.59 3.79 3.828 5.837.26.238 1.235 1.536 1.588 2.362.49-.308 1.05-2.205 2.053-1.892a8 8 0 0 0 4.813 0c1.003-.313 1.563 1.584 2.054 1.893.352-.826 1.326-2.125 1.587-2.363 2.238-2.048 3.378-4.675 3.827-5.837.234-.606 3.67.968 3.417.35-2.504-6.111-1.993-6.135-1.993-8.267 0-4.495-1.264-8.565-3.309-11.512-1.94-2.793-4.581-4.573-7.51-4.75v-4.018c1.234 1.46 3.72 2.855 6.223 2.855 2.893 0 5.5-1.706 5.84-3.535-.339-1.829-2.947-3.535-5.84-3.535s-5.761 1.86-6.703 3.535l.019.03h-.038l.018-.03c-.941-1.675-3.811-3.535-6.703-3.535z" paint-order="stroke markers fill"/></svg>