<svg xmlns="http://www.w3.org/2000/svg" width="1024" height="256" viewBox="0 0 270.933 67.733"><g fill="#79cdee" paint-order="stroke markers fill"><path d="M16.261 9.242c-4.055 0-6.525 1.4-7.343 3.906.818 2.506 3.288 3.906 7.343 3.906h.002c3.38 0 6.027-1.149 7.917-3.237v3.516c-4.135.193-7.305 2.416-9.662 5.811-2.616 3.77-4.234 8.976-4.234 14.728 0 2.727.654 2.758-2.55 10.578-.323.79 4.072-1.223 4.372-.45.576 1.488 2.033 4.85 4.897 7.469.333.304 1.58 1.966 2.031 3.022.629-.395 1.345-2.82 2.627-2.42.992.31 2.023.474 3.08.474a10.3 10.3 0 0 0 3.08-.474c1.282-.4 1.998 2.026 2.626 2.42.451-1.057 1.698-2.718 2.03-3.022 2.865-2.62 4.323-5.981 4.898-7.468.3-.774 4.695 1.24 4.371.449-3.202-7.82-2.549-7.85-2.549-10.578 0-5.752-1.618-10.959-4.234-14.728-2.368-3.41-5.556-5.635-9.662-5.814 0-1.605-.002-2.898 0-3.513 1.89 2.088 4.538 3.237 7.917 3.237h.002c4.056 0 6.526-1.4 7.344-3.906-.818-2.505-3.288-3.906-7.344-3.906h-.001c-3.726 0-6.566 1.393-8.478 3.906-1.912-2.513-4.752-3.906-8.478-3.906Z"/><g stroke="none" stroke-linecap="round" stroke-linejoin="round" stroke-width="13.493" aria-label="ほhoみmiろroにni" font-family="Kosugi Maru" font-size="71.963" letter-spacing="0" style="-inkscape-font-specification:&quot;Kosugi Maru&quot;;text-align:center" text-anchor="middle"><path d="M92.38 40.56q0 1.367-.935 2.374-.936.936-2.303.936h-1.151q-.936 0-.936.935v3.526q0 2.735-1.367 4.966-1.295 2.23-3.526 3.598-2.231 1.295-4.966 1.295h-1.295q-2.663 0-4.966-1.295-2.23-1.367-3.598-3.598-1.295-2.231-1.295-4.966v-3.166q0-2.735 1.295-4.966 1.368-2.23 3.598-3.526 2.303-1.367 4.966-1.367h1.727q.864 0 .864-.936v-2.518q0-.936-.864-.936h-8.276q-1.367 0-2.375-.935-.935-1.008-.935-2.375v-1.943q0-1.367.935-2.303 1.008-1.007 2.375-1.007h8.276q.864 0 .864-.936v-2.375q0-.935-.864-.935h-8.276q-1.367 0-2.375-.936-.935-1.007-.935-2.375v-1.943q0-1.367.935-2.302 1.008-1.008 2.375-1.008h19.79q1.367 0 2.303 1.008.935.935.935 2.302v1.943q0 1.368-.935 2.375-.936.936-2.303.936h-1.151q-.936 0-.936.935v2.375q0 .936.936.936h1.151q1.367 0 2.303 1.007.935.936.935 2.303v1.943q0 1.367-.935 2.375-.936.935-2.303.935h-1.151q-.936 0-.936.936v2.518q0 .936.936.936h1.151q1.367 0 2.303.935.935.936.935 2.375zm-29 14.32q0 1.367-.936 2.375-.936.935-2.375.935h-1.943q-1.367 0-2.375-.935-.935-1.008-.935-2.375V12.853q0-1.367.935-2.302 1.008-1.008 2.375-1.008h1.943q1.44 0 2.375 1.008.935.935.935 2.302zm15.112-6.549v-3.526q0-.935-.864-.935h-1.727q-.504 0-.936.36-.36.36-.36.935v3.166q0 .504.36.936.432.36.936.36h1.295q.576 0 .936-.36.36-.432.36-.936" font-family="Monomaniac One" style="-inkscape-font-specification:&quot;Monomaniac One&quot;;text-align:start" text-anchor="start" transform="translate(-8.752)"/><path d="M98.002 57.19q0 .413-.283.718a.95.95 0 0 1-.695.282h-.61a.95.95 0 0 1-.695-.282 1.02 1.02 0 0 1-.283-.718v-7.372a.27.27 0 0 0-.109-.217.27.27 0 0 0-.195-.087h-2.11a.35.35 0 0 0-.217.087.3.3 0 0 0-.087.217v7.372q0 .413-.283.718a.95.95 0 0 1-.696.282h-.608a1.02 1.02 0 0 1-.718-.282 1.02 1.02 0 0 1-.283-.718V45.55q0-.436.283-.718a1.02 1.02 0 0 1 .718-.283h.608q.414 0 .696.283a.97.97 0 0 1 .283.717v1.116a.27.27 0 0 0 .087.196.4.4 0 0 0 .217.065h2.566q.675 0 1.218.327.543.326.87.891.326.543.326 1.218zm9.633-1.435q0 1.021-.717 1.74a2.3 2.3 0 0 1-1.697.695H102.2a2.38 2.38 0 0 1-1.718-.696 2.37 2.37 0 0 1-.718-1.74v-6.392q0-.675.327-1.218.348-.566.891-.891a2.3 2.3 0 0 1 1.218-.327h3.022q.675 0 1.218.327.545.325.87.891.326.543.326 1.218zm-2.566-.413v-5.524a.27.27 0 0 0-.109-.217.27.27 0 0 0-.195-.087h-2.11a.35.35 0 0 0-.217.087.3.3 0 0 0-.087.217v5.524a.27.27 0 0 0 .087.195.35.35 0 0 0 .218.087h2.109a.27.27 0 0 0 .195-.087q.11-.087.11-.195" font-size="21.745" style="text-align:start" text-anchor="start" transform="translate(-8.752)"/><path d="M148.696 35.882q0 1.367-1.007 2.302-.936.936-2.303.936h-.144q-.935 0-.935.936V54.88q0 1.367-.936 2.375-.936.935-2.303.935h-2.015q-1.367 0-2.303-.935-.935-1.008-.935-2.375V40.056q0-.936-.936-.936h-.863q-.936 0-.936.936V54.88q0 1.367-.935 2.375-.936.935-2.303.935h-6.909q-2.662 0-4.965-1.295-2.231-1.367-3.598-3.598-1.296-2.231-1.296-4.966v-7.844q0-2.734 1.296-4.965 1.367-2.303 3.598-3.598 2.303-1.368 4.965-1.368h.72q.936 0 .936-.863v-8.708q0-.935-.936-.935h-5.325q-1.368 0-2.303-.936-.936-.935-.936-2.303v-2.015q0-1.367.936-2.302.935-1.008 2.303-1.008h11.514q1.367 0 2.303 1.008.935.935.935 2.302v14.897q0 .863.936.863h.863q.936 0 .936-.863V14.796q0-1.367.935-2.302.936-.936 2.303-.936h2.015q1.367 0 2.303.936.935.935.935 2.302v14.897q0 .863.936.863h.144q1.367 0 2.303 1.008 1.007.935 1.007 2.303zm-24.107 12.81v-8.636q0-.936-.936-.936h-.72q-1.295 0-1.295 1.367v7.844q0 .504.36.936.432.36.935.36h.72q.936 0 .936-.936" font-family="Monomaniac One" style="-inkscape-font-specification:&quot;Monomaniac One&quot;;text-align:start" text-anchor="start" transform="translate(-8.752)"/><path d="M157.195 57.19q0 .413-.304.718-.283.282-.696.282h-.609q-.413 0-.718-.282-.282-.305-.282-.718v-7.372q0-.304-.283-.304h-.848q-.261 0-.261.304v7.372q0 .413-.304.718-.283.282-.696.282h-.587q-.414 0-.718-.282-.283-.305-.283-.718v-7.372q0-.304-.26-.304h-.849q-.282 0-.282.304v7.372q0 .413-.305.718-.282.282-.696.282h-.608q-.414 0-.718-.282-.283-.305-.283-.718v-7.828q0-.674.326-1.218.348-.565.892-.891t1.218-.327h1.718q.478 0 .87.196.26.065.543 0 .391-.196.87-.196h1.718q.674 0 1.217.327.544.326.87.891.348.544.348 1.218zm5.023-12.308q0 .674-.5 1.175-.478.478-1.13.478-.675 0-1.175-.478-.478-.5-.478-1.175 0-.652.478-1.13.5-.5 1.174-.5.653 0 1.131.5.5.478.5 1.13m-.348 12.308q0 .413-.304.718-.283.282-.696.282h-.587q-.413 0-.718-.282-.282-.305-.282-.718v-9.024q0-.413.282-.696.305-.304.718-.304h.587q.413 0 .696.304.304.283.304.696z" font-size="21.745" style="text-align:start" text-anchor="start" transform="translate(-8.752)"/><path d="M196.674 48.331q0 2.735-1.367 4.966a10.13 10.13 0 0 1-3.527 3.598q-2.23 1.295-4.965 1.295h-14.897q-1.367 0-2.302-.935a3.38 3.38 0 0 1-.936-2.375v-1.943q0-1.368.936-2.303.934-1.008 2.302-1.007h14.897q.576 0 .935-.36.432-.432.432-.936V38.328a1.16 1.16 0 0 0-.432-.935q-.36-.36-.935-.36h-16.336q-2.015 0-2.95-1.799-.864-1.799.288-3.454l8.275-10.939q.144-.288 0-.503-.072-.288-.431-.288h-3.743q-1.367 0-2.302-.936-.936-.935-.936-2.303v-2.015q0-1.367.936-2.302.934-.936 2.302-.936h15.185q2.087 0 2.95 1.8.936 1.726-.288 3.453l-8.203 10.939a.6.6 0 0 0-.072.504q.144.215.431.215h4.894q2.735 0 4.965 1.368a9.56 9.56 0 0 1 3.527 3.526q1.367 2.23 1.367 4.965z" font-family="Monomaniac One" style="-inkscape-font-specification:&quot;Monomaniac One&quot;;text-align:start" text-anchor="start" transform="translate(-8.752)"/><path d="M205.67 48.535a.95.95 0 0 1-.283.696.95.95 0 0 1-.696.283h-2.588q-.282 0-.282.304v7.372a.98.98 0 0 1-.305.718.95.95 0 0 1-.696.282h-.609a.95.95 0 0 1-.695-.282 1.02 1.02 0 0 1-.283-.718v-7.828q0-.675.326-1.218.326-.566.87-.891a2.3 2.3 0 0 1 1.218-.327h3.044q.412 0 .696.305a.97.97 0 0 1 .282.717zm9.633 7.22q0 1.021-.718 1.74a2.3 2.3 0 0 1-1.696.695h-3.023a2.38 2.38 0 0 1-1.718-.696 2.37 2.37 0 0 1-.717-1.74v-6.392q0-.675.326-1.218.349-.566.892-.891a2.3 2.3 0 0 1 1.217-.327h3.023q.674 0 1.218.327.543.325.87.891.326.543.326 1.218zm-2.566-.413v-5.524a.27.27 0 0 0-.11-.217.27.27 0 0 0-.195-.087h-2.11a.35.35 0 0 0-.217.087.3.3 0 0 0-.087.217v5.524a.27.27 0 0 0 .087.195.35.35 0 0 0 .218.087h2.11a.27.27 0 0 0 .195-.087q.108-.087.109-.195" font-size="21.745" style="text-align:start" text-anchor="start" transform="translate(-8.752)"/><path d="M256.514 26.67q0 1.368-.936 2.303-.935.936-2.375.936h-1.943a3.38 3.38 0 0 1-2.374-.936q-.936-.935-.936-2.303v-5.325q0-.576-.36-.935t-.935-.36h-10.579a3.38 3.38 0 0 1-2.375-.936 3.38 3.38 0 0 1-.935-2.375v-1.943q0-1.367.935-2.302 1.008-1.008 2.375-1.008h10.579q2.735 0 4.965 1.367a9.56 9.56 0 0 1 3.526 3.527q1.368 2.23 1.368 4.965zm-26.41 28.21q0 1.367-.936 2.375-.936.935-2.375.935h-1.943a3.38 3.38 0 0 1-2.375-.935 3.38 3.38 0 0 1-.935-2.375V14.796q0-1.367.935-2.302a3.38 3.38 0 0 1 2.375-.936h1.943q1.439 0 2.375.936.935.934.935 2.302zm26.41 0q0 1.367-.936 2.375-.935.935-2.375.935h-10.578a9.96 9.96 0 0 1-4.966-1.295 10.75 10.75 0 0 1-3.598-3.598q-1.295-2.231-1.295-4.966V43.51q0-1.368.935-2.303 1.008-1.008 2.375-1.008h1.943q1.368 0 2.303 1.008 1.007.935 1.007 2.303v4.821q0 .504.36.936.432.36.936.36h10.578q1.44 0 2.375 1.007.936.936.936 2.303z" font-family="Monomaniac One" style="-inkscape-font-specification:&quot;Monomaniac One&quot;;text-align:start" text-anchor="start" transform="translate(-8.752)"/><path d="M258.17 57.19q0 .413-.282.718a.95.95 0 0 1-.696.282h-.609a.95.95 0 0 1-.695-.282 1.02 1.02 0 0 1-.283-.718v-7.372a.27.27 0 0 0-.109-.217.27.27 0 0 0-.196-.087h-2.109a.35.35 0 0 0-.217.087.3.3 0 0 0-.087.217v7.372q0 .413-.283.718a.95.95 0 0 1-.696.282h-.609a1.02 1.02 0 0 1-.717-.282 1.02 1.02 0 0 1-.283-.718v-7.828q0-.675.326-1.218.349-.566.892-.891a2.3 2.3 0 0 1 1.218-.327h3.022q.674 0 1.218.327.543.325.87.891.326.543.326 1.218zm5.046-12.308q0 .675-.5 1.175a1.55 1.55 0 0 1-1.131.478q-.675 0-1.174-.478a1.64 1.64 0 0 1-.479-1.175q0-.653.479-1.13.5-.5 1.174-.5.653 0 1.13.5.5.477.5 1.13m-.348 12.308a.98.98 0 0 1-.305.718.95.95 0 0 1-.695.282h-.588a1.02 1.02 0 0 1-.717-.282 1.02 1.02 0 0 1-.283-.718v-9.024q0-.414.283-.696a.98.98 0 0 1 .717-.304h.588q.413 0 .695.304.305.282.305.696z" font-size="21.745"/></g></g></svg>