<svg xmlns="http://www.w3.org/2000/svg" width="1024" height="256" viewBox="0 0 270.933 67.733"><g stroke="#fff" stroke-linecap="round" stroke-width="4.233"><g fill="#79cdee" font-family="Top-Heavy_Font" paint-order="stroke fill markers"><path d="M6.755 9.19q0-3.792 2.528-3.792H21.5q2.528 0 2.528 3.792-2.95 27.326-1.023 42.434 3.37 0 3.31 2.648t-5.056 2.649h-.963q-4.995-.06-9.69-8.788T6.755 9.19ZM43.65 41.332l-.24-2.047q-.06-1.324-.964-1.806H28.543q-1.986 0-1.986-2.227l-.18-9.209q.18-1.203.902-1.324l14.687-.12q.782.24.782-.542 0-1.204-.782-1.204l-14.205.12q-1.445.121-1.505-1.685l-.18-11.496q0-3.49 3.01-3.49h30.937q3.37 0 3.37 3.49l-.722 11.557q-.06 1.504-1.324 1.384h-7.343q-.783 0-.783 1.023 0 .843.783.602l7.463-.12q.963.24.903 1.384l-.662 9.811q-.3 2.287-2.107 2.347h-4.995q-1.806 0-1.806 1.866l-.482 5.538q5.056 3.01 5.96 4.394.962 1.384-.362 3.25-1.264 1.866-4.875.542-2.107 4.153-7.103 3.852h-4.935q-10.413 0-12.58-3.551-2.167-3.612-.963-7.825 1.204-4.274 5.718-4.454 4.575-.18 7.765.662t2.708-.722zm.903 10.894q0-1.565-2.227-2.588-2.167-1.023-6.62-.602-2.108.361-1.566 2.709.602 2.347 4.213 2.347h3.973q2.227.06 2.227-1.625z" aria-label="ほ" font-size="61.635" style="-inkscape-font-specification:Top-Heavy_Font" transform="translate(6.34 2.787)scale(.9562)"/><path d="M66.343 6.053q0-2.574 2.573-2.574 12.302.824 23.677.618 2.574 0 2.574 2.573l-2.42 21.876q0 1.338 1.339 1.338 9.78.052 16.11 3.86 3.346 1.905 2.625 3.86-.72 1.905-4.066.67-5.404-1.39-14.67-.618-2.16 0-2.16 2.11-.207 2.523-2.472 4.273-2.264 1.698-6.022 1.595-6.64.566-9.368-1.698-2.676-2.316-1.75-6.949.927-4.684 6.743-5.765l4.015-.823q1.338 0 1.338-1.338l-.566-4.479q0-1.544-1.544-1.544l-11.941 1.03q-2.574 0-2.574-2.574zm33.765 9.882q0-2.573 2.574-2.573l9.059.206q2.573 0 2.573 2.573-1.493 10.397-4.375 16.162-2.83 5.765-7.515 11.375t-5.765 4.273q-1.08-1.287.412-2.934 1.493-1.699 2.265-6.125.823-4.427.772-22.957zm-22.75 24.14v.67q0 1.955 4.426 1.955h.927q4.478 0 4.478-1.955v-.67q0-1.904-4.478-1.904h-.927q-4.426 0-4.426 1.904z" aria-label="み" font-size="52.707" style="-inkscape-font-specification:Top-Heavy_Font" transform="matrix(.94891 .15192 -.17807 .93502 6.34 2.787)"/><path d="M137.207 26.115q-16.891 2.929-26.303 3.054-3.116 0-4.363-3.304l-1.745-18.387q0-4.799 3.116-4.799 4.862-.187 44.378-.25 3.116 0 3.116 4.8l-.498 11.905q-.312 2.93-2.992 4.238l-20.693 14.21q14.585-3.427 19.322 3.803 4.8 7.168-.374 13.026-5.173 5.922-14.024 5.797-8.788-.125-8.539-2.867.312-2.68 3.366-1.683 3.116.997 8.103-.25 5.048-1.184 5.048-5.92 0-4.737-4.114-6.607-4.05-1.932-10.284.311-6.233 2.244-7.728 3.304t-3.553-1.808q-2.057-2.93-.997-3.989 1.06-1.06 19.758-14.584z" aria-label="ろ" font-size="63.824" style="-inkscape-font-specification:Top-Heavy_Font" transform="translate(6.34 2.787)scale(.9562)"/><path d="M151.812 43.64q0-2.727 2.727-2.727h10.746q2.073.818 1.31 3.273-4.037 17.128-3.6 37.857 2.618.873 2.509 3.055-.055 2.182-2.51 2.51-2.4.381-4.8-2.237t-4.582-8.51q-2.182-5.891-1.8-33.221zm16.746 4.8q0-2.454 2.4-2.836 6.82-.71 15.002-.382 8.237.273 12.274 1.691 2.4.382 2.4 2.837-.328 11.782-1.528 15.11-1.2 3.273-3.273 3.327-2.073 0-1.963-1.963l-22.966-2.891q-2.673 0-2.673-2.783zm3.655 29.73q-.054-4.091 1.528-4.091t1.582 1.8q10.255 3.873 16.801 4.473 2.455.164 2.51 2.182.108 1.964-2.128 2.455-8.128 1.473-14.238.163-6.055-1.309-6.055-5.29z" aria-label="に" font-size="55.859" style="-inkscape-font-specification:Top-Heavy_Font" transform="rotate(-9.104 20.671 -38.42)scale(.9562)"/></g><path fill="#79cdee" stroke-linejoin="round" stroke-width="4.048" d="M213.757 13.865c-3.78 0-6.083 1.307-6.846 3.643.763 2.336 3.066 3.64 6.846 3.64h.002c3.151 0 5.619-1.07 7.382-3.017v3.278c-3.855.18-6.81 2.252-9.008 5.418-2.438 3.514-3.948 8.368-3.948 13.73 0 2.544.609 2.573-2.376 9.863-.303.736 3.796-1.14 4.075-.419.535 1.387 1.895 4.52 4.566 6.962.31.284 1.472 1.833 1.893 2.818.585-.367 1.253-2.63 2.449-2.257a9.6 9.6 0 0 0 5.743 0c1.195-.372 1.862 1.89 2.448 2.257.42-.985 1.583-2.534 1.893-2.818 2.67-2.442 4.03-5.575 4.567-6.962.279-.722 4.376 1.155 4.075.419-2.986-7.291-2.377-7.32-2.377-9.862 0-5.363-1.508-10.217-3.947-13.731-2.208-3.18-5.18-5.254-9.008-5.421 0-1.496-.003-2.702 0-3.275 1.763 1.947 4.23 3.018 7.381 3.018h.001c3.781 0 6.085-1.305 6.847-3.641-.762-2.336-3.066-3.642-6.847-3.643h0c-3.475 0-6.121 1.299-7.905 3.643-1.782-2.343-4.43-3.643-7.904-3.643z" paint-order="stroke markers fill"/><path fill="#fdb515" stroke-linejoin="round" stroke-width="4.048" d="M244.608 34.204c-2.173 0-3.497.75-3.935 2.094.438 1.342 1.762 2.093 3.935 2.094h.001c1.811-.001 3.23-.617 4.244-1.736v1.884c-2.217.104-3.916 1.295-5.179 3.115-1.402 2.02-2.27 4.811-2.27 7.894 0 1.463.351 1.478-1.365 5.67-.174.423 2.182-.656 2.342-.24.308.796 1.09 2.598 2.625 4.002.179.162.847 1.054 1.088 1.62.338-.21.721-1.512 1.409-1.297a5.5 5.5 0 0 0 3.301 0c.687-.215 1.071 1.085 1.408 1.297.242-.566.91-1.457 1.088-1.62 1.535-1.404 2.317-3.206 2.625-4.003.16-.415 2.517.664 2.343.241-1.717-4.192-1.366-4.207-1.366-5.67 0-3.083-.867-5.874-2.27-7.894-1.269-1.828-2.977-3.021-5.179-3.117v-1.883c1.014 1.12 2.433 1.736 4.244 1.736h0c2.174 0 3.499-.75 3.937-2.094-.438-1.343-1.763-2.093-3.936-2.094h0c-1.999 0-3.519.748-4.545 2.094-1.024-1.346-2.546-2.094-4.544-2.094z" paint-order="stroke markers fill"/></g></svg>