<svg xmlns="http://www.w3.org/2000/svg" xml:space="preserve" fill-rule="evenodd" stroke-linejoin="round" stroke-miterlimit="2" clip-rule="evenodd" viewBox="0 0 128 128"><path fill="none" d="M0 0h128v128H0z"/><clipPath id="a"><path d="M0 0h128v128H0z"/></clipPath><g clip-path="url(#a)"><path fill="#79cdee" d="M0 63.999C0 28.679 28.68 0 63.999 0 99.322 0 128 28.68 128 63.999 128.001 99.322 99.322 128 64 128c-35.321.001-64-28.678-64-64"/><path fill="#fff" d="M20.615 111.034c.185-2.533-.103-4.485-.103-7.627 0-17.3 4.869-32.965 12.739-44.302 7.09-10.215 16.625-16.9 29.064-17.482V31.048c-5.687 6.28-13.652 9.737-23.816 9.737h-.006c-12.2-.001-19.63-4.213-22.09-11.75 2.46-7.538 9.89-11.75 22.09-11.751h.006c11.208 0 19.751 4.19 25.503 11.75 5.752-7.56 14.294-11.75 25.5-11.75h.007c12.2.001 19.63 4.213 22.09 11.75-2.46 7.538-9.89 11.75-22.09 11.751h-.006c-10.165 0-18.13-3.457-23.816-9.74-.006 1.85-.002 5.741 0 10.57 12.351.537 21.942 7.229 29.065 17.49 7.87 11.337 12.736 27.001 12.736 44.302 0 3.142-.288 5.094-.103 7.627C95.977 121.564 80.735 128 64 128s-31.977-6.436-43.385-16.966"/><path fill="#79cdee" d="M50.71 83.187c-1.928 2.29-4.86 3.04-6.497 1.663-1.637-1.375-1.395-4.395.533-6.686 1.931-2.286 4.86-3.038 6.497-1.663 1.636 1.38 1.394 4.396-.533 6.686m26.581 0c-1.927-2.29-2.17-5.306-.533-6.686 1.633-1.375 4.566-.623 6.494 1.663 1.931 2.29 2.17 5.31.536 6.686-1.636 1.376-4.57.628-6.497-1.663"/></g></svg>