<?xml version="1.0" encoding="UTF-8" standalone="no"?>
<!-- Created with Inkscape (http://www.inkscape.org/) -->

<svg
   width="128"
   height="128"
   viewBox="0 0 33.866666 33.866666"
   version="1.1"
   id="svg1"
   inkscape:version="1.3 (0e150ed6c4, 2023-07-21)"
   sodipodi:docname="Icon.svg"
   xmlns:inkscape="http://www.inkscape.org/namespaces/inkscape"
   xmlns:sodipodi="http://sodipodi.sourceforge.net/DTD/sodipodi-0.dtd"
   xmlns="http://www.w3.org/2000/svg"
   xmlns:svg="http://www.w3.org/2000/svg">
  <sodipodi:namedview
     id="namedview1"
     pagecolor="#ffffff"
     bordercolor="#000000"
     borderopacity="0.25"
     inkscape:showpageshadow="2"
     inkscape:pageopacity="0.0"
     inkscape:pagecheckerboard="true"
     inkscape:deskcolor="#d1d1d1"
     inkscape:document-units="px"
     inkscape:zoom="4"
     inkscape:cx="38"
     inkscape:cy="134.125"
     inkscape:window-width="2560"
     inkscape:window-height="1377"
     inkscape:window-x="1912"
     inkscape:window-y="-8"
     inkscape:window-maximized="1"
     inkscape:current-layer="layer1"
     labelstyle="below" />
  <defs
     id="defs1" />
  <g
     inkscape:label="Layer 1"
     inkscape:groupmode="layer"
     id="layer1">
    <path
       id="path2"
       style="fill:#79cdee;fill-opacity:1;stroke-width:0.0830855"
       d="m -8.6733894,14.132597 c 0,2.528903 -2.0500796,4.578982 -4.5789806,4.578982 -2.528902,0 -4.578982,-2.05008 -4.578982,-4.578982 0,-2.528901 2.05008,-4.5789806 4.578982,-4.5789807 2.528901,0 4.5789806,2.0500797 4.5789806,4.5789807 z"
       sodipodi:nodetypes="sssss" />
    <path
       id="path3"
       style="fill:#fdb515;fill-opacity:1;stroke-width:0.0830855"
       d="m -8.6733894,24.357505 c 0,2.528902 -2.0500796,4.578981 -4.5789806,4.578981 -2.528902,0 -4.578982,-2.05008 -4.578982,-4.578981 0,-2.528902 2.05008,-4.578981 4.578982,-4.578981 2.528901,0 4.5789806,2.050079 4.5789806,4.578981 z"
       sodipodi:nodetypes="sssss" />
    <path
       id="path4"
       style="fill:#fcf9f7;fill-opacity:1;stroke-width:0.0830855"
       d="m -8.7178455,3.507585 c 0,2.5289025 -2.0500805,4.5789815 -4.5789805,4.5789815 -2.528902,0 -4.578982,-2.05008 -4.578982,-4.5789815 0,-2.52890097 2.05008,-4.578981 4.578982,-4.578981 2.5289,0 4.5789805,2.05008003 4.5789805,4.578981 z"
       sodipodi:nodetypes="sssss" />
    <path
       id="path5"
       style="fill:#79cdee;stroke-width:0.264583"
       d="m -17.046582,-12.563097 c 0,-2.946293 1.895115,-5.869133 3.600946,-6.827907 1.705831,0.958774 3.6009455,3.881614 3.6009455,6.827907 0,2.9462923 -1.7379385,5.6019334 -3.6009455,5.9477208 -1.863007,-0.3457874 -3.600946,-3.0014285 -3.600946,-5.9477208 z"
       sodipodi:nodetypes="scscs" />
    <path
       id="path21"
       style="fill:#79cdee;stroke-width:0.264583"
       d="m -37.74269,-15.732135 c -2.946288,0 -5.601653,1.738324 -5.94744,3.60133 0.345787,1.863005 3.001152,3.6008135 5.94744,3.6008135 2.491503,0 4.96584,-1.3555781 6.250265,-2.8055135 v 6.0378743 h 1.066601 v -6.1412273 c 1.256325,1.4883067 3.788383,2.9088665 6.339148,2.9088665 2.946288,0 5.602171,-1.7378085 5.947957,-3.6008135 -0.345786,-1.863006 -3.001669,-3.60133 -5.947957,-3.60133 -2.94629,0 -5.869234,1.8955 -6.828007,3.60133 0.0058,0.01033 0.01265,0.02066 0.0186,0.03101 h -0.03721 c 0.0059,-0.01035 0.0128,-0.02067 0.0186,-0.03101 -0.958773,-1.70583 -3.881717,-3.60133 -6.828007,-3.60133 z" />
    <path
       id="path22"
       style="fill:#79cdee;fill-opacity:1;stroke-width:0.259601"
       d="m -51.821022,-2.2617514 c -2.946285,0 -5.601654,1.73832598 -5.94744,3.6013301 0.345786,1.8630032 3.001155,3.6008137 5.94744,3.6008137 2.491501,0 4.965841,-1.3555795 6.250265,-2.8055135 v 3.9940714 c -2.948228,0.2100392 -5.604493,2.0177081 -7.560262,4.8353637 -2.082762,3.000612 -3.371371,7.146087 -3.371371,11.724865 0,2.171709 0.52014,2.195959 -2.029333,8.421708 -0.25757,0.628977 3.241419,-0.973669 3.479891,-0.357601 0.458264,1.18388 1.619002,3.860282 3.898986,5.945373 0.264997,0.242345 1.25804,1.565341 1.616956,2.406572 0.500139,-0.314214 1.070406,-2.246132 2.091345,-1.927014 0.790041,0.246944 1.610156,0.377239 2.45153,0.377238 0.841374,0 1.662006,-0.130294 2.452047,-0.377238 1.020939,-0.319118 1.591206,1.6128 2.091345,1.927014 0.358916,-0.841231 1.351442,-2.164227 1.616439,-2.406572 2.279984,-2.085091 3.440722,-4.761493 3.898986,-5.945373 0.238472,-0.616068 3.737462,0.986578 3.479891,0.357601 -2.549472,-6.225749 -2.029333,-6.249999 -2.029333,-8.421708 0,-4.578778 -1.288092,-8.724254 -3.370854,-11.724865 -1.975307,-2.845802 -4.666136,-4.6586361 -7.649662,-4.8384643 V 2.0315261 c 1.256324,1.488305 3.788385,2.9088663 6.339148,2.9088663 2.946285,0 5.602172,-1.7378105 5.947957,-3.6008137 -0.345785,-1.86300412 -3.001672,-3.6013301 -5.947957,-3.6013301 -2.946287,0 -5.869235,1.89550198 -6.828007,3.6013301 0.0058,0.010332 0.01265,0.02066 0.0186,0.031006 h -0.03721 c 0.006,-0.010346 0.0128,-0.020674 0.0186,-0.031006 -0.958772,-1.70582812 -3.88172,-3.6013301 -6.828007,-3.6013301 z" />
    <path
       id="path23"
       style="fill:#79cdee;stroke-width:0.173814"
       d="M 16.933333 0.095601398 A 16.83798 16.83798 0 0 0 0.095601398 16.933333 A 16.83798 16.83798 0 0 0 6.3587849 29.997135 C 6.4207029 29.325154 6.3499999 28.827361 6.3499999 28.016377 C 6.3499999 23.785052 7.5408559 19.954296 9.4655719 17.18138 C 11.27293 14.577537 13.727718 12.90702 16.452225 12.712919 L 16.452225 9.0216714 C 15.265269 10.36158 12.978788 11.614278 10.676351 11.614278 C 7.9536383 11.614278 5.499593 10.008464 5.1800455 8.2868325 C 5.499593 6.5651982 7.9536383 4.9588703 10.676351 4.9588703 C 13.399065 4.9588703 16.100017 6.7104482 16.986043 8.2868325 C 17.87206 6.7104482 20.573541 4.9588703 23.296252 4.9588703 C 26.018964 4.9588703 28.473013 6.5651982 28.792557 8.2868325 C 28.473013 10.008464 26.018964 11.614278 23.296252 11.614278 C 20.939049 11.614278 18.598686 10.301438 17.437695 8.92607 L 17.437695 12.709818 C 20.194823 12.876001 22.681617 14.551526 24.507031 17.18138 C 26.431747 19.954295 27.622086 23.785052 27.622086 28.016377 C 27.622086 28.811245 27.552831 29.303145 27.608133 29.95476 A 16.83798 16.83798 0 0 0 33.771065 16.933333 A 16.83798 16.83798 0 0 0 16.933333 0.095601398 z M 16.986043 8.2868325 C 16.980553 8.2963745 16.97459 8.3057346 16.96899 8.3152546 L 17.003613 8.3152546 C 16.997993 8.3057016 16.991543 8.2963525 16.986043 8.2868325 z " />
    <path
       id="path24"
       style="fill:#79cdee;stroke-width:0.173814"
       d="m -35.85104,40.179976 a 16.83798,16.83798 0 0 0 -16.837732,16.837731 16.83798,16.83798 0 0 0 6.263184,13.063802 c 0.06192,-0.671981 -0.0088,-1.169774 -0.0088,-1.980758 0,-4.231325 1.190856,-8.062081 3.115572,-10.834997 1.807358,-2.603843 4.262146,-4.27436 6.986653,-4.468461 v -3.691247 c -1.186956,1.339908 -3.473437,2.592606 -5.775874,2.592606 -2.722713,0 -5.176758,-1.605814 -5.496306,-3.327445 0.319548,-1.721635 2.773593,-3.327962 5.496306,-3.327962 2.722714,0 5.423666,1.751577 6.309692,3.327962 0.886017,-1.576385 3.587498,-3.327962 6.310209,-3.327962 2.722712,0 5.176761,1.606327 5.496305,3.327962 -0.319544,1.721631 -2.773593,3.327445 -5.496305,3.327445 -2.357203,0 -4.697566,-1.31284 -5.858557,-2.688208 v 3.783748 c 2.757128,0.166183 5.243922,1.841708 7.069336,4.471562 1.924716,2.772915 3.115055,6.603672 3.115055,10.834997 0,0.794868 -0.06926,1.286768 -0.01395,1.938383 A 16.83798,16.83798 0 0 0 -19.013309,57.017707 16.83798,16.83798 0 0 0 -35.85104,40.179976 Z m 0.05271,8.191231 c -0.0055,0.0095 -0.01145,0.0189 -0.01705,0.02842 h 0.03462 c -0.0056,-0.0096 -0.01207,-0.0189 -0.01757,-0.02842 z" />
  </g>
</svg>
