<?xml version="1.0" encoding="UTF-8" standalone="no"?>
<!-- Created with Inkscape (http://www.inkscape.org/) -->

<svg
   width="128"
   height="128"
   viewBox="0 0 33.866666 33.866666"
   version="1.1"
   id="svg1"
   inkscape:version="1.3 (0e150ed6c4, 2023-07-21)"
   sodipodi:docname="Icon_chara.svg"
   xmlns:inkscape="http://www.inkscape.org/namespaces/inkscape"
   xmlns:sodipodi="http://sodipodi.sourceforge.net/DTD/sodipodi-0.dtd"
   xmlns="http://www.w3.org/2000/svg"
   xmlns:svg="http://www.w3.org/2000/svg">
  <sodipodi:namedview
     id="namedview1"
     pagecolor="#ffffff"
     bordercolor="#000000"
     borderopacity="0.25"
     inkscape:showpageshadow="2"
     inkscape:pageopacity="0.0"
     inkscape:pagecheckerboard="true"
     inkscape:deskcolor="#d1d1d1"
     inkscape:document-units="px"
     inkscape:zoom="5.6568542"
     inkscape:cx="-27.577165"
     inkscape:cy="69.738407"
     inkscape:window-width="2560"
     inkscape:window-height="1377"
     inkscape:window-x="1912"
     inkscape:window-y="-8"
     inkscape:window-maximized="1"
     inkscape:current-layer="layer1"
     labelstyle="below" />
  <defs
     id="defs1" />
  <g
     inkscape:label="Layer 1"
     inkscape:groupmode="layer"
     id="layer1"
     style="display:inline">
    <path
       id="path2"
       style="fill:#79cdee;fill-opacity:1;stroke-width:0.0830855"
       d="m -8.6733894,14.132597 c 0,2.528903 -2.0500796,4.578982 -4.5789806,4.578982 -2.528902,0 -4.578982,-2.05008 -4.578982,-4.578982 0,-2.528901 2.05008,-4.5789806 4.578982,-4.5789807 2.528901,0 4.5789806,2.0500797 4.5789806,4.5789807 z"
       sodipodi:nodetypes="sssss" />
    <path
       id="path3"
       style="fill:#fdb515;fill-opacity:1;stroke-width:0.0830855"
       d="m -8.6733894,24.357505 c 0,2.528902 -2.0500796,4.578981 -4.5789806,4.578981 -2.528902,0 -4.578982,-2.05008 -4.578982,-4.578981 0,-2.528902 2.05008,-4.578981 4.578982,-4.578981 2.528901,0 4.5789806,2.050079 4.5789806,4.578981 z"
       sodipodi:nodetypes="sssss" />
    <path
       id="path4"
       style="fill:#fcf9f7;fill-opacity:1;stroke-width:0.0830855"
       d="m -8.7178455,3.507585 c 0,2.5289025 -2.0500805,4.5789815 -4.5789805,4.5789815 -2.528902,0 -4.578982,-2.05008 -4.578982,-4.5789815 0,-2.52890097 2.05008,-4.578981 4.578982,-4.578981 2.5289,0 4.5789805,2.05008003 4.5789805,4.578981 z"
       sodipodi:nodetypes="sssss" />
    <path
       id="path5"
       style="fill:#79cdee;stroke-width:0.264583"
       d="m -14.003874,-21.294347 c 0,-2.946293 1.895115,-5.869133 3.600946,-6.827907 1.7058313,0.958774 3.6009458,3.881614 3.6009458,6.827907 0,2.946293 -1.7379385,5.601934 -3.6009458,5.947721 -1.863007,-0.345787 -3.600946,-3.001428 -3.600946,-5.947721 z"
       sodipodi:nodetypes="scscs" />
    <path
       id="path21"
       style="fill:#79cdee;stroke-width:0.264583"
       d="m -34.699982,-24.463385 c -2.946288,0 -5.601653,1.738324 -5.94744,3.60133 0.345787,1.863005 3.001152,3.600814 5.94744,3.600814 2.491503,0 4.96584,-1.355578 6.250265,-2.805514 v 6.037875 h 1.066601 v -6.141228 c 1.256325,1.488307 3.788383,2.908867 6.339148,2.908867 2.946288,0 5.602171,-1.737809 5.947957,-3.600814 -0.345786,-1.863006 -3.001669,-3.60133 -5.947957,-3.60133 -2.94629,0 -5.869234,1.8955 -6.828007,3.60133 0.0058,0.01033 0.01265,0.02066 0.0186,0.03101 h -0.03721 c 0.0059,-0.01035 0.0128,-0.02067 0.0186,-0.03101 -0.958773,-1.70583 -3.881717,-3.60133 -6.828007,-3.60133 z" />
    <path
       id="path23"
       style="fill:#79cdee;stroke-width:0.173814"
       d="m -54.160361,-4.6751596 a 16.83798,16.83798 0 0 0 -16.837731,16.8377316 16.83798,16.83798 0 0 0 6.263183,13.063802 c 0.06192,-0.671981 -0.0088,-1.169774 -0.0088,-1.980758 0,-4.231325 1.190856,-8.062081 3.115572,-10.834997 1.807358,-2.603843 4.262146,-4.27436 6.986653,-4.468461 V 4.2509104 c -1.186956,1.3399086 -3.473437,2.5926066 -5.775874,2.5926066 -2.722712,0 -5.176758,-1.605814 -5.496305,-3.3274455 0.319547,-1.7216343 2.773593,-3.32796221 5.496305,-3.32796221 2.722714,0 5.423666,1.75157791 6.309692,3.32796221 0.886017,-1.5763843 3.587498,-3.32796221 6.310209,-3.32796221 2.722712,0 5.176761,1.60632791 5.496305,3.32796221 -0.319544,1.7216315 -2.773593,3.3274455 -5.496305,3.3274455 -2.357203,0 -4.697566,-1.31284 -5.858557,-2.688208 v 3.783748 c 2.757128,0.166183 5.243922,1.841708 7.069336,4.471562 1.924716,2.772915 3.115055,6.603672 3.115055,10.834997 0,0.794868 -0.06925,1.286768 -0.01395,1.938383 a 16.83798,16.83798 0 0 0 6.162924,-13.021427 16.83798,16.83798 0 0 0 -16.837732,-16.8377316 z m 0.05271,8.1912311 c -0.0055,0.00954 -0.01145,0.018902 -0.01705,0.028422 h 0.03462 c -0.0056,-0.00955 -0.01207,-0.018902 -0.01757,-0.028422 z" />
    <path
       id="path24"
       style="fill:#79cdee;stroke-width:0.173814"
       d="m -29.50104,62.272684 a 16.83798,16.83798 0 0 0 -16.837732,16.837731 16.83798,16.83798 0 0 0 6.263184,13.063802 c 0.06192,-0.671981 -0.0088,-1.169774 -0.0088,-1.980758 0,-4.231325 1.190856,-8.062081 3.115572,-10.834997 1.807358,-2.603843 4.262146,-4.27436 6.986653,-4.468461 v -3.691247 c -1.186956,1.339908 -3.473437,2.592606 -5.775874,2.592606 -2.722713,0 -5.176758,-1.605814 -5.496306,-3.327445 0.319548,-1.721635 2.773593,-3.327962 5.496306,-3.327962 2.722714,0 5.423666,1.751577 6.309692,3.327962 0.886017,-1.576385 3.587498,-3.327962 6.310209,-3.327962 2.722712,0 5.176761,1.606327 5.496305,3.327962 -0.319544,1.721631 -2.773593,3.327445 -5.496305,3.327445 -2.357203,0 -4.697566,-1.31284 -5.858557,-2.688208 V 74.8869 c 2.757128,0.166183 5.243922,1.841708 7.069336,4.471562 1.924716,2.772915 3.115055,6.603672 3.115055,10.834997 0,0.794868 -0.06926,1.286768 -0.01395,1.938383 A 16.83798,16.83798 0 0 0 -12.663309,79.110415 16.83798,16.83798 0 0 0 -29.50104,62.272684 Z m 0.05271,8.191231 c -0.0055,0.0095 -0.01145,0.0189 -0.01705,0.02842 h 0.03462 c -0.0056,-0.0096 -0.01207,-0.0189 -0.01757,-0.02842 z" />
  </g>
  <g
     inkscape:groupmode="layer"
     id="layer2"
     inkscape:label="Layer 2"
     style="display:inline">
    <path
       id="path22"
       style="fill:#79cdee;fill-opacity:1;stroke-width:0.209115"
       d="m 11.433197,0.27224764 c -2.3733082,0 -4.5122764,1.40026636 -4.7908159,2.90096406 0.2785395,1.5006972 2.4175077,2.9005483 4.7908159,2.9005483 2.006968,0 4.000113,-1.0919542 5.03475,-2.2599134 V 7.031174 c -2.374874,0.1691919 -4.514564,1.6253158 -6.089986,3.89501 -1.6777186,2.41707 -2.7157263,5.756358 -2.7157263,9.444681 0,1.749367 0.4189861,1.768902 -1.6346801,6.783902 -0.2074792,0.506659 2.6110466,-0.784315 2.8031419,-0.288056 0.3691435,0.953645 1.3041485,3.109556 3.1407345,4.78915 0.213461,0.195216 1.013383,1.260924 1.302499,1.938558 0.402874,-0.253109 0.862239,-1.809319 1.684633,-1.552261 0.636398,0.19892 1.297022,0.303876 1.97477,0.303875 0.677748,0 1.338789,-0.104955 1.975188,-0.303875 0.822392,-0.257058 1.281756,1.299152 1.684631,1.552261 0.289116,-0.677634 1.088622,-1.743342 1.302083,-1.938558 1.836586,-1.679594 2.771591,-3.835505 3.140735,-4.78915 0.192095,-0.496259 3.010621,0.794715 2.803142,0.288056 -2.053666,-5.015 -1.634681,-5.034535 -1.634681,-6.783902 0,-3.688323 -1.037591,-7.027611 -2.715309,-9.444681 -1.591162,-2.2923668 -3.758694,-3.7526515 -6.162,-3.8975077 V 3.7305932 c 1.012,1.1988681 3.051642,2.3431668 5.106347,2.3431668 2.373309,0 4.512693,-1.3998511 4.791233,-2.9005483 -0.27854,-1.5006977 -2.417924,-2.90096406 -4.791233,-2.90096406 -2.373311,0 -4.727821,1.52687566 -5.500136,2.90096406 0.0047,0.00832 0.01019,0.016642 0.01498,0.024976 h -0.02997 c 0.0048,-0.00833 0.01031,-0.016654 0.01498,-0.024976 C 16.161009,1.7991233 13.806499,0.27224764 11.433188,0.27224764 Z" />
  </g>
</svg>
