<?xml version="1.0" encoding="UTF-8" standalone="no"?>
<!-- Created with Inkscape (http://www.inkscape.org/) -->

<svg
   width="1024"
   height="512"
   viewBox="0 0 270.93332 135.46667"
   version="1.1"
   id="svg1"
   inkscape:version="1.3 (0e150ed6c4, 2023-07-21)"
   sodipodi:docname="logo.svg"
   xmlns:inkscape="http://www.inkscape.org/namespaces/inkscape"
   xmlns:sodipodi="http://sodipodi.sourceforge.net/DTD/sodipodi-0.dtd"
   xmlns="http://www.w3.org/2000/svg"
   xmlns:svg="http://www.w3.org/2000/svg">
  <sodipodi:namedview
     id="namedview1"
     pagecolor="#ffffff"
     bordercolor="#000000"
     borderopacity="0.25"
     inkscape:showpageshadow="2"
     inkscape:pageopacity="0.0"
     inkscape:pagecheckerboard="true"
     inkscape:deskcolor="#d1d1d1"
     inkscape:document-units="px"
     inkscape:zoom="1.4878904"
     inkscape:cx="549.43565"
     inkscape:cy="304.12187"
     inkscape:window-width="2560"
     inkscape:window-height="1377"
     inkscape:window-x="1912"
     inkscape:window-y="-8"
     inkscape:window-maximized="1"
     inkscape:current-layer="layer1" />
  <defs
     id="defs1" />
  <g
     inkscape:label="Layer 1"
     inkscape:groupmode="layer"
     id="layer1">
    <path
       id="path2"
       style="fill:#79cdee;fill-opacity:1;stroke-width:0.0830855"
       d="m 82.130756,-28.494943 c 0,2.528903 -2.05008,4.578982 -4.57898,4.578982 -2.528902,0 -4.578982,-2.05008 -4.578982,-4.578982 0,-2.528901 2.05008,-4.578981 4.578982,-4.578981 2.5289,0 4.57898,2.05008 4.57898,4.578981 z"
       sodipodi:nodetypes="sssss" />
    <path
       id="path3"
       style="fill:#fdb515;fill-opacity:1;stroke-width:0.0830855"
       d="m 82.130756,-18.270035 c 0,2.528902 -2.05008,4.578981 -4.57898,4.578981 -2.528902,0 -4.578982,-2.05008 -4.578982,-4.578981 0,-2.528902 2.05008,-4.578981 4.578982,-4.578981 2.5289,0 4.57898,2.050079 4.57898,4.578981 z"
       sodipodi:nodetypes="sssss" />
    <path
       id="path4"
       style="fill:#fcf9f7;fill-opacity:1;stroke-width:0.0830855"
       d="m 82.086296,-39.119955 c 0,2.528903 -2.05008,4.578981 -4.57898,4.578981 -2.528898,0 -4.578978,-2.05008 -4.578978,-4.578981 0,-2.528901 2.05008,-4.578981 4.578978,-4.578981 2.5289,0 4.57898,2.05008 4.57898,4.578981 z"
       sodipodi:nodetypes="sssss" />
    <path
       id="path22"
       style="fill:#79cdee;fill-opacity:1;stroke-width:0.259601"
       d="m 38.983124,-44.889291 c -2.946285,0 -5.601654,1.738326 -5.94744,3.60133 0.345786,1.863003 3.001155,3.600813 5.94744,3.600813 2.491501,0 4.965841,-1.355579 6.250265,-2.805513 v 3.994071 c -2.948228,0.210039 -5.604493,2.017708 -7.560262,4.835364 -2.082762,3.000612 -3.371371,7.146087 -3.371371,11.724865 0,2.171709 0.52014,2.195959 -2.029333,8.421708 -0.25757,0.628977 3.241419,-0.973669 3.479891,-0.357601 0.458264,1.18388 1.619002,3.860282 3.898986,5.945373 0.264997,0.242345 1.25804,1.565341 1.616956,2.406572 0.500139,-0.314214 1.070406,-2.246132 2.091345,-1.927014 0.790041,0.246944 1.610156,0.377239 2.45153,0.377238 0.841374,0 1.662006,-0.130294 2.452047,-0.377238 1.020939,-0.319118 1.591206,1.6128 2.091345,1.927014 0.358916,-0.841231 1.351442,-2.164227 1.616439,-2.406572 2.279984,-2.085091 3.440722,-4.761493 3.898986,-5.945373 0.238472,-0.616068 3.737462,0.986578 3.479891,0.357601 -2.549472,-6.225749 -2.029333,-6.249999 -2.029333,-8.421708 0,-4.578778 -1.288092,-8.724254 -3.370854,-11.724865 -1.975307,-2.845802 -4.666136,-4.658636 -7.649662,-4.838464 v -4.094324 c 1.256324,1.488305 3.788385,2.908866 6.339148,2.908866 2.946285,0 5.602172,-1.73781 5.947957,-3.600813 -0.345785,-1.863004 -3.001672,-3.60133 -5.947957,-3.60133 -2.946287,0 -5.869235,1.895502 -6.828007,3.60133 0.0058,0.01033 0.01265,0.02066 0.0186,0.03101 h -0.03721 c 0.006,-0.01035 0.0128,-0.02067 0.0186,-0.03101 -0.958772,-1.705828 -3.88172,-3.60133 -6.828007,-3.60133 z" />
    <path
       id="text1"
       style="font-style:normal;font-variant:normal;font-weight:normal;font-stretch:normal;font-size:47.5816px;font-family:Top-Heavy_Font;-inkscape-font-specification:Top-Heavy_Font;fill:#79cdee;fill-opacity:1;stroke:#ffffff;stroke-width:5.3425;stroke-linecap:round;stroke-linejoin:round;stroke-dasharray:none;stroke-opacity:1;paint-order:stroke fill markers"
       d="m 104.87132,23.295891 c -3.71826,0 -7.069345,2.193775 -7.505723,4.544909 0.436378,2.351122 3.787463,4.544253 7.505723,4.544253 3.14429,0 6.26694,-1.710753 7.88788,-3.540577 v 5.04055 c -3.72068,0.265073 -7.0729,2.546368 -9.54111,6.102266 -2.62846,3.786796 -4.254702,9.018427 -4.254702,14.796887 0,2.666485 0.592059,2.825561 -2.33734,10.064796 0.205694,-1.741598 -0.589018,-2.781215 -2.411043,-3.101677 -8.536248,-1.3426 -17.35129,-3.131422 -26.445147,-5.365985 -1.925144,-0.338596 -3.057203,0.454589 -3.3958,2.379745 l -1.430184,17.610951 c -0.338609,1.925143 0.454588,3.057203 2.379732,3.3958 l 13.602118,1.201281 c 1.155091,0.203158 1.631398,0.88227 1.42824,2.037348 l -0.248477,5.136426 c -0.176075,1.001075 -0.764979,1.413878 -1.766055,1.237803 l -4.667513,0.131729 c -4.493041,0.04329 -7.39378,1.755857 -8.703089,5.137729 -1.302532,3.343369 -1.105254,6.057455 0.59216,8.142235 1.742695,2.05304 5.134948,3.30443 10.176319,3.75449 2.797179,0.57136 5.154435,0.37068 7.072044,-0.60195 1.924374,-1.01113 3.129087,-2.44666 3.614923,-4.30622 0.277654,-1.57862 1.225655,-2.225253 2.84278,-1.940829 2.22374,0.202832 4.270099,0.467539 6.176616,0.781289 -0.186967,0.63995 -0.365175,1.20152 -0.529552,1.64084 -1.159937,3.20967 -2.409856,5.35153 -3.749919,6.42573 -1.333305,1.03571 -1.680774,2.1058 -1.041516,3.21061 0.632499,1.14329 3.070119,-0.0755 7.312045,-3.65603 2.182089,-1.84188 4.17985,-3.73227 6.00052,-5.66923 0.76504,0.2703 1.50016,0.55065 2.16975,0.85433 2.34017,1.36425 3.9053,1.38197 4.69491,0.0522 0.79638,-1.3683 0.068,-2.98533 -2.18409,-4.85012 -0.25296,-0.219953 -0.51214,-0.434751 -0.77608,-0.646293 0.26031,-0.339725 0.52218,-0.678844 0.77216,-1.021284 2.91464,-3.933098 5.61401,-9.690621 8.09854,-17.271834 0.3386,-1.925144 -0.45459,-3.056547 -2.37973,-3.395144 l -5.66532,-1.130204 c 0.54565,-0.819157 1.20812,-2.272335 2.22908,-1.953211 0.99704,0.31164 2.03204,0.476067 3.09385,0.476067 1.06183,0 2.09746,-0.164427 3.0945,-0.476067 0.97891,-0.305987 1.629,1.024246 2.16192,1.856692 -1.37627,1.330018 -1.24473,2.964787 -0.97042,3.706885 0.32903,0.652232 -0.31374,1.197117 -0.52043,1.423016 -1.62429,1.339092 -2.40955,2.807944 -2.24212,3.950794 0.14781,1.827224 1.86156,3.251161 3.64037,3.138855 0.68437,0.01969 1.96643,-0.770823 2.90928,-1.312805 0.45847,-0.187067 1.20432,-0.286337 1.73671,0.440214 l 0.35478,0.483905 c 0.60335,0.823422 0.11206,1.778763 0.0247,2.066034 -0.48144,1.171661 -0.92688,2.392049 -1.1628,3.086027 -0.9082,2.824349 -0.78716,5.936572 0.33522,8.687443 1.9512,4.89795 7.45415,7.93762 12.57756,7.31007 1.49152,-0.19958 3.7714,-1.05118 4.95643,-1.77062 0.66518,-0.41296 1.43295,-0.38047 1.76867,-0.32869 1.61718,0.37832 8.42808,2.46028 15.45099,-1.5691 5.31802,-3.00344 8.4551,-9.694579 7.98245,-14.708178 -0.17704,-1.359145 -1.14839,-2.582827 -2.49126,-2.789948 -2.14665,-0.288129 -3.19625,1.225158 -3.57123,2.542127 -0.2973,0.81339 -0.32331,2.098115 -0.74672,3.450584 -0.8698,3.689518 -4.2055,6.655446 -7.94723,7.23833 -0.975,0.193325 -2.73804,-0.07891 -3.85166,-0.379557 -0.82635,-0.213378 -0.82871,-1.03001 -0.86086,-1.378669 -0.0188,-1.549552 0.20122,-4.093061 -0.28564,-5.671841 -0.74783,-2.950879 -2.60306,-5.685891 -5.15599,-7.239638 -3.78263,-2.215999 -7.21736,-2.230613 -9.80328,-1.899096 -0.6134,0.07724 -1.29083,-0.542537 -1.43281,-0.736294 -0.35491,-0.484359 -0.54531,-0.642362 -0.73237,-1.10085 -0.16451,-0.326103 -0.17114,-0.842845 0.33913,-1.365619 0.92364,-0.974574 3.84914,-2.671824 4.62121,-4.056437 1.17585,-2.052707 -0.70185,-4.920066 -3.04559,-4.766 -1.3817,0.04467 -4.40721,2.113221 -5.86033,3.177977 -0.33905,0.248452 -1.04581,0.09654 -1.27171,-0.110173 -0.1956,-0.178966 -1.65249,-1.160985 -3.42319,-0.408247 0.48466,-0.726892 0.99766,-1.391516 1.19542,-1.572362 2.87735,-2.631401 4.34221,-6.009054 4.92054,-7.503108 0.30095,-0.777486 4.71671,1.24506 4.39165,0.451294 -3.21744,-7.85695 -2.56103,-7.887566 -2.56103,-10.62827 0,-5.778459 -1.62557,-11.010091 -4.25404,-14.796886 -2.49285,-3.591424 -5.88871,-5.879231 -9.65394,-6.106178 v -5.16708 c 1.58549,1.87826 4.78098,3.671019 8.00005,3.671019 3.71824,0 7.06999,-2.193131 7.50638,-4.544253 -0.43639,-2.351135 -3.78814,-4.544909 -7.50638,-4.544909 -3.71823,0 -7.407,2.392137 -8.61699,4.544909 0.008,0.013 0.0153,0.02612 0.0228,0.03912 h -0.0463 c 0.008,-0.013 0.0162,-0.02612 0.0235,-0.03912 -1.20998,-2.152772 -4.89878,-4.544909 -8.61701,-4.544909 z M 10.334043,47.391925 c -1.6419483,0 -2.463213,1.231582 -2.463213,3.694493 -0.5473205,19.62518 0.7038601,32.272146 3.753188,37.940773 3.049328,5.668626 6.196538,8.522478 9.441338,8.561571 h 0.938455 c 3.244801,0 4.886674,-0.860466 4.925771,-2.580601 0.03912,-1.720134 -1.036324,-2.579945 -3.225593,-2.579945 -1.251004,-9.812584 -0.918439,-23.593137 0.997164,-41.341798 0,-2.462911 -0.821265,-3.694493 -2.463214,-3.694493 z m 19.29288,0.879772 c -1.954699,0 -2.932112,1.133574 -2.932112,3.401025 l 0.176075,11.200212 c 0.03912,1.17281 0.52781,1.72032 1.466063,1.642138 L 42.17645,64.397706 c 0.508224,0 0.761723,0.390705 0.761723,1.172582 0,0.508224 -0.253499,0.684627 -0.761723,0.528252 l -14.3084,0.116736 c -0.46914,0.07824 -0.762493,0.508753 -0.879772,1.29063 l 0.176088,8.971783 c 0,1.446477 0.644861,2.169734 1.934962,2.169734 h 13.546034 c 0.586405,0.312751 0.899358,0.899459 0.938455,1.75953 l 0.234128,1.993658 c 0.312751,1.016447 -0.566667,1.250991 -2.638645,0.703684 -2.071979,-0.547321 -4.593926,-0.762266 -7.56506,-0.644988 -2.93205,0.117241 -4.788881,1.563806 -5.570771,4.33948 -0.781878,2.736577 -0.468912,5.277467 0.938467,7.623107 1.407379,2.306544 5.492804,3.459713 12.25606,3.459713 h 4.808378 c 3.244801,0.19547 5.551147,-1.055703 6.919429,-3.753185 2.345645,0.860066 3.929378,0.684314 4.750339,-0.5276 0.860072,-1.211905 0.977022,-2.267083 0.35152,-3.166239 -0.586405,-0.899156 -2.521644,-2.326084 -5.805542,-4.280784 l 0.469556,-5.395326 c 0,-1.211919 0.586064,-1.817583 1.758886,-1.817583 h 4.867075 c 1.172822,-0.03912 1.857538,-0.801552 2.052998,-2.287125 l 0.644987,-9.558718 c 0.03912,-0.742793 -0.254257,-1.192295 -0.879759,-1.348671 l -7.271592,0.117367 c -0.508224,0.156376 -0.76238,-0.039 -0.76238,-0.586291 0,-0.664599 0.254156,-0.997164 0.76238,-0.997164 h 7.1542 c 0.820975,0.07824 1.250878,-0.371321 1.289975,-1.34867 l 0.703683,-11.258896 c 0,-2.267451 -1.094363,-3.401025 -3.283632,-3.401025 z m 209.166967,4.836421 c -1.9547,0 -2.93213,0.977425 -2.93213,2.932125 v 4.925771 h -8.09201 c -1.9547,0 -2.93211,1.133561 -2.93211,3.401012 l 0.64499,13.311919 c -0.0391,0.781877 0.21505,1.270578 0.76237,1.46605 l 8.67896,0.05805 c 0.97735,0 1.46605,0.43056 1.46605,1.290631 0.0391,0.860072 -0.44961,1.231178 -1.46605,1.113887 l -8.21006,0.117367 c -0.46912,0.07824 -0.76248,0.508097 -0.87977,1.289975 l 0.58695,6.802693 c 0,1.407379 0.62526,2.11105 1.87627,2.11105 h 6.86073 c 0.58642,0.03912 0.97778,0.58595 1.17324,1.641484 0.0782,2.932047 0.99681,5.395192 2.75604,7.388988 1.75922,1.99379 4.47587,3.49912 8.1507,4.51556 3.67483,1.05554 7.31076,1.15289 10.90739,0.29282 3.63575,-0.86007 5.31682,-1.97403 5.04316,-3.34232 -0.27365,-1.36829 -1.52483,-1.7982 -3.75318,-1.28998 -2.18926,0.50822 -4.5348,0.29327 -7.03681,-0.64499 -2.50202,-0.938253 -3.77215,-2.619333 -3.81123,-5.043159 0,-2.423825 0.2731,-3.674993 0.82041,-3.753187 l 8.85504,0.05868 c 1.01645,-0.03912 1.60316,-0.683958 1.75953,-1.934962 l 0.41022,-7.212896 c 0.0391,-0.742793 -0.25427,-1.192296 -0.87977,-1.348671 l -8.44418,0.116736 c -0.74279,0.11724 -1.13349,-0.273427 -1.17259,-1.172583 -0.0391,-0.899168 0.35162,-1.348671 1.17259,-1.348671 h 8.32679 c 0.82097,0.07825 1.25153,-0.37132 1.29063,-1.34867 l 0.93781,-13.135831 c 0,-2.267451 -1.09438,-3.401012 -3.28363,-3.401012 h -6.8027 l 0.46956,-4.925771 c 0,-1.9547 -0.97741,-2.932126 -2.93211,-2.932126 z m -35.08626,3.189726 c -1.72564,0.06108 -2.58843,0.702182 -2.58843,1.923869 l -0.76238,4.926427 c -5.08221,0.625502 -9.22645,1.759076 -12.43215,3.401025 l -0.76238,-6.919429 c -0.23456,-0.899168 -1.05517,-1.270918 -2.46256,-1.114543 l -8.97242,1.759531 c -1.48558,0.195459 -2.03243,1.172885 -1.6415,2.932112 0.39095,1.720131 1.23115,4.749734 2.52126,9.089163 -4.02668,4.495804 -6.33302,9.714803 -6.91943,15.657084 -0.54731,5.903189 0.70386,10.613873 3.75318,14.132327 3.08843,3.47936 7.33,4.82789 12.72498,4.04601 5.43405,-0.78188 10.59424,-5.02345 15.48099,-12.724966 4.88675,-7.701513 8.69842,-11.14142 11.435,-10.320446 2.77566,0.781877 4.06604,2.951661 3.87057,6.509213 -0.19548,3.518467 -1.42705,6.430461 -3.6945,8.737005 -2.22835,2.267454 -4.16359,3.577424 -5.80553,3.929274 -1.60285,0.31275 -2.30652,1.03601 -2.11105,2.16974 0.19548,1.17281 1.85695,1.28977 4.98447,0.35151 3.12752,-0.93825 6.35247,-3.38115 9.67545,-7.329638 7.31058,-14.542952 4.65274,-25.3331 -7.97461,-32.37001 l 0.87911,-3.753188 c 1.01645,-2.032881 -0.70319,-3.538218 -5.1599,-4.515555 -1.6566,-0.381177 -3.0028,-0.553163 -4.03817,-0.516515 z m -103.45884,8.48461 c 0.28739,-0.01413 0.48878,0.03294 0.54522,0.1787 0.57833,1.494055 2.04319,4.871707 4.92056,7.503108 0.27422,0.250787 1.16035,1.416025 1.72235,2.413642 l -3.73036,-0.744105 c -1.92514,-0.33861 -3.0572,0.454575 -3.3958,2.379732 -1.139001,6.583027 -2.138096,11.923987 -3.006471,16.103809 -2.017636,-0.662024 -4.173273,-1.218368 -6.503345,-1.640838 -1.001081,-0.176075 -1.413884,-0.764323 -1.237808,-1.765398 l 6.904429,-23.63366 c 0.442043,0.160855 2.708813,-0.742453 3.781225,-0.79499 z m 51.23378,4.318606 c -1.78401,0.04165 -3.53718,0.823536 -4.55143,2.385613 -1.53746,2.168774 -1.46453,5.316261 0.29086,7.305502 1.79088,2.03769 5.01529,2.578233 7.40789,1.271714 3.00935,-1.683987 3.84095,-6.238538 1.58867,-8.905906 -1.13741,-1.399871 -2.95198,-2.098607 -4.73599,-2.056923 z m 41.90722,10.508279 c 3.61114,0.06752 4.44776,3.102749 2.51016,9.106123 -2.65839,7.310569 -5.64879,10.78968 -8.97177,10.437835 -3.323,-0.351846 -4.88712,-3.205698 -4.69166,-8.561569 0,-1.094628 0.1372,-2.149793 0.41087,-3.16624 0.43003,0.860071 0.95729,1.719878 1.58279,2.579949 2.5411,4.300333 4.53514,6.39172 5.98162,6.274438 1.44647,-0.117279 2.20894,-1.290052 2.28713,-3.518413 l -2.05235,-12.724959 c 1.12884,-0.300535 2.10986,-0.442738 2.94321,-0.427164 z M 38.107621,89.78957 c 1.89117,-0.02928 3.364818,0.205228 4.420349,0.703684 1.446477,0.664599 2.169746,1.504806 2.169746,2.521253 v 0.234777 c 0,1.094631 -0.723269,1.621888 -2.169746,1.582794 h -3.87058 c -2.345632,0 -3.713751,-0.761812 -4.104696,-2.28647 -0.351848,-1.524671 0.156464,-2.404732 1.524747,-2.639302 0.723244,-0.0684 1.399794,-0.107018 2.03018,-0.116736 z m 96.155939,0.423253 c 1.05506,0.02903 2.10051,0.3416 2.9719,0.959328 2.50449,1.589235 3.21999,5.308651 1.47583,7.703325 -1.60218,2.588424 -5.40554,3.290604 -7.83571,1.498014 -2.62391,-1.650618 -3.20309,-5.692479 -1.20714,-8.048317 1.05173,-1.422031 2.83668,-2.160786 4.59512,-2.11235 z m -61.098376,7.385722 c 0.636532,0.02015 1.368674,0.103523 2.196489,0.249126 l 1.039541,0.182605 c 3.349762,0.589165 4.899824,1.596199 4.649252,3.020814 l -0.132384,0.75063 c -0.257336,1.46311 -2.06057,1.90001 -5.410332,1.31085 l -1.039542,-0.18261 c -3.311258,-0.58239 -4.838768,-1.6053 -4.581432,-3.068416 l 0.132385,-0.750638 c 0.187926,-1.068457 1.236466,-1.572843 3.146023,-1.512361 z" />
    <g
       id="g10"
       style="stroke:none;stroke-width:1.26471;stroke-linecap:round;stroke-dasharray:none;stroke-opacity:1;paint-order:stroke fill markers"
       transform="translate(-263.55292,-107.63421)">
      <text
         xml:space="preserve"
         style="font-style:normal;font-variant:normal;font-weight:normal;font-stretch:normal;font-size:47.5816px;font-family:Top-Heavy_Font;-inkscape-font-specification:Top-Heavy_Font;fill:#79cdee;fill-opacity:1;stroke:none;stroke-width:1.26471;stroke-linecap:round;stroke-dasharray:none;stroke-opacity:1;paint-order:stroke fill markers"
         x="40.184822"
         y="87.370613"
         id="text6"><tspan
           sodipodi:role="line"
           id="tspan6"
           style="fill:#79cdee;fill-opacity:1;stroke:none;stroke-width:1.26471;stroke-linecap:round;stroke-dasharray:none;stroke-opacity:1;paint-order:stroke fill markers"
           x="40.184822"
           y="87.370613">ほ</tspan></text>
      <text
         xml:space="preserve"
         style="font-style:normal;font-variant:normal;font-weight:normal;font-stretch:normal;font-size:47.5816px;font-family:Top-Heavy_Font;-inkscape-font-specification:Top-Heavy_Font;fill:#79cdee;fill-opacity:1;stroke:none;stroke-width:1.26471;stroke-linecap:round;stroke-dasharray:none;stroke-opacity:1;paint-order:stroke fill markers"
         x="92.678444"
         y="78.591026"
         id="text7"
         transform="rotate(9.9753165)"><tspan
           sodipodi:role="line"
           id="tspan7"
           style="fill:#79cdee;fill-opacity:1;stroke:none;stroke-width:1.26471;stroke-linecap:round;stroke-dasharray:none;stroke-opacity:1;paint-order:stroke fill markers"
           x="92.678444"
           y="78.591026">み</tspan></text>
      <text
         xml:space="preserve"
         style="font-style:normal;font-variant:normal;font-weight:normal;font-stretch:normal;font-size:47.5816px;font-family:Amanatsu;-inkscape-font-specification:Amanatsu;fill:#79cdee;fill-opacity:1;stroke:none;stroke-width:1.26471;stroke-linecap:round;stroke-dasharray:none;stroke-opacity:1;paint-order:stroke fill markers"
         x="45.860023"
         y="170.42642"
         id="text8"
         transform="rotate(-36.232038)"><tspan
           sodipodi:role="line"
           id="tspan8"
           style="font-style:normal;font-variant:normal;font-weight:normal;font-stretch:normal;font-family:Amanatsu;-inkscape-font-specification:Amanatsu;fill:#79cdee;fill-opacity:1;stroke:none;stroke-width:1.26471;stroke-linecap:round;stroke-dasharray:none;stroke-opacity:1;paint-order:stroke fill markers"
           x="45.860023"
           y="170.42642">む</tspan></text>
      <text
         xml:space="preserve"
         style="font-style:normal;font-variant:normal;font-weight:normal;font-stretch:normal;font-size:47.5816px;font-family:Top-Heavy_Font;-inkscape-font-specification:Top-Heavy_Font;fill:#79cdee;fill-opacity:1;stroke:none;stroke-width:1.26471;stroke-linecap:round;stroke-dasharray:none;stroke-opacity:1;paint-order:stroke fill markers"
         x="167.15149"
         y="93.907837"
         id="text9"><tspan
           sodipodi:role="line"
           id="tspan9"
           style="fill:#79cdee;fill-opacity:1;stroke:none;stroke-width:1.26471;stroke-linecap:round;stroke-dasharray:none;stroke-opacity:1;paint-order:stroke fill markers"
           x="167.15149"
           y="93.907837">め</tspan></text>
      <text
         xml:space="preserve"
         style="font-style:normal;font-variant:normal;font-weight:normal;font-stretch:normal;font-size:47.5816px;font-family:Top-Heavy_Font;-inkscape-font-specification:Top-Heavy_Font;fill:#79cdee;fill-opacity:1;stroke:none;stroke-width:1.26471;stroke-linecap:round;stroke-dasharray:none;stroke-opacity:1;paint-order:stroke fill markers"
         x="209.82939"
         y="92.968849"
         id="text10"><tspan
           sodipodi:role="line"
           id="tspan10"
           style="fill:#79cdee;fill-opacity:1;stroke:none;stroke-width:1.26471;stroke-linecap:round;stroke-dasharray:none;stroke-opacity:1;paint-order:stroke fill markers"
           x="209.82939"
           y="92.968849">も</tspan></text>
      <path
         id="path10"
         style="fill:#79cdee;fill-opacity:1;stroke:none;stroke-width:1.26471;stroke-linecap:round;stroke-dasharray:none;stroke-opacity:1;paint-order:stroke fill markers"
         d="m 118.11503,30.686112 c -2.9463,0 -5.60167,1.738326 -5.94745,3.60133 0.34578,1.863003 3.00115,3.600813 5.94745,3.600813 2.4915,0 4.96583,-1.355579 6.25025,-2.805513 v 3.994071 c -2.94823,0.210039 -5.60448,2.017708 -7.56026,4.835364 -2.08276,3.000612 -3.37137,7.146087 -3.37137,11.724865 0,2.171709 0.52014,2.195959 -2.02933,8.421708 -0.25757,0.628977 3.24141,-0.973669 3.47989,-0.357601 0.45826,1.18388 1.619,3.860282 3.89899,5.945373 0.265,0.242345 1.25804,1.565341 1.61696,2.406572 0.50014,-0.314214 1.07039,-2.246132 2.09133,-1.927014 0.79004,0.246944 1.61016,0.377239 2.45153,0.377238 0.84138,0 1.66201,-0.130294 2.45205,-0.377238 1.02094,-0.319118 1.59121,1.6128 2.09135,1.927014 0.35891,-0.841231 1.35144,-2.164227 1.61643,-2.406572 2.27999,-2.085091 3.44073,-4.761493 3.89899,-5.945373 0.23847,-0.616068 3.73746,0.986578 3.47989,0.357601 -2.54947,-6.225749 -2.02933,-6.249999 -2.02933,-8.421708 0,-4.578778 -1.28809,-8.724254 -3.37086,-11.724865 -1.9753,-2.845802 -4.66613,-4.658636 -7.64966,-4.838464 v -4.094324 c 1.25633,1.488305 3.78839,2.908866 6.33915,2.908866 2.94629,0 5.60217,-1.73781 5.94796,-3.600813 -0.34579,-1.863004 -3.00167,-3.60133 -5.94796,-3.60133 -2.94629,0 -5.86923,1.895502 -6.82801,3.60133 0.006,0.01033 0.0126,0.02066 0.0186,0.03101 h -0.0372 c 0.006,-0.01035 0.0128,-0.02067 0.0186,-0.03101 -0.95877,-1.705828 -3.88171,-3.60133 -6.82799,-3.60133 z" />
    </g>
    <path
       id="path11"
       style="font-style:normal;font-variant:normal;font-weight:normal;font-stretch:normal;font-size:47.5816px;font-family:Top-Heavy_Font;-inkscape-font-specification:Top-Heavy_Font;fill:#79cdee;fill-opacity:1;stroke:#ffffff;stroke-width:1.26471;stroke-linecap:round;stroke-dasharray:none;stroke-opacity:1;paint-order:stroke fill markers"
       d="m -140.79717,-1.8558979 c -2.9463,0 -5.60166,1.73832797 -5.94744,3.60133 0.34578,1.863002 3.00114,3.600814 5.94744,3.600814 2.4915,0 4.96585,-1.355581 6.25026,-2.805513 v 3.994071 c -2.94822,0.210039 -5.60448,2.017711 -7.56026,4.8353639 -2.08276,3.000609 -3.37137,7.146092 -3.37137,11.724865 0,2.112891 0.46914,2.238946 -1.85208,7.975224 0.16299,-1.380017 -0.46673,-2.2038 -1.91048,-2.457731 -6.76401,-1.063861 -13.74894,-2.481301 -20.9548,-4.251937 -1.52546,-0.268303 -2.42248,0.36021 -2.69079,1.885673 l -1.13326,13.954704 c -0.2683,1.525463 0.36021,2.422489 1.88567,2.690792 l 10.77815,0.951879 c 0.91528,0.160982 1.2927,0.699094 1.13172,1.614372 l -0.19689,4.070036 c -0.13952,0.793241 -0.60616,1.120336 -1.3994,0.980819 l -3.69848,0.104386 c -3.56023,0.03433 -5.85874,1.391315 -6.89622,4.071069 -1.03211,2.649245 -0.87579,4.799851 0.46922,6.451803 1.38089,1.626809 4.06887,2.618393 8.06359,2.975012 2.21645,0.452741 4.08431,0.293726 5.6038,-0.476974 1.52485,-0.801208 2.47945,-1.938704 2.86442,-3.412194 0.22001,-1.25088 0.97119,-1.763265 2.25258,-1.537891 1.76206,0.160722 3.38357,0.370469 4.89427,0.619084 -0.14815,0.507092 -0.28936,0.952072 -0.41961,1.300179 -0.91912,2.543306 -1.90954,4.240488 -2.97139,5.091679 -1.05649,0.820681 -1.33182,1.668611 -0.82528,2.544033 0.50118,0.90593 2.43272,-0.05978 5.79397,-2.896983 1.72906,-1.45949 3.31206,-2.957404 4.75474,-4.492233 0.60621,0.214185 1.18871,0.436328 1.71928,0.676962 1.85432,1.081016 3.09451,1.095059 3.72019,0.04134 0.63104,-1.084228 0.0539,-2.36554 -1.73065,-3.843176 -0.20044,-0.174288 -0.40581,-0.344491 -0.61495,-0.512114 0.20626,-0.269194 0.41377,-0.537908 0.61185,-0.809253 2.30952,-3.116539 4.44847,-7.678729 6.41718,-13.685986 0.2683,-1.525463 -0.36021,-2.421972 -1.88567,-2.690275 l -4.48913,-0.895553 c 0.43237,-0.649091 0.9573,-1.800579 1.7663,-1.547709 0.79004,0.246944 1.61016,0.377239 2.45153,0.377238 0.84138,0 1.662,-0.130294 2.45204,-0.377238 0.77568,-0.242456 1.2908,0.811605 1.71308,1.471228 -1.09054,1.053885 -0.98631,2.349259 -0.76895,2.937289 0.26072,0.516815 -0.2486,0.948582 -0.41238,1.127579 -1.28707,1.061081 -1.9093,2.224976 -1.77663,3.130559 0.11712,1.447872 1.47508,2.57618 2.88458,2.487186 0.54229,0.01555 1.55818,-0.610786 2.30528,-1.040246 0.36329,-0.148226 0.95429,-0.226895 1.37615,0.348816 l 0.28112,0.383439 c 0.47809,0.652472 0.0888,1.409473 0.0196,1.637109 -0.38149,0.928409 -0.73445,1.89543 -0.92139,2.445329 -0.71965,2.237976 -0.62374,4.704063 0.26562,6.883817 1.54611,3.881075 5.90658,6.289677 9.96631,5.792412 1.18186,-0.158147 2.98841,-0.832939 3.92741,-1.403016 0.52708,-0.327223 1.13545,-0.301478 1.40147,-0.260449 1.28144,0.299774 6.67831,1.94949 12.243176,-1.243335 4.21393,-2.379895 6.69971,-7.681868 6.32519,-11.654585 -0.14028,-1.076972 -0.90997,-2.046601 -1.97404,-2.210718 -1.70098,-0.228309 -2.53267,0.970796 -2.8298,2.014347 -0.23558,0.644527 -0.25619,1.662526 -0.59169,2.7342 -0.68922,2.923532 -3.332386,5.273697 -6.297286,5.735567 -0.77258,0.153186 -2.16959,-0.06253 -3.05201,-0.300756 -0.65479,-0.169078 -0.65666,-0.816167 -0.68213,-1.09244 -0.0149,-1.227846 0.15944,-3.243291 -0.22634,-4.4943 -0.59257,-2.338237 -2.06263,-4.505432 -4.08554,-5.7366 -2.99731,-1.755929 -5.71895,-1.767512 -7.768,-1.504818 -0.48605,0.06121 -1.02284,-0.429904 -1.13534,-0.583427 -0.28123,-0.383807 -0.4321,-0.509006 -0.58032,-0.872298 -0.13036,-0.258408 -0.13561,-0.667862 0.26872,-1.082104 0.73188,-0.772238 3.05001,-2.117125 3.66179,-3.214274 0.93173,-1.626534 -0.55614,-3.898592 -2.41329,-3.776514 -1.09484,0.0354 -3.49222,1.67449 -4.64365,2.518192 -0.26866,0.196864 -0.82869,0.07645 -1.00769,-0.08733 -0.15499,-0.141815 -1.30941,-0.91995 -2.71249,-0.323494 0.38404,-0.575981 0.79053,-1.102615 0.94723,-1.245919 2.27998,-2.085089 3.44072,-4.761495 3.89898,-5.945373 0.23847,-0.616068 3.73746,0.986577 3.47989,0.3576 -2.54946,-6.225742 -2.02933,-6.250001 -2.02933,-8.421708 0,-4.578773 -1.28808,-8.724257 -3.37085,-11.724865 -1.9753,-2.8457989 -4.66614,-4.6586369 -7.64966,-4.8384639 v -4.094324 c 1.25632,1.488303 3.78839,2.908866 6.33914,2.908866 2.94629,0 5.60217,-1.737812 5.94796,-3.600814 -0.34579,-1.86300203 -3.00167,-3.60133 -5.94796,-3.60133 -2.94628,0 -5.86922,1.89550397 -6.828,3.60133 0.006,0.01033 0.0121,0.020656 0.0181,0.031006 h -0.0367 c 0.006,-0.01035 0.0128,-0.020666 0.0186,-0.031006 -0.95877,-1.70582603 -3.88173,-3.60133 -6.82801,-3.60133 z M -215.70733,17.23751 c -1.30106,0 -1.95182,0.975883 -1.95182,2.92747 -0.43368,15.550742 0.55773,25.572049 2.97398,30.063797 2.41625,4.491748 4.91006,6.753105 7.4812,6.784082 h 0.74362 c 2.57114,0 3.87214,-0.681823 3.90312,-2.044836 0.031,-1.363013 -0.82117,-2.04432 -2.55591,-2.04432 -0.99129,-7.775371 -0.72777,-18.694905 0.79013,-32.758723 0,-1.951587 -0.65076,-2.92747 -1.95182,-2.92747 z m 15.28744,0.697115 c -1.54888,0 -2.32337,0.898227 -2.32337,2.694926 l 0.13952,8.87491 c 0.031,0.929327 0.41823,1.363168 1.16169,1.301213 l 10.96626,-0.09302 c 0.4027,0 0.60358,0.309591 0.60358,0.929142 0,0.402709 -0.20088,0.54249 -0.60358,0.41858 l -11.33781,0.0925 c -0.37173,0.06195 -0.60419,0.403125 -0.69712,1.022677 l 0.13953,7.109127 c 0,1.14617 0.51098,1.719274 1.53324,1.719274 h 10.73371 c 0.46466,0.247821 0.71265,0.712724 0.74362,1.394231 l 0.18552,1.579748 c 0.24782,0.805417 -0.44902,0.991275 -2.09083,0.557589 -1.64181,-0.433686 -3.64017,-0.604013 -5.99446,-0.51108 -2.32332,0.09293 -3.79465,1.239142 -4.4142,3.43855 -0.61956,2.16843 -0.37157,4.181803 0.74362,6.040458 1.11519,1.827677 4.35243,2.741434 9.71155,2.741434 h 3.8101 c 2.57114,0.154888 4.39866,-0.836526 5.48287,-2.973978 1.85866,0.681506 3.11359,0.542242 3.76412,-0.418063 0.6815,-0.960304 0.77417,-1.796406 0.27853,-2.50889 -0.46466,-0.712484 -1.99812,-1.843163 -4.60023,-3.392041 l 0.37207,-4.275191 c 0,-0.960305 0.46438,-1.440223 1.39371,-1.440223 h 3.85661 c 0.92933,-0.03098 1.47189,-0.635144 1.62678,-1.812292 l 0.51108,-7.574215 c 0.031,-0.588574 -0.20148,-0.944758 -0.69712,-1.068668 l -5.76192,0.09302 c -0.40271,0.123911 -0.6041,-0.03088 -0.6041,-0.464571 0,-0.526619 0.20139,-0.790132 0.6041,-0.790132 h 5.6689 c 0.65053,0.06196 0.99118,-0.29423 1.02216,-1.068669 l 0.55759,-8.921419 c 0,-1.796699 -0.86716,-2.694926 -2.60191,-2.694926 z m 165.741306,3.832324 c -1.54888,0 -2.32338,0.774494 -2.32338,2.323372 v 3.903121 h -6.41201 c -1.54888,0 -2.32337,0.898227 -2.32337,2.694926 l 0.51108,10.548193 c -0.03098,0.619552 0.17041,1.006799 0.6041,1.161687 l 6.8771,0.04599 c 0.77444,0 1.16168,0.34117 1.16168,1.022676 0.03098,0.681507 -0.35627,0.975566 -1.16168,0.882634 l -6.50555,0.09302 c -0.37173,0.06196 -0.60418,0.402609 -0.69712,1.02216 l 0.46509,5.390369 c 0,1.115192 0.49545,1.672766 1.48673,1.672766 h 5.43636 c 0.46467,0.03098 0.77478,0.464301 0.92966,1.300696 0.06196,2.323318 0.78986,4.275083 2.18385,5.854939 1.39399,1.579857 3.54663,2.77266 6.45852,3.578076 2.91189,0.836395 5.79295,0.913534 8.64288,0.232028 2.88092,-0.681507 4.21298,-1.564202 3.99614,-2.648418 -0.21684,-1.084215 -1.20826,-1.424868 -2.97398,-1.022159 -1.73474,0.402708 -3.59332,0.232381 -5.57588,-0.51108 -1.98257,-0.743462 -2.989,-2.075529 -3.01997,-3.996139 0,-1.920609 0.2164,-2.912023 0.65008,-2.973978 l 7.01663,0.04651 c 0.80542,-0.03098 1.27032,-0.541957 1.39423,-1.533239 l 0.32505,-5.715414 c 0.03097,-0.588574 -0.20148,-0.944758 -0.69712,-1.068668 l -6.69106,0.0925 c -0.58858,0.09293 -0.89817,-0.216658 -0.92915,-0.929143 -0.03097,-0.712484 0.27862,-1.068668 0.92915,-1.068668 h 6.59804 c 0.65053,0.06196 0.9917,-0.29423 1.02268,-1.068669 l 0.74311,-10.408667 c 0,-1.796699 -0.86717,-2.694926 -2.60191,-2.694926 h -5.39037 l 0.37207,-3.903121 c 0,-1.548878 -0.77449,-2.323372 -2.32337,-2.323372 z m -27.80192,2.527494 c -1.36737,0.0484 -2.05104,0.556406 -2.05104,1.524455 l -0.6041,3.903638 c -4.02708,0.495641 -7.31092,1.393868 -9.85108,2.694926 l -0.6041,-5.48287 c -0.18586,-0.712484 -0.8361,-1.00706 -1.9513,-0.88315 l -7.10964,1.39423 c -1.17715,0.154888 -1.61047,0.929382 -1.3007,2.323373 0.30978,1.363013 0.97555,3.763633 1.99781,7.202144 -3.19069,3.562421 -5.0182,7.697886 -5.48287,12.406478 -0.43368,4.677613 0.55773,8.410301 2.97398,11.198282 2.44723,2.757004 5.8082,3.825558 10.08311,3.206006 4.30588,-0.619551 8.39475,-3.980523 12.26695,-10.083105 3.8722,-6.102582 6.89252,-8.828325 9.06095,-8.177796 2.1994,0.619552 3.22188,2.338866 3.06699,5.157825 -0.15489,2.787982 -1.13077,5.095415 -2.92747,6.923092 -1.76572,1.796699 -3.29918,2.834706 -4.60023,3.113505 -1.27008,0.24782 -1.82766,0.820925 -1.67277,1.719275 0.15489,0.929327 1.47142,1.021997 3.94963,0.278535 2.47821,-0.743461 5.03362,-2.679179 7.66671,-5.807914 5.79281,-11.523657 3.68677,-20.073633 -6.31899,-25.649597 l 0.6966,-2.973978 c 0.80542,-1.610834 -0.5572,-2.803637 -4.08864,-3.578076 -1.31267,-0.302032 -2.37938,-0.438319 -3.1998,-0.409278 z M -144.46,31.017547 c 0.22772,-0.01115 0.3873,0.02608 0.43202,0.141594 0.45826,1.183878 1.619,3.860284 3.89899,5.945373 0.21729,0.198717 0.91945,1.122045 1.36477,1.912545 l -2.95589,-0.589628 c -1.52546,-0.268303 -2.42249,0.360209 -2.69079,1.885673 -0.90253,5.216311 -1.6942,9.448426 -2.38229,12.760461 -1.59875,-0.524583 -3.30685,-0.965416 -5.15317,-1.300179 -0.79324,-0.139518 -1.12034,-0.60564 -0.98082,-1.398881 l 5.47098,-18.727022 c 0.35027,0.127467 2.14643,-0.588309 2.9962,-0.629936 z m 40.59701,3.422013 c -1.41363,0.03304 -2.80282,0.652558 -3.6065,1.890324 -1.21826,1.718513 -1.16047,4.212537 0.23048,5.788794 1.41907,1.614638 3.97405,2.042959 5.86992,1.007691 2.384566,-1.334369 3.043516,-4.943347 1.25884,-7.056934 -0.90127,-1.109236 -2.33911,-1.66291 -3.75274,-1.629875 z m 33.206756,8.326624 c 2.86143,0.05348 3.52435,2.458586 1.98902,7.21558 -2.10647,5.792806 -4.47603,8.549611 -7.10912,8.270813 -2.6331,-0.278798 -3.87249,-2.540155 -3.71761,-6.784082 0,-0.867372 0.10872,-1.703474 0.32557,-2.508891 0.34075,0.681507 0.75854,1.362813 1.25418,2.04432 2.01354,3.407533 3.59359,5.064722 4.73976,4.971789 1.14617,-0.09293 1.75034,-1.022221 1.8123,-2.787943 l -1.62626,-10.083106 c 0.89448,-0.23814 1.67183,-0.350823 2.33216,-0.33848 z m -123.043656,8.066691 c 1.49854,-0.02323 2.66624,0.162624 3.50263,0.557589 1.14617,0.526618 1.71928,1.192393 1.71928,1.99781 v 0.186036 c 0,0.867372 -0.57311,1.285164 -1.71928,1.254187 h -3.067 c -1.85865,0 -2.94273,-0.603651 -3.25251,-1.811776 -0.2788,-1.208126 0.12398,-1.90548 1.2082,-2.091345 0.57308,-0.05421 1.10917,-0.08476 1.60868,-0.0925 z m 76.19277,0.33538 c 0.83602,0.02302 1.66442,0.27068 2.3549,0.76016 1.98452,1.259291 2.55148,4.20651 1.16943,6.10402 -1.26955,2.051033 -4.28329,2.607431 -6.20892,1.187008 -2.07916,-1.307929 -2.53809,-4.51065 -0.95653,-6.377389 0.83338,-1.126801 2.24775,-1.712175 3.64112,-1.673799 z m -48.41358,5.852356 c 0.50437,0.01597 1.08451,0.08203 1.74046,0.197404 l 0.82372,0.144694 c 2.65431,0.466847 3.88256,1.264809 3.68401,2.393652 l -0.1049,0.594796 c -0.20391,1.159352 -1.63277,1.505543 -4.28708,1.038696 l -0.82372,-0.144694 c -2.6238,-0.461481 -3.83418,-1.272024 -3.63027,-2.431376 l 0.1049,-0.594796 c 0.14891,-0.846632 0.97976,-1.246301 2.49288,-1.198376 z" />
  </g>
</svg>
