<svg xmlns="http://www.w3.org/2000/svg" xml:space="preserve" fill-rule="evenodd" stroke-linejoin="round" stroke-miterlimit="2" clip-rule="evenodd" viewBox="0 0 111 111"><path fill="none" d="M.363.363h109.714v109.714H.363z"/><path fill="#79cdee" d="M89.341 22.024h.005a.81.81 0 0 1 .805.804v7.435a.81.81 0 0 1-.805.804h-.005a.81.81 0 0 1-.804-.804v-7.435a.81.81 0 0 1 .804-.804m3.639 0h.004c.588 0 1.071.484 1.071 1.071v13.171a1.076 1.076 0 0 1-1.071 1.069h-.004a1.076 1.076 0 0 1-1.069-1.069V23.095c0-.587.482-1.07 1.069-1.071m3.797 0h.004a.97.97 0 0 1 .965.965v10.676a.97.97 0 0 1-.965.965h-.004a.97.97 0 0 1-.962-.965V22.989a.97.97 0 0 1 .962-.965M36.33.363h.005c8.3 0 14.627 3.103 18.886 8.702C59.481 3.466 65.806.363 74.106.363h.005c9.034.001 14.537 3.12 16.359 8.702-1.822 5.582-7.324 8.701-16.359 8.702h-.005c-7.528 0-13.426-2.56-17.637-7.213-.005 1.37-.001 4.251 0 7.827 9.147.398 16.249 5.353 21.524 12.952 5.828 8.396 9.432 19.996 9.432 32.808 0 6.077-1.455 6.145 5.678 23.566.721 1.76-9.07-2.725-9.737-1.001-1.282 3.313-4.53 10.802-10.91 16.636-.742.678-3.519 4.38-4.523 6.734-1.399-.879-2.995-6.285-5.852-5.392a23 23 0 0 1-6.861 1.056c-2.354 0-4.649-.365-6.86-1.056-2.857-.893-4.453 4.513-5.852 5.392-1.004-2.354-3.783-6.056-4.525-6.734-6.38-5.834-9.628-13.324-10.91-16.636-.667-1.724-10.458 2.761-9.737 1.001 7.134-17.421 5.678-17.489 5.678-23.566 0-12.812 3.606-24.412 9.434-32.808 5.251-7.565 12.312-12.515 21.524-12.946v-7.832c-4.211 4.651-10.11 7.211-17.637 7.211h-.005c-9.034-.001-14.537-3.12-16.359-8.702C21.793 3.482 27.295.363 36.33.362Zm32.634 50.483c.161.611.93 1.058 1.822 1.022.987-.04 1.775-.658 1.746-1.369s-.865-1.263-1.852-1.222l-.11.007c.313-1.124-.068-2.617-1.092-3.834-1.428-1.695-3.6-2.251-4.811-1.231s-1.033 3.254.395 4.95c1.117 1.327 2.69 1.956 3.902 1.678Zm-23.587-1.678c1.428-1.696 1.606-3.93.395-4.95s-3.383-.464-4.811 1.231-1.606 3.93-.395 4.95 3.383.464 4.811-1.231"/></svg>