<svg xmlns="http://www.w3.org/2000/svg" viewBox="0 0 100 100"><path d="M389.059.004c-27.598 0-49.98 22.378-49.993 49.973l-.002.017v.012l.002.017c.014 27.595 22.397 49.973 49.995 49.973s49.979-22.378 49.992-49.973l.002-.017v-.014l-.002-.018C439.039 22.38 416.656.004 389.059.004m0 1c23.025 0 42.195 15.931 47.447 37.334h-25.258c-.98-2.136-2.083-4.153-3.34-5.963-4.236-6.102-10.003-10.128-17.336-10.615v-4.813c3.44 3.336 8.038 5.23 13.78 5.23h.004c3.714 0 6.74-.638 9.05-1.888s3.893-3.127 4.668-5.502a.5.5 0 0 0 0-.308c-.775-2.375-2.357-4.254-4.668-5.504s-5.336-1.889-9.05-1.89h-.004c-6.616 0-11.755 2.468-15.29 6.831-3.535-4.363-8.675-6.83-15.29-6.83h-.005c-3.714 0-6.74.639-9.05 1.889s-3.893 3.129-4.668 5.504a.5.5 0 0 0 0 .308c.775 2.375 2.359 4.253 4.67 5.502 2.31 1.25 5.334 1.888 9.048 1.889h.004c5.74 0 10.34-1.893 13.78-5.229v4.815c-7.38.51-13.12 4.535-17.338 10.611-1.256 1.81-2.357 3.827-3.338 5.963h-25.26c5.252-21.402 24.42-37.334 47.444-37.334m-15.291 7.082h.004c6.594 0 11.534 2.436 14.892 6.85a.5.5 0 0 0 .797 0c3.358-4.414 8.295-6.85 14.89-6.85h.005c3.6 0 6.46.626 8.574 1.77 2.056 1.112 3.392 2.717 4.11 4.777-.718 2.06-2.054 3.665-4.11 4.777-2.114 1.143-4.975 1.768-8.574 1.768h-.004c-5.982 0-10.594-2.014-13.909-5.676a.5.5 0 0 0-.87.334c-.005 1.113-.002 3.445 0 6.34a.5.5 0 0 0 .478.5c7.236.315 12.828 4.206 17.037 10.27 1.132 1.63 2.112 3.474 3.02 5.392h-42.092c.907-1.918 1.886-3.762 3.017-5.393 4.19-6.035 9.75-9.924 17.041-10.265a.5.5 0 0 0 .477-.5v-6.34a.5.5 0 0 0-.871-.336c-3.315 3.661-7.928 5.673-13.908 5.674h-.004c-3.6 0-6.46-.625-8.575-1.768-2.056-1.112-3.392-2.718-4.109-4.777.717-2.06 2.053-3.665 4.11-4.778 2.113-1.143 4.974-1.769 8.574-1.77M341.38 39.338h95.359a49 49 0 0 1 1.315 10.656v.01a49 49 0 0 1-1.315 10.658H341.38a49 49 0 0 1-1.317-10.656v-.012c.04-3.59.496-7.161 1.317-10.656m.234 22.324h20.928c.058 1.415.076 2.61-.422 4.697-.555 2.326-1.744 5.77-4.195 11.754-.067.164-.112.397.002.623.113.226.33.33.49.37.321.078.606.032.967-.032.72-.127 1.673-.407 2.658-.683s2.001-.552 2.762-.666c.38-.058.699-.07.88-.045s.14.044.12-.008c1.05 2.71 3.703 8.848 8.963 13.658.195.18.952 1.094 1.68 2.135.727 1.04 1.482 2.258 1.86 3.144a.5.5 0 0 0 .725.229c.443-.278.725-.727 1.051-1.24.326-.514.662-1.098 1.023-1.621.361-.524.75-.98 1.127-1.24.378-.26.695-.347 1.123-.214 1.835.574 3.746.88 5.704.88s3.867-.306 5.703-.88c.428-.133.747-.047 1.125.213.377.26.766.717 1.127 1.24.36.524.698 1.108 1.023 1.622.326.513.606.962 1.049 1.24a.5.5 0 0 0 .725-.229c.378-.887 1.133-2.104 1.86-3.144.729-1.04 1.485-1.956 1.68-2.135 5.26-4.81 7.912-10.948 8.961-13.658-.02.052-.062.033.12.008.181-.025.5-.013.88.045.761.114 1.777.389 2.762.666.986.276 1.94.556 2.66.683.361.064.646.11.967.031a.73.73 0 0 0 .49-.367c.114-.226.07-.461.002-.625-2.45-5.984-3.64-9.428-4.195-11.754-.498-2.087-.48-3.282-.422-4.697h20.928c-5.252 21.402-24.42 37.334-47.445 37.334-23.026 0-42.194-15.931-47.446-37.334m21.928 0h51.037c-.056 1.435-.069 2.767.447 4.93.56 2.344 1.805 5.863 4.106 11.515-.092-.006-.099.003-.223-.02-.618-.108-1.573-.381-2.564-.66-.991-.278-2.024-.561-2.883-.69-.43-.065-.813-.096-1.166-.048-.353.05-.761.223-.916.624-1.027 2.653-3.633 8.642-8.703 13.279-.405.37-1.072 1.228-1.823 2.3-.602.862-1.128 1.797-1.574 2.672-.136-.165-.232-.239-.398-.501-.308-.486-.652-1.085-1.045-1.655s-.832-1.116-1.383-1.496c-.55-.38-1.26-.57-1.988-.342a18 18 0 0 1-5.406.832c-1.855 0-3.664-.287-5.407-.832-.728-.227-1.437-.038-1.988.342s-.99.927-1.383 1.496c-.393.57-.737 1.17-1.045 1.655-.166.262-.261.336-.398.501-.446-.874-.972-1.81-1.574-2.671-.75-1.073-1.418-1.93-1.823-2.301-5.07-4.637-7.677-10.626-8.705-13.28-.155-.4-.563-.574-.916-.623-.353-.048-.738-.017-1.168.047-.86.13-1.89.413-2.88.692-.991.278-1.945.55-2.563.66-.124.022-.131.013-.223.02 2.302-5.653 3.546-9.172 4.106-11.516.516-2.163.506-3.495.449-4.93" color="#000" paint-order="stroke markers fill" style="-inkscape-stroke:none" transform="translate(-339.06)"/></svg>