<svg xmlns="http://www.w3.org/2000/svg" width="128" height="128" viewBox="0 0 33.867 33.867"><g style="display:inline"><g style="display:inline"><path d="M33.867 16.933c0 9.352-7.582 16.934-16.934 16.934S0 26.285 0 16.933 7.581 0 16.933 0s16.934 7.581 16.934 16.933" style="display:inline;fill:#fcf9f7;fill-opacity:1;stroke-width:.307254"/><path d="M16.933 0C7.581 0 0 7.581 0 16.933c0 5.364 2.497 10.142 6.389 13.245.509-1.731.325-2.203.325-3.472 0-4.066 1.143-7.747 2.993-10.412 1.737-2.502 4.096-4.107 6.714-4.293V8.454c-1.14 1.287-3.338 2.491-5.55 2.491-2.617 0-4.975-1.543-5.282-3.198.307-1.654 2.665-3.197 5.282-3.197s5.211 1.683 6.062 3.197c.852-1.514 3.448-3.197 6.064-3.197s4.974 1.543 5.281 3.197c-.307 1.655-2.665 3.198-5.281 3.198-2.265 0-4.514-1.261-5.63-2.583v3.636c2.65.16 5.04 1.77 6.793 4.296 1.85 2.665 2.994 6.346 2.994 10.412 0 1.27-.185 1.741.324 3.472 3.892-3.103 6.389-7.88 6.389-13.245C33.867 7.581 26.285 0 16.933 0" style="display:inline;fill:#79cdee;fill-opacity:1;stroke-width:.307255"/><g style="display:inline"><path d="M20.89 3.47a.935 1.31 0 0 1-.935 1.31.935 1.31 0 0 1-.936-1.31.935 1.31 0 0 1 .936-1.31.935 1.31 0 0 1 .935 1.31" style="display:inline;fill:#79cdee;stroke:#79cdee;stroke-width:.661458;stroke-linecap:round;stroke-linejoin:round;paint-order:stroke markers fill" transform="rotate(40.105 -6.688 -.25)scale(1.10237)"/><path d="M-5.013 25.286a.935 1.31 0 0 1-.936 1.31.935 1.31 0 0 1-.935-1.31.935 1.31 0 0 1 .935-1.31.935 1.31 0 0 1 .936 1.31" style="display:inline;fill:#79cdee;stroke:#79cdee;stroke-width:.661458;stroke-linecap:round;stroke-linejoin:round;paint-order:stroke markers fill" transform="matrix(-.84317 .71013 .71013 .84317 -1.733 4.25)"/></g></g></g></svg>