<?xml version="1.0" encoding="UTF-8" standalone="no"?>
<!-- Created with Inkscape (http://www.inkscape.org/) -->

<svg
   width="127.99999"
   height="127.99999"
   viewBox="0 0 33.866664 33.866664"
   version="1.1"
   id="svg1"
   inkscape:version="1.3 (0e150ed6c4, 2023-07-21)"
   sodipodi:docname="Icon_chara.svg"
   inkscape:export-filename="Icon_chara.png"
   inkscape:export-xdpi="768"
   inkscape:export-ydpi="768"
   xmlns:inkscape="http://www.inkscape.org/namespaces/inkscape"
   xmlns:sodipodi="http://sodipodi.sourceforge.net/DTD/sodipodi-0.dtd"
   xmlns="http://www.w3.org/2000/svg"
   xmlns:svg="http://www.w3.org/2000/svg">
  <sodipodi:namedview
     id="namedview1"
     pagecolor="#ffffff"
     bordercolor="#000000"
     borderopacity="0.25"
     inkscape:showpageshadow="2"
     inkscape:pageopacity="0.0"
     inkscape:pagecheckerboard="true"
     inkscape:deskcolor="#d1d1d1"
     inkscape:document-units="px"
     inkscape:zoom="2"
     inkscape:cx="62.5"
     inkscape:cy="54.25"
     inkscape:window-width="2560"
     inkscape:window-height="1377"
     inkscape:window-x="1912"
     inkscape:window-y="-8"
     inkscape:window-maximized="1"
     inkscape:current-layer="layer2"
     labelstyle="below" />
  <defs
     id="defs1" />
  <g
     inkscape:groupmode="layer"
     id="layer2"
     inkscape:label="Layer 2"
     style="display:inline">
    <path
       id="path22"
       style="fill:#fcf9f7;fill-opacity:1;stroke-width:0.209115"
       d="m 11.433197,0.27224764 c -2.3733082,0 -4.5122764,1.40026636 -4.7908159,2.90096406 0.2785395,1.5006972 2.4175077,2.9005483 4.7908159,2.9005483 2.006968,0 4.000113,-1.0919542 5.03475,-2.2599134 V 7.031174 c -2.374874,0.1691919 -4.514564,1.6253158 -6.089986,3.89501 -1.6777186,2.41707 -2.7157263,5.756358 -2.7157263,9.444681 0,1.749367 0.4189861,1.768902 -1.6346801,6.783902 -0.2074792,0.506659 2.6110466,-0.784315 2.8031419,-0.288056 0.3691435,0.953645 1.3041485,3.109556 3.1407345,4.78915 0.213461,0.195216 1.013383,1.260924 1.302499,1.938558 0.402874,-0.253109 0.862239,-1.809319 1.684633,-1.552261 0.636398,0.19892 1.297022,0.303876 1.97477,0.303875 0.677748,0 1.338789,-0.104955 1.975188,-0.303875 0.822392,-0.257058 1.281756,1.299152 1.684631,1.552261 0.289116,-0.677634 1.088622,-1.743342 1.302083,-1.938558 1.836586,-1.679594 2.771591,-3.835505 3.140735,-4.78915 0.192095,-0.496259 3.010621,0.794715 2.803142,0.288056 -2.053666,-5.015 -1.634681,-5.034535 -1.634681,-6.783902 0,-3.688323 -1.037591,-7.027611 -2.715309,-9.444681 -1.591162,-2.2923668 -3.758694,-3.7526515 -6.162,-3.8975077 V 3.7305932 c 1.012,1.1988681 3.051642,2.3431668 5.106347,2.3431668 2.373309,0 4.512693,-1.3998511 4.791233,-2.9005483 -0.27854,-1.5006977 -2.417924,-2.90096406 -4.791233,-2.90096406 -2.373311,0 -4.727821,1.52687566 -5.500136,2.90096406 0.0047,0.00832 0.01019,0.016642 0.01498,0.024976 h -0.02997 c 0.0048,-0.00833 0.01031,-0.016654 0.01498,-0.024976 C 16.161009,1.7991233 13.806499,0.27224764 11.433188,0.27224764 Z" />
  </g>
</svg>
